<?xml version="1.0" encoding="utf-8"?>
<!-- Generator: Adobe Illustrator 23.1.1, SVG Export Plug-In . SVG Version: 6.00 Build 0)  -->
<svg version="1.1" id="Capa_1" xmlns="http://www.w3.org/2000/svg" xmlns:xlink="http://www.w3.org/1999/xlink" x="0px" y="0px"
	 viewBox="0 0 152 174" style="enable-background:new 0 0 152 174;" xml:space="preserve">
<style type="text/css">
	.st0{fill:#FFFFFF;}
	.st1{fill:none;}
</style>
<g>
	<path class="st0" d="M127.1,147.6c0,0.8-0.7,1.5-1.5,1.5c-0.8,0-1.5-0.7-1.5-1.5c0-0.8,0.7-1.5,1.5-1.5
		C126.4,146.1,127.1,146.8,127.1,147.6"/>
	<path class="st0" d="M77.5,147.6c0,0.8-0.7,1.5-1.5,1.5c-0.8,0-1.5-0.7-1.5-1.5c0-0.8,0.7-1.5,1.5-1.5
		C76.8,146.1,77.5,146.8,77.5,147.6"/>
	<path class="st0" d="M27.9,147.6c0,0.8-0.7,1.5-1.5,1.5c-0.8,0-1.5-0.7-1.5-1.5c0-0.8,0.7-1.5,1.5-1.5
		C27.2,146.1,27.9,146.8,27.9,147.6"/>
	<path class="st0" d="M127.1,107.2c0,0.8-0.7,1.5-1.5,1.5c-0.8,0-1.5-0.7-1.5-1.5c0-0.8,0.7-1.5,1.5-1.5
		C126.4,105.7,127.1,106.4,127.1,107.2"/>
	<path class="st0" d="M77.5,107.2c0,0.8-0.7,1.5-1.5,1.5c-0.8,0-1.5-0.7-1.5-1.5c0-0.8,0.7-1.5,1.5-1.5
		C76.8,105.7,77.5,106.4,77.5,107.2"/>
	<path class="st0" d="M27.9,107.2c0,0.8-0.7,1.5-1.5,1.5c-0.8,0-1.5-0.7-1.5-1.5c0-0.8,0.7-1.5,1.5-1.5
		C27.2,105.7,27.9,106.4,27.9,107.2"/>
	<path class="st0" d="M127.1,66.8c0,0.8-0.7,1.5-1.5,1.5c-0.8,0-1.5-0.7-1.5-1.5c0-0.8,0.7-1.5,1.5-1.5
		C126.4,65.3,127.1,66,127.1,66.8"/>
	<path class="st0" d="M77.5,66.8c0,0.8-0.7,1.5-1.5,1.5c-0.8,0-1.5-0.7-1.5-1.5c0-0.8,0.7-1.5,1.5-1.5C76.8,65.3,77.5,66,77.5,66.8"
		/>
	<path class="st0" d="M27.9,66.8c0,0.8-0.7,1.5-1.5,1.5c-0.8,0-1.5-0.7-1.5-1.5c0-0.8,0.7-1.5,1.5-1.5C27.2,65.3,27.9,66,27.9,66.8"
		/>
	<path class="st0" d="M127.1,26.4c0,0.8-0.7,1.5-1.5,1.5c-0.8,0-1.5-0.7-1.5-1.5c0-0.8,0.7-1.5,1.5-1.5
		C126.4,24.9,127.1,25.6,127.1,26.4"/>
	<path class="st0" d="M77.5,26.4c0,0.8-0.7,1.5-1.5,1.5c-0.8,0-1.5-0.7-1.5-1.5c0-0.8,0.7-1.5,1.5-1.5
		C76.8,24.9,77.5,25.6,77.5,26.4"/>
	<path class="st0" d="M27.9,26.4c0,0.8-0.7,1.5-1.5,1.5c-0.8,0-1.5-0.7-1.5-1.5c0-0.8,0.7-1.5,1.5-1.5
		C27.2,24.9,27.9,25.6,27.9,26.4"/>
	<path class="st0" d="M127.1,147.6c0,0.8-0.7,1.5-1.5,1.5c-0.8,0-1.5-0.7-1.5-1.5c0-0.8,0.7-1.5,1.5-1.5
		C126.4,146.1,127.1,146.8,127.1,147.6"/>
	<path class="st0" d="M77.5,147.6c0,0.8-0.7,1.5-1.5,1.5c-0.8,0-1.5-0.7-1.5-1.5c0-0.8,0.7-1.5,1.5-1.5
		C76.8,146.1,77.5,146.8,77.5,147.6"/>
	<path class="st0" d="M27.9,147.6c0,0.8-0.7,1.5-1.5,1.5c-0.8,0-1.5-0.7-1.5-1.5c0-0.8,0.7-1.5,1.5-1.5
		C27.2,146.1,27.9,146.8,27.9,147.6"/>
	<path class="st0" d="M127.1,107.2c0,0.8-0.7,1.5-1.5,1.5c-0.8,0-1.5-0.7-1.5-1.5c0-0.8,0.7-1.5,1.5-1.5
		C126.4,105.7,127.1,106.4,127.1,107.2"/>
	<path class="st0" d="M77.5,107.2c0,0.8-0.7,1.5-1.5,1.5c-0.8,0-1.5-0.7-1.5-1.5c0-0.8,0.7-1.5,1.5-1.5
		C76.8,105.7,77.5,106.4,77.5,107.2"/>
	<path class="st0" d="M27.9,107.2c0,0.8-0.7,1.5-1.5,1.5c-0.8,0-1.5-0.7-1.5-1.5c0-0.8,0.7-1.5,1.5-1.5
		C27.2,105.7,27.9,106.4,27.9,107.2"/>
	<path class="st0" d="M127.1,66.8c0,0.8-0.7,1.5-1.5,1.5c-0.8,0-1.5-0.7-1.5-1.5c0-0.8,0.7-1.5,1.5-1.5
		C126.4,65.3,127.1,66,127.1,66.8"/>
	<path class="st0" d="M77.5,66.8c0,0.8-0.7,1.5-1.5,1.5c-0.8,0-1.5-0.7-1.5-1.5c0-0.8,0.7-1.5,1.5-1.5C76.8,65.3,77.5,66,77.5,66.8"
		/>
	<path class="st0" d="M27.9,66.8c0,0.8-0.7,1.5-1.5,1.5c-0.8,0-1.5-0.7-1.5-1.5c0-0.8,0.7-1.5,1.5-1.5C27.2,65.3,27.9,66,27.9,66.8"
		/>
	<path class="st0" d="M127.1,26.4c0,0.8-0.7,1.5-1.5,1.5c-0.8,0-1.5-0.7-1.5-1.5c0-0.8,0.7-1.5,1.5-1.5
		C126.4,24.9,127.1,25.6,127.1,26.4"/>
	<path class="st0" d="M77.5,26.4c0,0.8-0.7,1.5-1.5,1.5c-0.8,0-1.5-0.7-1.5-1.5c0-0.8,0.7-1.5,1.5-1.5
		C76.8,24.9,77.5,25.6,77.5,26.4"/>
	<path class="st0" d="M27.9,26.4c0,0.8-0.7,1.5-1.5,1.5c-0.8,0-1.5-0.7-1.5-1.5c0-0.8,0.7-1.5,1.5-1.5
		C27.2,24.9,27.9,25.6,27.9,26.4"/>
	<rect class="st1" width="152" height="174"/>
</g>
</svg>
