<?xml version="1.0" encoding="utf-8"?>
<!-- Generator: Adobe Illustrator 23.1.1, SVG Export Plug-In . SVG Version: 6.00 Build 0)  -->
<svg version="1.1" id="Capa_1" xmlns="http://www.w3.org/2000/svg" xmlns:xlink="http://www.w3.org/1999/xlink" x="0px" y="0px"
	 viewBox="0 0 540 1095" style="enable-background:new 0 0 540 1095;" xml:space="preserve">
<style type="text/css">
	.st0{fill:none;}
	.st1{fill:none;stroke:#434343;stroke-width:1.44;}
	.st2{opacity:0.45;}
	.st3{opacity:0.38;}
	.st4{clip-path:url(#XMLID_4_);}
	.st5{fill:none;stroke:#FFFFFF;stroke-width:0.7041;stroke-miterlimit:10;}
	.st6{fill:none;stroke:#FFFFFF;stroke-width:0.6883;stroke-miterlimit:10;}
	.st7{fill:none;stroke:#FFFFFF;stroke-width:0.6725;stroke-miterlimit:10;}
	.st8{fill:none;stroke:#FFFFFF;stroke-width:0.6567;stroke-miterlimit:10;}
	.st9{fill:none;stroke:#FFFFFF;stroke-width:0.6408;stroke-miterlimit:10;}
	.st10{fill:none;stroke:#FFFFFF;stroke-width:0.625;stroke-miterlimit:10;}
	.st11{fill:none;stroke:#FFFFFF;stroke-width:0.6092;stroke-miterlimit:10;}
	.st12{fill:none;stroke:#FFFFFF;stroke-width:0.5933;stroke-miterlimit:10;}
	.st13{fill:none;stroke:#FFFFFF;stroke-width:0.5775;stroke-miterlimit:10;}
	.st14{fill:none;stroke:#FFFFFF;stroke-width:0.5617;stroke-miterlimit:10;}
	.st15{fill:none;stroke:#FFFFFF;stroke-width:0.5459;stroke-miterlimit:10;}
	.st16{fill:none;stroke:#FFFFFF;stroke-width:0.53;stroke-miterlimit:10;}
	.st17{fill:none;stroke:#FFFFFF;stroke-width:0.5142;stroke-miterlimit:10;}
	.st18{fill:none;stroke:#FFFFFF;stroke-width:0.4984;stroke-miterlimit:10;}
	.st19{opacity:8.000000e-02;fill:#F9F9F9;}
	.st20{opacity:5.000000e-02;fill:#FFFFFF;stroke:#FFFFFF;stroke-miterlimit:10;}
	.st21{opacity:0.45;fill:url(#XMLID_5_);}
</style>
<pattern  width="72" height="72" patternUnits="userSpaceOnUse" id="_x31_0_lpp_20_x25__2" viewBox="72.2 -72 72 72" style="overflow:visible;">
	<g id="XMLID_82_">
		<rect id="XMLID_129_" x="72.2" y="-72" class="st0" width="72" height="72"/>
		<g id="XMLID_114_">
			<line id="XMLID_126_" class="st1" x1="144" y1="-3.6" x2="216.5" y2="-3.6"/>
			<line id="XMLID_125_" class="st1" x1="144" y1="-18" x2="216.5" y2="-18"/>
			<line id="XMLID_123_" class="st1" x1="144" y1="-32.4" x2="216.5" y2="-32.4"/>
			<line id="XMLID_121_" class="st1" x1="144" y1="-46.8" x2="216.5" y2="-46.8"/>
			<line id="XMLID_120_" class="st1" x1="144" y1="-61.2" x2="216.5" y2="-61.2"/>
			<line id="XMLID_119_" class="st1" x1="144" y1="-10.8" x2="216.5" y2="-10.8"/>
			<line id="XMLID_118_" class="st1" x1="144" y1="-25.2" x2="216.5" y2="-25.2"/>
			<line id="XMLID_117_" class="st1" x1="144" y1="-39.6" x2="216.5" y2="-39.6"/>
			<line id="XMLID_116_" class="st1" x1="144" y1="-54" x2="216.5" y2="-54"/>
			<line id="XMLID_115_" class="st1" x1="144" y1="-68.4" x2="216.5" y2="-68.4"/>
		</g>
		<g id="XMLID_99_">
			<line id="XMLID_113_" class="st1" x1="72" y1="-3.6" x2="144.5" y2="-3.6"/>
			<line id="XMLID_112_" class="st1" x1="72" y1="-18" x2="144.5" y2="-18"/>
			<line id="XMLID_111_" class="st1" x1="72" y1="-32.4" x2="144.5" y2="-32.4"/>
			<line id="XMLID_109_" class="st1" x1="72" y1="-46.8" x2="144.5" y2="-46.8"/>
			<line id="XMLID_108_" class="st1" x1="72" y1="-61.2" x2="144.5" y2="-61.2"/>
			<line id="XMLID_107_" class="st1" x1="72" y1="-10.8" x2="144.5" y2="-10.8"/>
			<line id="XMLID_105_" class="st1" x1="72" y1="-25.2" x2="144.5" y2="-25.2"/>
			<line id="XMLID_102_" class="st1" x1="72" y1="-39.6" x2="144.5" y2="-39.6"/>
			<line id="XMLID_101_" class="st1" x1="72" y1="-54" x2="144.5" y2="-54"/>
			<line id="XMLID_100_" class="st1" x1="72" y1="-68.4" x2="144.5" y2="-68.4"/>
		</g>
		<g id="XMLID_83_">
			<line id="XMLID_98_" class="st1" x1="0" y1="-3.6" x2="72.5" y2="-3.6"/>
			<line id="XMLID_96_" class="st1" x1="0" y1="-18" x2="72.5" y2="-18"/>
			<line id="XMLID_93_" class="st1" x1="0" y1="-32.4" x2="72.5" y2="-32.4"/>
			<line id="XMLID_91_" class="st1" x1="0" y1="-46.8" x2="72.5" y2="-46.8"/>
			<line id="XMLID_90_" class="st1" x1="0" y1="-61.2" x2="72.5" y2="-61.2"/>
			<line id="XMLID_88_" class="st1" x1="0" y1="-10.8" x2="72.5" y2="-10.8"/>
			<line id="XMLID_87_" class="st1" x1="0" y1="-25.2" x2="72.5" y2="-25.2"/>
			<line id="XMLID_86_" class="st1" x1="0" y1="-39.6" x2="72.5" y2="-39.6"/>
			<line id="XMLID_85_" class="st1" x1="0" y1="-54" x2="72.5" y2="-54"/>
			<line id="XMLID_84_" class="st1" x1="0" y1="-68.4" x2="72.5" y2="-68.4"/>
		</g>
	</g>
</pattern>
<g>
	<g id="XMLID_32_" class="st2">
		<g id="XMLID_34_" class="st3">
			<defs>
				
					<rect id="XMLID_35_" x="267.5" y="-1.6" transform="matrix(-1.836970e-16 1 -1 -1.836970e-16 538.222 -267.6979)" class="st3" width="271" height="273.8"/>
			</defs>
			<clipPath id="XMLID_4_">
				<use xlink:href="#XMLID_35_"  style="overflow:visible;"/>
			</clipPath>
			<g id="XMLID_36_" class="st4">
				<circle id="XMLID_2_" class="st5" cx="267.7" cy="-0.2" r="266.2"/>
				
					<ellipse transform="matrix(0.7071 -0.7071 0.7071 0.7071 78.5627 189.2149)" class="st6" cx="267.7" cy="-0.2" rx="247" ry="247"/>
				
					<ellipse transform="matrix(0.7071 -0.7071 0.7071 0.7071 78.5627 189.2149)" class="st7" cx="267.7" cy="-0.2" rx="227.8" ry="227.8"/>
				
					<ellipse transform="matrix(0.7071 -0.7071 0.7071 0.7071 78.5627 189.2149)" class="st8" cx="267.7" cy="-0.2" rx="208.5" ry="208.5"/>
				
					<ellipse transform="matrix(0.7071 -0.7071 0.7071 0.7071 78.5627 189.2149)" class="st9" cx="267.7" cy="-0.2" rx="189.3" ry="189.3"/>
				
					<ellipse transform="matrix(0.7071 -0.7071 0.7071 0.7071 78.5627 189.2149)" class="st10" cx="267.7" cy="-0.2" rx="170" ry="170"/>
				
					<ellipse transform="matrix(0.7071 -0.7071 0.7071 0.7071 78.5627 189.2149)" class="st11" cx="267.7" cy="-0.2" rx="150.8" ry="150.8"/>
				
					<ellipse transform="matrix(0.7071 -0.7071 0.7071 0.7071 78.5627 189.2149)" class="st12" cx="267.7" cy="-0.2" rx="131.6" ry="131.6"/>
				
					<ellipse transform="matrix(0.7071 -0.7071 0.7071 0.7071 78.5627 189.2149)" class="st13" cx="267.7" cy="-0.2" rx="112.3" ry="112.3"/>
				
					<ellipse transform="matrix(0.7071 -0.7071 0.7071 0.7071 78.5627 189.2149)" class="st14" cx="267.7" cy="-0.2" rx="93.1" ry="93.1"/>
				
					<ellipse transform="matrix(0.7071 -0.7071 0.7071 0.7071 78.5627 189.2149)" class="st15" cx="267.7" cy="-0.2" rx="73.9" ry="73.9"/>
				
					<ellipse transform="matrix(0.1471 -0.9891 0.9891 0.1471 228.5409 264.5806)" class="st16" cx="267.7" cy="-0.2" rx="54.6" ry="54.6"/>
				
					<ellipse transform="matrix(0.1456 -0.9893 0.9893 0.1456 228.944 264.6398)" class="st17" cx="267.7" cy="-0.2" rx="35.4" ry="35.4"/>
				
					<ellipse id="XMLID_1_" transform="matrix(0.1437 -0.9896 0.9896 0.1437 229.4409 264.712)" class="st18" cx="267.7" cy="-0.2" rx="16.2" ry="16.2"/>
			</g>
		</g>
		<path id="XMLID_33_" class="st19" d="M0.2,0.5c0,0.1,0,0.1,0,0.2c0,147,119.2,266.2,266.2,266.2V0.5H0.2z"/>
	</g>
	<path class="st20" d="M2.7,829.2c0,0-0.5,0-0.4,0c146.9,0,262.4,119,262.4,266V837.6v-8.4v-6c0,0,2.8,0,2.7,0
		C120.4,823.2,0.7,704.7,0.7,557.6v269.1"/>
	<pattern  id="XMLID_5_" xlink:href="#_x31_0_lpp_20_x25__2" patternTransform="matrix(2.7127 0 0 2.7127 13159.7021 12907.5703)">
	</pattern>
	<path id="XMLID_16_" class="st21" d="M266.4,535c0-0.1,0-0.1,0-0.2c0-147-119.2-266.2-266.2-266.2V535H266.4z"/>
</g>
</svg>
