<?xml version="1.0" encoding="utf-8"?>
<!-- Generator: Adobe Illustrator 20.0.0, SVG Export Plug-In . SVG Version: 6.00 Build 0)  -->
<svg version="1.1" id="Layer_1" xmlns="http://www.w3.org/2000/svg" xmlns:xlink="http://www.w3.org/1999/xlink" x="0px" y="0px"
	 viewBox="0 0 40 15" style="enable-background:new 0 0 40 15;" xml:space="preserve">
<style type="text/css">
	.st0{fill:#FFFFFF;}
</style>
<g>
	<path class="st0" d="M0.9,2.3h4.2c0.8,0,1.4,0.2,1.8,0.5s0.7,0.9,0.7,1.6c0,0.4-0.1,0.8-0.3,1.1S6.8,6.1,6.4,6.2v0
		C6.9,6.4,7.3,6.6,7.6,7C7.9,7.4,8,7.9,8,8.5C8,8.8,8,9.1,7.8,9.4c-0.1,0.3-0.3,0.5-0.6,0.8c-0.3,0.2-0.6,0.4-1,0.5
		c-0.4,0.1-0.9,0.2-1.4,0.2H0.9V2.3z M2.4,5.9h2.4c0.4,0,0.7-0.1,0.9-0.3C6,5.4,6.1,5.1,6.1,4.7c0-0.4-0.1-0.7-0.3-0.9
		C5.6,3.6,5.3,3.5,4.9,3.5H2.4V5.9z M2.4,9.6h2.7c0.5,0,0.8-0.1,1.1-0.4s0.4-0.6,0.4-1c0-0.4-0.1-0.8-0.4-1C5.9,7.1,5.5,6.9,5.1,6.9
		H2.4V9.6z"/>
	<path class="st0" d="M9.2,2.3h1.4v8.6H9.2V2.3z"/>
	<path class="st0" d="M14.9,11c-0.5,0-0.9-0.1-1.3-0.2c-0.4-0.2-0.7-0.4-1-0.7s-0.5-0.6-0.6-1c-0.1-0.4-0.2-0.8-0.2-1.3
		c0-0.5,0.1-0.9,0.2-1.3c0.1-0.4,0.3-0.7,0.6-1c0.3-0.3,0.6-0.5,1-0.7c0.4-0.2,0.8-0.2,1.3-0.2s0.9,0.1,1.3,0.2
		c0.4,0.2,0.7,0.4,1,0.7c0.3,0.3,0.5,0.6,0.6,1c0.1,0.4,0.2,0.8,0.2,1.3c0,0.5-0.1,0.9-0.2,1.3c-0.1,0.4-0.3,0.7-0.6,1
		c-0.3,0.3-0.6,0.5-1,0.7C15.9,10.9,15.4,11,14.9,11z M14.9,9.9c0.3,0,0.6-0.1,0.8-0.2c0.2-0.1,0.4-0.3,0.6-0.5
		c0.1-0.2,0.2-0.4,0.3-0.7c0.1-0.3,0.1-0.5,0.1-0.8c0-0.3,0-0.5-0.1-0.8c-0.1-0.3-0.2-0.5-0.3-0.7c-0.1-0.2-0.3-0.4-0.6-0.5
		s-0.5-0.2-0.8-0.2s-0.6,0.1-0.8,0.2S13.7,6,13.6,6.2c-0.1,0.2-0.3,0.4-0.3,0.7c-0.1,0.3-0.1,0.5-0.1,0.8c0,0.3,0,0.5,0.1,0.8
		c0.1,0.3,0.2,0.5,0.3,0.7c0.1,0.2,0.3,0.4,0.6,0.5C14.4,9.9,14.6,9.9,14.9,9.9z"/>
	<path class="st0" d="M25,13.1h-1.4V10h0c-0.1,0.2-0.2,0.3-0.4,0.4c-0.2,0.1-0.3,0.2-0.5,0.3c-0.2,0.1-0.4,0.1-0.6,0.2
		C22,11,21.8,11,21.6,11c-0.5,0-0.9-0.1-1.2-0.3c-0.3-0.2-0.6-0.4-0.8-0.7c-0.2-0.3-0.4-0.6-0.5-1c-0.1-0.4-0.2-0.8-0.2-1.2
		c0-0.5,0.1-0.9,0.2-1.3c0.1-0.4,0.3-0.8,0.5-1c0.2-0.3,0.5-0.5,0.9-0.7c0.4-0.2,0.8-0.3,1.3-0.3c0.4,0,0.8,0.1,1.1,0.2
		c0.3,0.2,0.6,0.4,0.8,0.8h0V4.6H25V13.1z M20.3,7.7c0,0.3,0,0.5,0.1,0.8c0.1,0.3,0.2,0.5,0.3,0.7c0.1,0.2,0.3,0.4,0.5,0.5
		c0.2,0.1,0.5,0.2,0.8,0.2c0.6,0,1-0.2,1.3-0.6c0.3-0.4,0.4-0.9,0.4-1.6c0-0.7-0.1-1.2-0.4-1.6C23,5.7,22.6,5.6,22,5.6
		c-0.3,0-0.5,0.1-0.7,0.2S20.8,6,20.7,6.2c-0.1,0.2-0.3,0.4-0.3,0.7C20.3,7.2,20.3,7.5,20.3,7.7z"/>
	<path class="st0" d="M32,10.8h-1.3V10h0c-0.2,0.3-0.4,0.6-0.8,0.8c-0.3,0.2-0.7,0.3-1,0.3c-0.8,0-1.4-0.2-1.8-0.6
		c-0.4-0.4-0.5-1-0.5-1.8V4.6h1.4v3.8c0,0.5,0.1,0.9,0.3,1.2c0.2,0.2,0.5,0.3,0.9,0.3c0.3,0,0.5,0,0.7-0.1s0.3-0.2,0.5-0.4
		c0.1-0.1,0.2-0.3,0.3-0.5c0.1-0.2,0.1-0.4,0.1-0.7V4.6H32V10.8z"/>
	<path class="st0" d="M34.5,8.1c0,0.2,0,0.5,0.1,0.7c0.1,0.2,0.2,0.4,0.3,0.6c0.1,0.2,0.3,0.3,0.5,0.4c0.2,0.1,0.5,0.2,0.7,0.2
		c0.4,0,0.7-0.1,1-0.3s0.4-0.4,0.5-0.8H39c-0.1,0.3-0.2,0.6-0.4,0.9c-0.2,0.3-0.4,0.5-0.6,0.7c-0.2,0.2-0.5,0.3-0.8,0.4
		c-0.3,0.1-0.6,0.1-1,0.1c-0.5,0-0.9-0.1-1.3-0.2s-0.7-0.4-1-0.7s-0.5-0.6-0.6-1c-0.1-0.4-0.2-0.8-0.2-1.3c0-0.4,0.1-0.9,0.2-1.3
		s0.3-0.7,0.6-1c0.3-0.3,0.6-0.5,0.9-0.7s0.8-0.3,1.2-0.3c0.5,0,0.9,0.1,1.3,0.3c0.4,0.2,0.7,0.5,1,0.8s0.4,0.7,0.6,1.2
		s0.1,0.9,0.1,1.4H34.5z M37.7,7.2c0-0.2-0.1-0.4-0.1-0.6c-0.1-0.2-0.2-0.4-0.3-0.5s-0.3-0.3-0.5-0.4c-0.2-0.1-0.4-0.1-0.6-0.1
		c-0.2,0-0.5,0-0.7,0.1C35.3,5.8,35.1,5.9,35,6c-0.1,0.1-0.3,0.3-0.3,0.5S34.5,7,34.5,7.2H37.7z"/>
</g>
</svg>
