<?xml version="1.0" encoding="utf-8"?>
<!-- Generator: Adobe Illustrator 20.0.0, SVG Export Plug-In . SVG Version: 6.00 Build 0)  -->
<svg version="1.1" id="Layer_1" xmlns="http://www.w3.org/2000/svg" xmlns:xlink="http://www.w3.org/1999/xlink" x="0px" y="0px"
	 viewBox="0 0 30 25" style="enable-background:new 0 0 30 25;" xml:space="preserve">
<style type="text/css">
	.st0{fill:#212342;}
</style>
<g>
	<path class="st0" d="M17.1,17.3h10.9V7.7H17.1V17.3z M28.6,18.7H16.4c-0.4,0-0.7-0.3-0.7-0.7V7c0-0.4,0.3-0.7,0.7-0.7h12.3
		c0.4,0,0.7,0.3,0.7,0.7v11C29.3,18.4,29,18.7,28.6,18.7"/>
	<path class="st0" d="M13.3,9.1H1.4C1,9.1,0.7,8.8,0.7,8.4C0.7,8,1,7.7,1.4,7.7h11.9C13.7,7.7,14,8,14,8.4C14,8.8,13.7,9.1,13.3,9.1
		"/>
	<path class="st0" d="M13.3,13.3H1.4c-0.4,0-0.7-0.3-0.7-0.7c0-0.4,0.3-0.7,0.7-0.7h11.9c0.4,0,0.7,0.3,0.7,0.7
		C14,13,13.7,13.3,13.3,13.3"/>
	<path class="st0" d="M13.3,17.5H1.4c-0.4,0-0.7-0.3-0.7-0.7c0-0.4,0.3-0.7,0.7-0.7h11.9c0.4,0,0.7,0.3,0.7,0.7
		C14,17.2,13.7,17.5,13.3,17.5"/>
</g>
</svg>
