<?xml version="1.0" encoding="utf-8"?>
<!-- Generator: Adobe Illustrator 23.1.1, SVG Export Plug-In . SVG Version: 6.00 Build 0)  -->
<svg version="1.1" id="Capa_1" xmlns="http://www.w3.org/2000/svg" xmlns:xlink="http://www.w3.org/1999/xlink" x="0px" y="0px"
	 viewBox="0 0 25 25" style="enable-background:new 0 0 25 25;" xml:space="preserve">
<style type="text/css">
	.st0{fill:#0B4CC8;}
</style>
<path class="st0" d="M23.4,4.2h-8.2c-0.8,0-1.6,0.4-2.3,1c-0.1,0.1-0.2,0.2-0.3,0.3c-0.1-0.1-0.2-0.2-0.3-0.3c-0.7-0.6-1.5-1-2.3-1
	H1.6C1.2,4.2,0.8,4.6,0.8,5v14.3c0,0.5,0.4,0.9,0.9,0.9h8.3c0.7,0,1.5,0.2,2.1,0.5c0.1,0.1,0.3,0.1,0.4,0.1c0,0,0.1,0,0.1,0
	c0,0,0.1,0,0.1,0c0.1,0,0.3,0,0.4-0.1c0.6-0.3,1.3-0.5,2.1-0.5h8.2c0.5,0,0.9-0.4,0.9-0.9V5C24.2,4.6,23.8,4.2,23.4,4.2z M11.5,7.4
	v11.3c-0.5-0.1-1.1-0.2-1.6-0.2H2.5V5.9h7.4c0.3,0,0.7,0.2,1.1,0.5c0.4,0.3,0.5,0.7,0.5,0.8C11.5,7.2,11.5,7.3,11.5,7.4z M22.5,18.5
	h-7.4c-0.6,0-1.1,0.1-1.6,0.2V7.4c0-0.1,0-0.1,0-0.1c0-0.1,0.1-0.5,0.5-0.8c0.4-0.4,0.8-0.5,1.1-0.5h7.4V18.5z"/>
</svg>
