<?xml version="1.0" encoding="utf-8"?>
<!-- Generator: Adobe Illustrator 23.1.1, SVG Export Plug-In . SVG Version: 6.00 Build 0)  -->
<svg version="1.1" id="Capa_1" xmlns="http://www.w3.org/2000/svg" xmlns:xlink="http://www.w3.org/1999/xlink" x="0px" y="0px"
	 viewBox="0 0 40 40" style="enable-background:new 0 0 40 40;" xml:space="preserve">
<style type="text/css">
	.st0{clip-path:url(#SVGID_2_);fill:#142145;}
</style>
<g>
	<defs>
		<rect id="SVGID_1_" x="3.28" y="2" width="34.02" height="36.11"/>
	</defs>
	<clipPath id="SVGID_2_">
		<use xlink:href="#SVGID_1_"  style="overflow:visible;"/>
	</clipPath>
	<path class="st0" d="M18.89,35.56l2.69,0.07l0.09-0.65c0.21-2.38,1.65-4.59,3.84-5.87c2.22-1.29,4.86-1.42,7.08-0.34L33.08,29
		l1.37-2.28l-0.31-0.23c-2.1-1.47-3.37-3.9-3.37-6.49c0-2.51,1.23-4.86,3.28-6.28l0.36-0.26l-1.28-2.33l-0.6,0.24
		c-2.17,1.01-4.79,0.88-6.95-0.38c-2.19-1.27-3.63-3.49-3.84-5.93l-0.04-0.52L19,4.49l-0.09,0.65C18.7,7.51,17.26,9.73,15.07,11
		c-2.22,1.29-4.87,1.41-7.08,0.34l-0.48-0.23l-1.37,2.28l0.31,0.23c2.1,1.47,3.37,3.9,3.37,6.49c0,2.52-1.23,4.86-3.29,6.28
		l-0.35,0.25l1.28,2.33l0.6-0.24c1.9-0.96,4.75-0.92,6.96,0.38c2.18,1.27,3.62,3.48,3.83,5.92L18.89,35.56z M22.66,38.11h-0.03
		l-4.91-0.12c-0.63-0.02-1.15-0.51-1.2-1.14l-0.12-1.62c-0.14-1.63-1.13-3.13-2.62-4c-1.5-0.88-3.36-0.94-4.7-0.26l-1.7,0.7
		c-0.58,0.24-1.24,0-1.54-0.55l-2.34-4.25c-0.3-0.55-0.14-1.23,0.36-1.59l1.26-0.9c1.41-0.97,2.24-2.56,2.24-4.27
		c0-1.79-0.88-3.47-2.35-4.5L3.78,14.7c-0.51-0.38-0.64-1.08-0.32-1.62l2.51-4.19C6.3,8.34,6.99,8.13,7.56,8.41l1.5,0.72
		c1.48,0.72,3.27,0.62,4.78-0.25c1.5-0.87,2.48-2.37,2.63-4.01l0.25-1.8c0.09-0.62,0.55-1.07,1.25-1.06l4.91,0.12
		c0.63,0.02,1.15,0.51,1.2,1.14l0.12,1.62c0.14,1.63,1.13,3.13,2.62,4c1.47,0.85,3.24,0.95,4.73,0.25l1.67-0.68
		c0.58-0.24,1.25,0,1.54,0.55l2.34,4.25c0.3,0.55,0.14,1.23-0.36,1.59l-1.26,0.9c-0.01,0-0.01,0.01-0.02,0.01
		c-1.39,0.96-2.22,2.55-2.22,4.26c0,1.79,0.88,3.47,2.35,4.5l1.23,0.92c0.5,0.38,0.64,1.08,0.32,1.62l-2.51,4.19
		c-0.33,0.54-1.02,0.76-1.59,0.48l-1.5-0.72c-1.48-0.72-3.27-0.62-4.78,0.25c-1.5,0.87-2.48,2.37-2.63,4.01l-0.25,1.8
		C23.79,37.66,23.27,38.11,22.66,38.11"/>
	<path class="st0" d="M20.29,15.67c-2.42,0-4.39,1.97-4.39,4.39c0,2.42,1.97,4.39,4.39,4.39s4.39-1.97,4.39-4.39
		C24.68,17.64,22.71,15.67,20.29,15.67 M20.29,26.91c-3.78,0-6.85-3.07-6.85-6.85s3.07-6.85,6.85-6.85s6.85,3.07,6.85,6.85
		S24.07,26.91,20.29,26.91"/>
</g>
</svg>
