<?xml version="1.0" encoding="utf-8"?>
<!-- Generator: Adobe Illustrator 23.1.1, SVG Export Plug-In . SVG Version: 6.00 Build 0)  -->
<svg version="1.1" id="Capa_1" xmlns="http://www.w3.org/2000/svg" xmlns:xlink="http://www.w3.org/1999/xlink" x="0px" y="0px"
	 viewBox="0 0 25 25" style="enable-background:new 0 0 25 25;" xml:space="preserve">
<style type="text/css">
	.st0{fill:#0B4CC8;}
</style>
<g>
	<path class="st0" d="M23.7,16.1l-0.8-0.6c-1-0.7-1.6-1.8-1.6-3c0-1.2,0.6-2.2,1.5-2.9c0,0,0,0,0,0L23.6,9c0.3-0.2,0.4-0.7,0.2-1.1
		L22.3,5c-0.2-0.4-0.6-0.5-1-0.4l-1.1,0.5c-1,0.5-2.2,0.4-3.2-0.2c-1-0.6-1.7-1.6-1.8-2.7l-0.1-1.1c0-0.4-0.4-0.8-0.8-0.8l-3.3-0.1
		c-0.5,0-0.8,0.3-0.8,0.7L9.9,2.2C9.8,3.3,9.1,4.4,8.1,4.9c-1,0.6-2.2,0.7-3.2,0.2l-1-0.5C3.5,4.4,3,4.6,2.8,4.9L1.1,7.8
		C0.9,8.1,1,8.6,1.3,8.9l0.8,0.6c1,0.7,1.6,1.8,1.6,3c0,1.2-0.6,2.2-1.5,2.9L1.4,16c-0.3,0.2-0.4,0.7-0.2,1.1L2.7,20
		c0.2,0.4,0.6,0.5,1,0.4l1.1-0.5c0.9-0.5,2.2-0.4,3.2,0.2c1,0.6,1.7,1.6,1.8,2.7l0.1,1.1c0,0.4,0.4,0.8,0.8,0.8l3.3,0.1h0
		c0.4,0,0.8-0.3,0.8-0.7l0.2-1.2c0.1-1.1,0.8-2.1,1.8-2.7c1-0.6,2.2-0.7,3.2-0.2l1,0.5c0.4,0.2,0.9,0,1.1-0.3l1.7-2.8
		C24.1,16.9,24,16.4,23.7,16.1z M21.1,18.5l-0.3-0.2c-1.5-0.7-3.3-0.6-4.8,0.2c-1.5,0.9-2.5,2.4-2.6,4L13.4,23l-1.8,0l0-0.4
		c-0.1-1.6-1.1-3.1-2.6-4c-1.5-0.9-3.4-0.9-4.7-0.3l-0.4,0.2L3,16.9l0.2-0.2c1.4-1,2.2-2.5,2.2-4.2c0-1.8-0.9-3.4-2.3-4.4L2.9,8
		l0.9-1.5l0.3,0.2C5.7,7.3,7.5,7.2,9,6.4c1.5-0.9,2.5-2.4,2.6-4L11.6,2l1.8,0l0,0.4c0.1,1.6,1.1,3.1,2.6,4c1.5,0.9,3.2,0.9,4.7,0.3
		l0.4-0.2L22,8l-0.2,0.2c-1.4,1-2.2,2.5-2.2,4.2c0,1.8,0.9,3.4,2.3,4.4l0.2,0.2L21.1,18.5z"/>
	<path class="st0" d="M12.5,7.9c-2.6,0-4.6,2.1-4.6,4.6c0,2.6,2.1,4.6,4.6,4.6c2.6,0,4.6-2.1,4.6-4.6C17.1,9.9,15,7.9,12.5,7.9z
		 M12.5,15.5c-1.6,0-3-1.3-3-3c0-1.6,1.3-3,3-3s3,1.3,3,3C15.5,14.1,14.1,15.5,12.5,15.5z"/>
</g>
</svg>
