<?xml version="1.0" encoding="utf-8"?>
<!-- Generator: Adobe Illustrator 23.1.1, SVG Export Plug-In . SVG Version: 6.00 Build 0)  -->
<svg version="1.1" id="Capa_1" xmlns="http://www.w3.org/2000/svg" xmlns:xlink="http://www.w3.org/1999/xlink" x="0px" y="0px"
	 viewBox="0 0 25 25" style="enable-background:new 0 0 25 25;" xml:space="preserve">
<style type="text/css">
	.st0{fill:#0B4CC8;}
</style>
<path class="st0" d="M2.8,5.4v13.1c0,0.7,0.6,1.2,1.3,1.2H21c0.7,0,1.3-0.5,1.3-1.2V8.3c0-0.7-0.6-1.2-1.3-1.2H8.2
	C8,7.1,7.9,7,7.7,6.8L6.6,5.4H2.8z M21.4,21.6H3.6C2.2,21.6,1,20.4,1,19V4.1c0-0.4,0.3-0.6,0.6-0.6h5c0.2,0,0.4,0.1,0.5,0.3l1.2,1.6
	h13.1c1.4,0,2.6,1.2,2.6,2.6V19C24,20.4,22.8,21.6,21.4,21.6"/>
</svg>
