<?xml version="1.0" encoding="utf-8"?>
<!-- Generator: Adobe Illustrator 23.1.1, SVG Export Plug-In . SVG Version: 6.00 Build 0)  -->
<svg version="1.1" id="Capa_1" xmlns="http://www.w3.org/2000/svg" xmlns:xlink="http://www.w3.org/1999/xlink" x="0px" y="0px"
	 viewBox="0 0 40 40" style="enable-background:new 0 0 40 40;" xml:space="preserve">
<style type="text/css">
	.st0{clip-path:url(#SVGID_2_);fill:#142145;}
</style>
<g>
	<defs>
		<rect id="SVGID_1_" x="1.47" y="6.84" width="37.06" height="26.32"/>
	</defs>
	<clipPath id="SVGID_2_">
		<use xlink:href="#SVGID_1_"  style="overflow:visible;"/>
	</clipPath>
	<path class="st0" d="M4.2,29.46h11.67c0.88,0,1.74,0.11,2.57,0.34V11.87c0-0.03,0-0.19,0-0.22c-0.01-0.06-0.22-0.69-0.81-1.24
		c-0.61-0.58-1.34-0.84-1.76-0.84H4.2V29.46z M19.8,33.16c-0.22,0-0.45-0.05-0.65-0.17c-0.97-0.53-2.11-0.81-3.28-0.81H2.83
		c-0.75,0-1.36-0.61-1.36-1.36V8.2c0-0.75,0.61-1.36,1.36-1.36h13.03c1.2,0,2.59,0.61,3.63,1.59c1.01,0.95,1.67,2.25,1.67,3.31V31.8
		c0,0.48-0.25,0.93-0.67,1.17C20.28,33.1,20.04,33.16,19.8,33.16"/>
	<path class="st0" d="M24.14,9.57c-0.42,0-1.14,0.26-1.76,0.84c-0.59,0.56-0.8,1.18-0.81,1.33c0,0.01,0,0.11,0,0.21l0,17.84
		c0.82-0.22,1.69-0.34,2.57-0.34H35.8V9.57H24.14z M20.2,33.16c-0.24,0-0.48-0.06-0.7-0.19c-0.41-0.25-0.67-0.69-0.67-1.17V11.87
		c0-1.19,0.65-2.49,1.67-3.45c1.04-0.98,2.43-1.59,3.63-1.59h13.03c0.75,0,1.36,0.61,1.36,1.36v22.62c0,0.75-0.61,1.36-1.36,1.36
		H24.14c-1.18,0-2.31,0.28-3.28,0.81C20.65,33.11,20.43,33.16,20.2,33.16"/>
</g>
</svg>
