<?xml version="1.0" encoding="utf-8"?>
<!-- Generator: Adobe Illustrator 23.1.1, SVG Export Plug-In . SVG Version: 6.00 Build 0)  -->
<svg version="1.1" id="Capa_1" xmlns="http://www.w3.org/2000/svg" xmlns:xlink="http://www.w3.org/1999/xlink" x="0px" y="0px"
	 viewBox="0 0 40 40" style="enable-background:new 0 0 40 40;" xml:space="preserve">
<style type="text/css">
	.st0{clip-path:url(#SVGID_2_);fill:#142145;}
</style>
<g>
	<defs>
		<rect id="SVGID_1_" x="2.27" y="6" width="35.47" height="28"/>
	</defs>
	<clipPath id="SVGID_2_">
		<use xlink:href="#SVGID_1_"  style="overflow:visible;"/>
	</clipPath>
	<path class="st0" d="M5,9v20.14C5,30.16,5.87,31,6.94,31h26.12c1.07,0,1.94-0.84,1.94-1.86V13.46c0-1.03-0.87-1.86-1.94-1.86H13.41
		c-0.29,0-0.57-0.13-0.74-0.36L10.96,9H5z M33.76,34H6.24c-2.19,0-3.98-1.78-3.98-3.98V6.97C2.27,6.43,2.7,6,3.23,6h7.74
		c0.31,0,0.6,0.15,0.78,0.4l1.8,2.45h20.21c2.19,0,3.98,1.79,3.98,3.98v17.19C37.73,32.22,35.95,34,33.76,34"/>
</g>
</svg>
