<?xml version="1.0" encoding="utf-8"?>
<!-- Generator: Adobe Illustrator 20.0.0, SVG Export Plug-In . SVG Version: 6.00 Build 0)  -->
<svg version="1.1" id="Layer_1" xmlns="http://www.w3.org/2000/svg" xmlns:xlink="http://www.w3.org/1999/xlink" x="0px" y="0px"
	 viewBox="0 0 20 20" style="enable-background:new 0 0 20 20;" xml:space="preserve">
<style type="text/css">
	.st0{clip-path:url(#SVGID_2_);fill:#212442;}
</style>
<g>
	<defs>
		<rect id="SVGID_1_" x="2.7" y="4.2" width="14.7" height="11.6"/>
	</defs>
	<clipPath id="SVGID_2_">
		<use xlink:href="#SVGID_1_"  style="overflow:visible;"/>
	</clipPath>
	<path class="st0" d="M14.3,6.6c0.2,0.2,0.1,0.3-0.1,0.3h-7c-2.5,0-4.5,2-4.5,4.5c0,2.5,2,4.5,4.5,4.5h3.7c0.4,0,0.8-0.4,0.8-0.8
		c0-0.5-0.4-0.8-0.8-0.8H7.1c-1.6,0-2.9-1.3-2.9-2.9c0-1.6,1.3-2.9,2.9-2.9h7c0.2,0,0.3,0.1,0.1,0.3l-1,1c-0.3,0.3-0.3,0.8,0,1.2
		c0.3,0.3,0.8,0.3,1.2,0l2.6-2.6c0.3-0.3,0.3-0.8,0-1.2l-2.6-2.6c-0.3-0.3-0.8-0.3-1.2,0c-0.3,0.3-0.3,0.8,0,1.2L14.3,6.6z"/>
</g>
</svg>
