<?xml version="1.0" encoding="utf-8"?>
<!-- Generator: Adobe Illustrator 20.0.0, SVG Export Plug-In . SVG Version: 6.00 Build 0)  -->
<svg version="1.1" id="Layer_1" xmlns="http://www.w3.org/2000/svg" xmlns:xlink="http://www.w3.org/1999/xlink" x="0px" y="0px"
	 viewBox="0 0 100 32" style="enable-background:new 0 0 100 32;" xml:space="preserve">
<style type="text/css">
	.st0{clip-path:url(#SVGID_2_);fill:#1A3D82;}
	.st1{clip-path:url(#SVGID_2_);fill:#0059FF;}
	.st2{clip-path:url(#SVGID_2_);fill:#0345BA;}
	.st3{clip-path:url(#SVGID_2_);fill:#212442;}
</style>
<g>
	<defs>
		<rect id="SVGID_1_" x="0.9" y="2" width="98.1" height="28"/>
	</defs>
	<clipPath id="SVGID_2_">
		<use xlink:href="#SVGID_1_"  style="overflow:visible;"/>
	</clipPath>
	<path class="st0" d="M9.5,10.7c1.1,0,2.2,0.2,3.3,0.5c0.5-2.9,3-5.1,6-5.1c2.9,0,5.4,2.1,6,5c0.4-0.1,0.8-0.2,1.3-0.3
		c0.6-0.1,1.1-0.1,1.7-0.1c0.4,0,0.7,0,1.1,0.1c-0.7-5-5-8.8-10.1-8.8c-5.1,0-9.3,3.8-10.1,8.8C9,10.8,9.2,10.7,9.5,10.7"/>
	<path class="st1" d="M29.8,25.2c-0.5,0.3-1,0.4-1.6,0.5c-0.1,0-0.6,0.1-0.9,0.1l-8.8,0c0.8-0.9,1.5-2,2.2-3.4
		c0.1-0.3,0.3-0.6,0.4-0.9c2.1-5,5-5.6,5.5-5.7l0.1,0c0.3,0,0.6-0.1,0.8-0.1c0.9,0,1.7,0.2,2.5,0.7c1.5,0.9,2.5,2.5,2.5,4.4
		c0,1.4-0.6,2.7-1.5,3.6C30.6,24.7,30.2,25,29.8,25.2 M5,20.8c0-2.8,2.2-5,4.9-5c1.8,0,3.3,0.9,4.2,2.3c0.5,0.8,0.8,1.7,0.8,2.7
		c0,2.5-1.8,4.5-4.1,4.9c-0.3,0-0.6,0.1-0.8,0.1h0c-0.8,0-1.6-0.2-2.3-0.6C6.1,24.4,5,22.7,5,20.8 M33.5,13.9
		c-1.6-1.4-3.7-2.3-6-2.3c-0.5,0-1,0-1.5,0.1c-0.7,0.1-1.8,0.4-3.2,1.2c-0.4,0.2-0.9,0.5-1.4,1c-1.1,1-2.1,2.2-3,3.7
		c-0.5-1.4-1.3-2.6-2.3-3.5c-1.6-1.5-3.8-2.5-6.2-2.5c-5,0-9,4.1-9,9.2c0,5.1,4.1,9.2,9,9.2c0.2,0,0.4,0,0.7,0l10.4,0l6.4,0l0.1,0
		c0.4,0,1-0.1,1.3-0.1c4.4-0.6,7.8-4.5,7.8-9.1C36.6,18,35.4,15.6,33.5,13.9"/>
	<path class="st2" d="M16.1,14.1c-0.4,0.7-0.8,1.5-1.2,2.3c-0.3,0.6-0.5,1.2-0.8,1.6c0.5,0.8,0.8,1.7,0.8,2.7c0,2.5-1.8,4.5-4.1,4.9
		l0.3,0c1.3-0.3,4.3-1.4,6.2-5.9c0.3-0.8,0.7-1.5,1.1-2.2C18,16.3,17.2,15.1,16.1,14.1"/>
	<path class="st0" d="M49.1,9.6c0.6,0.6,0.9,1.5,0.9,2.7v4.8h-1.5v-4.6c0-0.8-0.2-1.4-0.6-1.8C47.6,10.2,47,10,46.3,10
		c-0.8,0-1.4,0.2-1.9,0.7c-0.5,0.5-0.7,1.2-0.7,2.1v4.3h-1.5V8.7h1.4V10c0.3-0.4,0.7-0.8,1.2-1c0.5-0.2,1.1-0.3,1.7-0.3
		C47.7,8.7,48.5,9,49.1,9.6"/>
	<path class="st0" d="M52.5,8.7H54v8.4h-1.5V8.7z M52.5,6.8c-0.2-0.2-0.3-0.4-0.3-0.7c0-0.3,0.1-0.5,0.3-0.7
		c0.2-0.2,0.4-0.3,0.7-0.3c0.3,0,0.5,0.1,0.7,0.3c0.2,0.2,0.3,0.4,0.3,0.7c0,0.3-0.1,0.5-0.3,0.7c-0.2,0.2-0.4,0.3-0.7,0.3
		C52.9,7.1,52.7,7,52.5,6.8"/>
	<path class="st0" d="M69.3,9.6c0.6,0.6,0.9,1.5,0.9,2.7v4.8h-1.5v-4.6c0-0.8-0.2-1.4-0.6-1.8c-0.4-0.4-0.9-0.6-1.6-0.6
		c-0.8,0-1.4,0.2-1.8,0.7s-0.7,1.2-0.7,2.1v4.3h-1.5v-4.6c0-0.8-0.2-1.4-0.6-1.8c-0.4-0.4-0.9-0.6-1.6-0.6c-0.8,0-1.4,0.2-1.8,0.7
		c-0.4,0.5-0.7,1.2-0.7,2.1v4.3h-1.5V8.7h1.4V10c0.3-0.4,0.7-0.8,1.2-1c0.5-0.2,1-0.3,1.7-0.3c0.6,0,1.2,0.1,1.7,0.4
		c0.5,0.3,0.9,0.6,1.2,1.2C64,9.7,64.4,9.3,65,9.1c0.6-0.3,1.2-0.4,1.9-0.4C67.9,8.7,68.7,9,69.3,9.6"/>
	<path class="st0" d="M78.3,15.5c0.4-0.2,0.8-0.6,1-1c0.2-0.4,0.4-1,0.4-1.5c0-0.6-0.1-1.1-0.4-1.5c-0.2-0.4-0.6-0.8-1-1
		c-0.4-0.2-0.9-0.4-1.4-0.4c-0.5,0-1,0.1-1.4,0.4c-0.4,0.2-0.8,0.6-1,1c-0.2,0.4-0.4,1-0.4,1.5c0,0.6,0.1,1.1,0.4,1.5
		c0.2,0.4,0.6,0.8,1,1c0.4,0.2,0.9,0.4,1.4,0.4C77.4,15.9,77.9,15.7,78.3,15.5 M79.2,9.2c0.6,0.4,1.1,0.9,1.5,1.5
		c0.4,0.6,0.5,1.4,0.5,2.2c0,0.8-0.2,1.6-0.5,2.2c-0.4,0.6-0.9,1.1-1.5,1.5c-0.6,0.4-1.3,0.5-2.1,0.5c-0.6,0-1.2-0.1-1.7-0.4
		c-0.5-0.2-0.9-0.6-1.3-1.1v1.3h-1.4V5.4h1.5V10c0.3-0.4,0.7-0.8,1.2-1c0.5-0.2,1-0.3,1.6-0.3C77.8,8.7,78.5,8.8,79.2,9.2"/>
	<path class="st0" d="M90.6,8.7v8.4h-1.4v-1.3c-0.3,0.4-0.7,0.8-1.2,1c-0.5,0.2-1,0.4-1.6,0.4c-1.1,0-2-0.3-2.6-0.9
		c-0.6-0.6-0.9-1.5-0.9-2.7V8.7h1.5v4.6c0,0.8,0.2,1.4,0.6,1.8c0.4,0.4,0.9,0.6,1.6,0.6c0.8,0,1.4-0.2,1.9-0.7
		c0.5-0.5,0.7-1.2,0.7-2.1V8.7H90.6z"/>
	<path class="st0" d="M93.6,16.9c-0.6-0.2-1.1-0.4-1.5-0.7l0.6-1.2c0.4,0.3,0.8,0.5,1.3,0.6c0.5,0.2,1,0.2,1.6,0.2
		c1.3,0,2-0.4,2-1.1c0-0.3-0.1-0.5-0.3-0.6c-0.2-0.1-0.4-0.3-0.7-0.3c-0.3-0.1-0.6-0.1-1.1-0.2c-0.7-0.1-1.2-0.2-1.6-0.4
		c-0.4-0.1-0.8-0.4-1.1-0.7c-0.3-0.3-0.4-0.8-0.4-1.4c0-0.8,0.3-1.4,0.9-1.8c0.6-0.5,1.5-0.7,2.5-0.7c0.5,0,1.1,0.1,1.6,0.2
		c0.5,0.1,1,0.3,1.4,0.6l-0.6,1.2c-0.7-0.4-1.5-0.7-2.4-0.7c-0.6,0-1.1,0.1-1.4,0.3c-0.3,0.2-0.5,0.5-0.5,0.8c0,0.3,0.1,0.5,0.3,0.6
		c0.2,0.2,0.4,0.3,0.7,0.3c0.3,0.1,0.7,0.2,1.2,0.3c0.7,0.1,1.2,0.2,1.6,0.4c0.4,0.1,0.8,0.4,1,0.7c0.3,0.3,0.4,0.8,0.4,1.3
		c0,0.8-0.3,1.4-1,1.8c-0.6,0.4-1.5,0.7-2.6,0.7C94.8,17.2,94.2,17.1,93.6,16.9"/>
	<path class="st3" d="M44.6,26.3c-0.5-0.3-1-0.7-1.3-1.3c-0.3-0.5-0.5-1.2-0.5-1.8c0-0.7,0.2-1.3,0.5-1.8c0.3-0.5,0.7-1,1.3-1.3
		c0.5-0.3,1.2-0.5,1.8-0.5c0.5,0,1,0.1,1.4,0.2c0.4,0.2,0.8,0.4,1.1,0.7l-0.3,0.3c-0.6-0.6-1.3-0.8-2.1-0.8c-0.6,0-1.1,0.1-1.6,0.4
		c-0.5,0.3-0.8,0.6-1.1,1.1c-0.3,0.5-0.4,1-0.4,1.6c0,0.6,0.1,1.1,0.4,1.6c0.3,0.5,0.6,0.8,1.1,1.1c0.5,0.3,1,0.4,1.6,0.4
		c0.9,0,1.6-0.3,2.1-0.8l0.3,0.3c-0.3,0.3-0.7,0.6-1.1,0.7c-0.4,0.2-0.9,0.3-1.4,0.3C45.8,26.8,45.2,26.6,44.6,26.3"/>
	<path class="st3" d="M53.1,26c0.3-0.2,0.6-0.4,0.7-0.8c0.2-0.3,0.3-0.7,0.3-1.1c0-0.4-0.1-0.8-0.3-1.1c-0.2-0.3-0.4-0.6-0.7-0.8
		c-0.3-0.2-0.7-0.3-1.1-0.3c-0.4,0-0.8,0.1-1.1,0.3c-0.3,0.2-0.6,0.5-0.7,0.8c-0.2,0.3-0.3,0.7-0.3,1.1c0,0.4,0.1,0.8,0.3,1.1
		c0.2,0.3,0.4,0.6,0.7,0.8c0.3,0.2,0.7,0.3,1.1,0.3C52.4,26.3,52.8,26.2,53.1,26 M50.7,26.4c-0.4-0.2-0.7-0.5-0.9-1
		c-0.2-0.4-0.3-0.9-0.3-1.4c0-0.5,0.1-1,0.3-1.4c0.2-0.4,0.5-0.7,0.9-1c0.4-0.2,0.8-0.3,1.3-0.3c0.5,0,0.9,0.1,1.3,0.3
		c0.4,0.2,0.7,0.5,0.9,1c0.2,0.4,0.3,0.9,0.3,1.4c0,0.5-0.1,1-0.3,1.4c-0.2,0.4-0.5,0.7-0.9,1c-0.4,0.2-0.8,0.3-1.3,0.3
		C51.6,26.8,51.1,26.7,50.7,26.4"/>
	<path class="st3" d="M60,22c0.4,0.4,0.6,0.9,0.6,1.7v3.1h-0.5v-3c0-0.6-0.1-1-0.4-1.4c-0.3-0.3-0.7-0.5-1.2-0.5
		c-0.6,0-1.1,0.2-1.4,0.6c-0.4,0.4-0.5,0.9-0.5,1.5v2.8H56v-5.3h0.5v1.1c0.2-0.4,0.4-0.7,0.8-0.9c0.4-0.2,0.8-0.3,1.3-0.3
		C59.2,21.4,59.7,21.6,60,22"/>
	<path class="st3" d="M62.6,26.6c-0.4-0.1-0.7-0.3-0.9-0.5l0.2-0.4c0.2,0.2,0.5,0.3,0.8,0.5c0.3,0.1,0.7,0.2,1,0.2
		c0.5,0,0.9-0.1,1.2-0.3c0.2-0.2,0.4-0.4,0.4-0.7c0-0.2-0.1-0.4-0.2-0.5c-0.1-0.1-0.3-0.2-0.5-0.3c-0.2-0.1-0.5-0.1-0.8-0.2
		c-0.4-0.1-0.7-0.2-1-0.2c-0.3-0.1-0.5-0.2-0.6-0.4c-0.2-0.2-0.3-0.5-0.3-0.8c0-0.4,0.2-0.8,0.5-1c0.3-0.3,0.8-0.4,1.5-0.4
		c0.3,0,0.7,0,1,0.1c0.3,0.1,0.6,0.2,0.8,0.4l-0.2,0.4c-0.2-0.2-0.5-0.3-0.7-0.4c-0.3-0.1-0.5-0.1-0.8-0.1c-0.5,0-0.8,0.1-1.1,0.3
		c-0.2,0.2-0.4,0.4-0.4,0.7c0,0.2,0.1,0.4,0.2,0.5c0.1,0.1,0.3,0.2,0.5,0.3c0.2,0.1,0.5,0.1,0.8,0.2c0.4,0.1,0.7,0.2,1,0.2
		c0.2,0.1,0.5,0.2,0.6,0.4c0.2,0.2,0.3,0.4,0.3,0.8c0,0.4-0.2,0.8-0.5,1c-0.4,0.3-0.9,0.4-1.5,0.4C63.4,26.8,63,26.7,62.6,26.6"/>
	<path class="st3" d="M69.6,26.4c-0.1,0.1-0.3,0.2-0.5,0.3c-0.2,0.1-0.4,0.1-0.6,0.1c-0.4,0-0.8-0.1-1-0.4c-0.2-0.3-0.4-0.6-0.4-1.1
		v-3.4h-1v-0.4h1v-1.1h0.5v1.1h1.6v0.4h-1.6v3.4c0,0.3,0.1,0.6,0.2,0.8c0.2,0.2,0.4,0.3,0.7,0.3c0.3,0,0.6-0.1,0.8-0.3L69.6,26.4z"
		/>
	<path class="st3" d="M72,21.7c0.3-0.2,0.7-0.3,1.2-0.3v0.5l-0.1,0c-0.6,0-1,0.2-1.3,0.5c-0.3,0.4-0.5,0.9-0.5,1.5v2.7h-0.5v-5.3
		h0.5v1.1C71.4,22.2,71.6,21.9,72,21.7"/>
	<path class="st3" d="M79,21.5v5.3h-0.5v-1.1c-0.2,0.4-0.4,0.7-0.8,0.9c-0.3,0.2-0.7,0.3-1.2,0.3c-0.7,0-1.2-0.2-1.6-0.6
		c-0.4-0.4-0.6-0.9-0.6-1.7v-3.1h0.5v3c0,0.6,0.1,1,0.4,1.3c0.3,0.3,0.7,0.5,1.3,0.5c0.6,0,1-0.2,1.4-0.6c0.3-0.4,0.5-0.9,0.5-1.5
		v-2.8H79z"/>
	<path class="st3" d="M81.6,26.4c-0.4-0.2-0.7-0.5-0.9-1c-0.2-0.4-0.3-0.9-0.3-1.4c0-0.5,0.1-1,0.3-1.4c0.2-0.4,0.5-0.7,0.9-0.9
		c0.4-0.2,0.8-0.3,1.3-0.3c0.4,0,0.8,0.1,1.1,0.2c0.3,0.2,0.6,0.4,0.8,0.7l-0.4,0.3c-0.2-0.3-0.4-0.5-0.7-0.6
		c-0.3-0.1-0.6-0.2-0.9-0.2c-0.4,0-0.8,0.1-1.1,0.3c-0.3,0.2-0.6,0.4-0.8,0.8c-0.2,0.3-0.3,0.7-0.3,1.2c0,0.4,0.1,0.8,0.3,1.2
		c0.2,0.3,0.4,0.6,0.8,0.8c0.3,0.2,0.7,0.3,1.1,0.3c0.3,0,0.6-0.1,0.9-0.2c0.3-0.1,0.5-0.3,0.7-0.6l0.4,0.3
		c-0.2,0.3-0.5,0.6-0.8,0.7c-0.3,0.2-0.7,0.2-1.1,0.2C82.5,26.8,82,26.7,81.6,26.4"/>
	<path class="st3" d="M88.8,26.4c-0.1,0.1-0.3,0.2-0.5,0.3c-0.2,0.1-0.4,0.1-0.6,0.1c-0.4,0-0.8-0.1-1-0.4c-0.2-0.3-0.4-0.6-0.4-1.1
		v-3.4h-1v-0.4h1v-1.1h0.5v1.1h1.6v0.4h-1.6v3.4c0,0.3,0.1,0.6,0.2,0.8c0.2,0.2,0.4,0.3,0.7,0.3c0.3,0,0.6-0.1,0.8-0.3L88.8,26.4z"
		/>
	<path class="st3" d="M92.9,26c0.3-0.2,0.6-0.4,0.7-0.8c0.2-0.3,0.3-0.7,0.3-1.1c0-0.4-0.1-0.8-0.3-1.1c-0.2-0.3-0.4-0.6-0.7-0.8
		c-0.3-0.2-0.7-0.3-1.1-0.3c-0.4,0-0.8,0.1-1.1,0.3c-0.3,0.2-0.6,0.5-0.7,0.8c-0.2,0.3-0.3,0.7-0.3,1.1c0,0.4,0.1,0.8,0.3,1.1
		c0.2,0.3,0.4,0.6,0.7,0.8c0.3,0.2,0.7,0.3,1.1,0.3C92.3,26.3,92.6,26.2,92.9,26 M90.5,26.4c-0.4-0.2-0.7-0.5-0.9-1
		c-0.2-0.4-0.3-0.9-0.3-1.4c0-0.5,0.1-1,0.3-1.4c0.2-0.4,0.5-0.7,0.9-1c0.4-0.2,0.8-0.3,1.3-0.3s0.9,0.1,1.3,0.3
		c0.4,0.2,0.7,0.5,0.9,1c0.2,0.4,0.3,0.9,0.3,1.4c0,0.5-0.1,1-0.3,1.4c-0.2,0.4-0.5,0.7-0.9,1c-0.4,0.2-0.8,0.3-1.3,0.3
		S90.9,26.7,90.5,26.4"/>
	<path class="st3" d="M97,21.7c0.3-0.2,0.7-0.3,1.2-0.3v0.5l-0.1,0c-0.6,0-1,0.2-1.3,0.5c-0.3,0.4-0.5,0.9-0.5,1.5v2.7h-0.5v-5.3
		h0.5v1.1C96.4,22.2,96.7,21.9,97,21.7"/>
</g>
</svg>
