<?xml version="1.0" encoding="utf-8"?>
<!-- Generator: Adobe Illustrator 20.0.0, SVG Export Plug-In . SVG Version: 6.00 Build 0)  -->
<svg version="1.1" id="Layer_1" xmlns="http://www.w3.org/2000/svg" xmlns:xlink="http://www.w3.org/1999/xlink" x="0px" y="0px"
	 viewBox="0 0 20 20" style="enable-background:new 0 0 20 20;" xml:space="preserve">
<style type="text/css">
	.st0{fill:#4E5068;}
	.st1{clip-path:url(#SVGID_2_);fill:#4E5068;}
</style>
<rect x="7.3" y="8.4" class="st0" width="1.2" height="6.8"/>
<rect x="10.7" y="8.4" class="st0" width="1.2" height="6.8"/>
<g>
	<defs>
		<rect id="SVGID_1_" x="2.4" y="1.4" width="15.2" height="17.1"/>
	</defs>
	<clipPath id="SVGID_2_">
		<use xlink:href="#SVGID_1_"  style="overflow:visible;"/>
	</clipPath>
	<path class="st1" d="M14.7,5.3L14.1,16c0,0.8-0.7,1.4-1.4,1.4H7.4c-0.8,0-1.4-0.6-1.4-1.4L5.3,5.3H14.7z M8.2,3.1
		c0-0.2,0.2-0.4,0.4-0.4h2.8c0.2,0,0.4,0.2,0.4,0.4v1H8.2L8.2,3.1z M11.4,1.4H8.6C7.7,1.4,7,2.2,7,3.1v1H3c-0.3,0-0.6,0.3-0.6,0.6
		C2.4,5,2.7,5.3,3,5.3h1.1L4.7,16c0.1,1.4,1.2,2.5,2.7,2.5h5.3c1.4,0,2.6-1.1,2.7-2.5l0.6-10.7H17c0.3,0,0.6-0.3,0.6-0.6
		c0-0.3-0.3-0.6-0.6-0.6h-4v-1C13,2.2,12.3,1.4,11.4,1.4"/>
</g>
</svg>
