<?xml version="1.0" encoding="utf-8"?>
<!-- Generator: Adobe Illustrator 20.0.0, SVG Export Plug-In . SVG Version: 6.00 Build 0)  -->
<svg version="1.1" id="Layer_1" xmlns="http://www.w3.org/2000/svg" xmlns:xlink="http://www.w3.org/1999/xlink" x="0px" y="0px"
	 viewBox="0 0 30 25" style="enable-background:new 0 0 30 25;" xml:space="preserve">
<style type="text/css">
	.st0{clip-path:url(#SVGID_2_);fill:#202342;}
</style>
<g>
	<defs>
		<rect id="SVGID_1_" x="2.5" y="1.8" width="25" height="21.4"/>
	</defs>
	<clipPath id="SVGID_2_">
		<use xlink:href="#SVGID_1_"  style="overflow:visible;"/>
	</clipPath>
	<path class="st0" d="M4.3,16.1h21.4v1.8H4.3V16.1z M25.7,14.3H4.3V3.6h21.4V14.3z M26.6,1.8H3.4c-0.5,0-0.9,0.4-0.9,0.9v16.1
		c0,0.5,0.4,0.9,0.9,0.9h10.7v1.8H9.6c-0.5,0-0.9,0.4-0.9,0.9s0.4,0.9,0.9,0.9h10.7c0.5,0,0.9-0.4,0.9-0.9s-0.4-0.9-0.9-0.9h-4.5
		v-1.8h10.7c0.5,0,0.9-0.4,0.9-0.9V2.7C27.5,2.2,27.1,1.8,26.6,1.8"/>
</g>
</svg>
