<?xml version="1.0" encoding="utf-8"?>
<!-- Generator: Adobe Illustrator 23.1.1, SVG Export Plug-In . SVG Version: 6.00 Build 0)  -->
<svg version="1.1" id="Capa_1" xmlns="http://www.w3.org/2000/svg" xmlns:xlink="http://www.w3.org/1999/xlink" x="0px" y="0px"
	 viewBox="0 0 120 120" style="enable-background:new 0 0 120 120;" xml:space="preserve">
<style type="text/css">
	.st0{fill:#171A40;}
</style>
<g>
	<path class="st0" d="M90.9,19c-6.1,0-11,4.9-11,11s4.9,11,11,11c6.1,0,11-4.9,11-11S97.1,19,90.9,19z M90.9,35c-2.8,0-5-2.2-5-5
		s2.2-5,5-5s5,2.2,5,5S93.8,35,90.9,35z"/>
	<path class="st0" d="M90.9,49c-2,0-3.9,0.6-5.6,1.5L69.8,34.9c0.8-1.5,1.2-3.2,1.2-4.9c0-6.1-4.9-11-11-11s-11,4.9-11,11
		s4.9,11,11,11c2.1,0,4.1-0.6,5.8-1.6L81.2,55c-0.8,1.5-1.3,3.2-1.3,5.1c0,6.1,4.9,11,11,11c6.1,0,11-4.9,11-11S97.1,49,90.9,49z
		 M55,30c0-2.8,2.2-5,5-5s5,2.2,5,5s-2.2,5-5,5S55,32.8,55,30z M90.9,65.1c-2.8,0-5-2.2-5-5s2.2-5,5-5s5,2.2,5,5
		S93.8,65.1,90.9,65.1z"/>
	<path class="st0" d="M60,71.1c6.1,0,11-4.9,11-11s-4.9-11-11-11S49,54,49,60S53.9,71.1,60,71.1z M60,55c2.8,0,5,2.2,5,5s-2.2,5-5,5
		s-5-2.2-5-5S57.2,55,60,55z"/>
	<path class="st0" d="M29,101.1c6.1,0,11-4.9,11-11c0-6.1-4.9-11-11-11s-11,4.9-11,11C18,96.1,22.9,101.1,29,101.1z M29,85.1
		c2.8,0,5,2.2,5,5s-2.2,5-5,5s-5-2.2-5-5S26.2,85.1,29,85.1z"/>
	<path class="st0" d="M90.9,79.1c-5,0-9.3,3.4-10.6,8h-9.9c-1.3-4.6-5.5-8-10.6-8c-3,0-5.8,1.2-7.8,3.2l-15-15
		C39,65.3,40,62.8,40,60c0-5-3.4-9.3-8-10.6v-8.9c4.6-1.3,8-5.5,8-10.6c0-6.1-4.9-11-11-11s-11,5-11,11.1c0,5,3.4,9.3,8,10.6v8.9
		c-4.6,1.2-8,5.5-8,10.5c0,6.1,4.9,11,11,11c1.1,0,2.1-0.2,3.1-0.4l17.2,17.2C49,88.6,49,89.2,49,90.1c0,6.1,4.9,11,11,11
		c5,0,9.3-3.4,10.6-8h9.9c1.3,4.6,5.5,8,10.6,8c6.1,0,11-4.9,11-11C102.1,83.9,97.1,79.1,90.9,79.1z M24,30c0-2.8,2.2-5,5-5
		s5,2.2,5,5s-2.2,5-5,5S24,32.8,24,30z M24,60c0-2.8,2.2-5,5-5s5,2.2,5,5s-2.2,5-5,5S24,62.8,24,60z M60,95.1c-2.8,0-5-2.2-5-5
		s2.2-5,5-5s5,2.2,5,5S62.8,95.1,60,95.1z M90.9,95.1c-2.8,0-5-2.2-5-5s2.2-5,5-5s5,2.2,5,5S93.8,95.1,90.9,95.1z"/>
</g>
</svg>
