<?xml version="1.0" encoding="utf-8"?>
<!-- Generator: Adobe Illustrator 23.1.1, SVG Export Plug-In . SVG Version: 6.00 Build 0)  -->
<svg version="1.1" id="Capa_1" xmlns="http://www.w3.org/2000/svg" xmlns:xlink="http://www.w3.org/1999/xlink" x="0px" y="0px"
	 viewBox="0 0 150 150" style="enable-background:new 0 0 150 150;" xml:space="preserve">
<style type="text/css">
	.st0{clip-path:url(#SVGID_2_);fill:#1A3D82;}
	.st1{clip-path:url(#SVGID_2_);fill:#0059FF;}
</style>
<g>
	<defs>
		<rect id="SVGID_1_" x="36.2" y="45" width="77.7" height="60"/>
	</defs>
	<clipPath id="SVGID_2_">
		<use xlink:href="#SVGID_1_"  style="overflow:visible;"/>
	</clipPath>
	<path class="st0" d="M54.8,63.7c2.5,0,4.9,0.4,7.1,1.2c1.1-6.2,6.5-11,13.1-11c6.4,0,11.8,4.6,13,10.7c0.9-0.3,1.9-0.5,2.8-0.6
		c1.2-0.2,2.5-0.3,3.7-0.3c0.8,0,1.6,0,2.4,0.1C95.3,53.2,86.1,45,75,45c-11.1,0-20.3,8.2-21.9,18.8C53.6,63.8,54.2,63.7,54.8,63.7"
		/>
	<path class="st1" d="M99.1,94.8c-1.1,0.5-2.2,0.9-3.4,1.1c-0.2,0-1.2,0.1-2,0.2l-19.2,0c1.7-2,3.4-4.4,4.8-7.3
		c0.3-0.6,0.6-1.3,0.9-2c4.6-10.7,10.8-12,12-12.1l0.2,0c0.6-0.1,1.2-0.2,1.8-0.2c1.9,0,3.8,0.5,5.3,1.4c3.2,1.9,5.4,5.3,5.4,9.3
		c0,3-1.2,5.7-3.2,7.7C100.9,93.6,100,94.3,99.1,94.8 M45.1,85.3c0-5.9,4.8-10.8,10.8-10.8c3.8,0,7.2,2,9.1,5
		c1.1,1.7,1.7,3.6,1.7,5.8c0,5.3-3.9,9.7-8.9,10.6c-0.6,0.1-1.2,0.2-1.8,0.2c0,0,0,0,0,0c-1.8,0-3.5-0.5-5-1.3
		C47.4,93,45.1,89.5,45.1,85.3 M107.1,70.5c-3.5-3-8-4.9-13-4.9c-1.1,0-2.2,0.1-3.2,0.3c-1.4,0.2-4,0.8-7,2.6
		c-0.9,0.5-2,1.2-3.1,2.2c-2.5,2.1-4.7,4.7-6.5,8c-1.1-2.9-2.8-5.5-5-7.6c-3.5-3.3-8.3-5.3-13.5-5.3c-10.9,0-19.7,8.8-19.7,19.7
		c0,10.8,8.8,19.7,19.7,19.7c0.5,0,1,0,1.5-0.1l22.8,0l13.9,0l0.2,0c0.8-0.1,2.2-0.2,2.8-0.2c9.7-1.3,17-9.7,17-19.5
		C113.8,79.4,111.2,74.1,107.1,70.5"/>
	<path class="st0" d="M64.9,79.6c1.1,1.7,1.7,3.6,1.7,5.8c0,5.3-3.9,9.7-8.9,10.6l0.7,0c2.9-0.6,9.4-2.9,13.6-12.6
		c0.7-1.7,1.5-3.3,2.4-4.7c-1.1-2.9-2.8-5.5-5-7.6c-0.9,1.5-1.8,3.2-2.6,5C66.2,77.3,65.6,78.5,64.9,79.6"/>
</g>
</svg>
