<?xml version="1.0" encoding="utf-8"?>
<!-- Generator: Adobe Illustrator 23.1.1, SVG Export Plug-In . SVG Version: 6.00 Build 0)  -->
<svg version="1.1" id="Capa_1" xmlns="http://www.w3.org/2000/svg" xmlns:xlink="http://www.w3.org/1999/xlink" x="0px" y="0px"
	 viewBox="0 0 18 18" style="enable-background:new 0 0 18 18;" xml:space="preserve">
<style type="text/css">
	.st0{fill:#FFFFFF;}
</style>
<path class="st0" d="M11,9l5.6-5.6c0.5-0.5,0.5-1.3,0-1.9s-1.3-0.5-1.9,0L9.1,7.1L3.5,1.4C3,1,2.1,1,1.5,1.4S1,2.7,1.5,3.2L7.3,9
	l-5.6,5.6c-0.5,0.5-0.5,1.3,0,1.9C1.8,16.8,2.2,17,2.5,17s0.7-0.1,0.9-0.4L9,11l5.6,5.6c0.3,0.3,0.7,0.4,0.9,0.4
	c0.3,0,0.7-0.1,0.9-0.4c0.5-0.5,0.5-1.3,0-1.9L11,9z"/>
</svg>
