<?xml version="1.0" encoding="utf-8"?>
<!-- Generator: Adobe Illustrator 23.1.1, SVG Export Plug-In . SVG Version: 6.00 Build 0)  -->
<svg version="1.1" id="Layer_1" xmlns="http://www.w3.org/2000/svg" xmlns:xlink="http://www.w3.org/1999/xlink" x="0px" y="0px"
	 viewBox="0 0 20 20" style="enable-background:new 0 0 20 20;" xml:space="preserve">
<style type="text/css">
	.st0{fill:#FFFFFF;}
</style>
<path class="st0" d="M17.3,5.3l-2.6-2.6c-0.3-0.3-0.7-0.3-1,0l-1.5,1.5c0,0,0,0,0,0c0,0,0,0,0,0l-8.6,8.6c0,0,0,0,0,0
	c0,0-0.1,0.1-0.1,0.1c0,0,0,0.1-0.1,0.1c0,0,0,0,0,0l-0.9,3.5c-0.1,0.2,0,0.5,0.2,0.6c0.1,0.1,0.3,0.2,0.5,0.2c0.1,0,0.1,0,0.2,0
	l3.5-0.9c0,0,0,0,0,0c0,0,0.1,0,0.1-0.1c0,0,0.1,0,0.1-0.1c0,0,0,0,0,0L17.3,6.3C17.5,6,17.5,5.6,17.3,5.3z M14.2,4.2l1.7,1.7
	l-0.6,0.6l-1.7-1.7L14.2,4.2z M12.7,5.7l1.7,1.7l-7.6,7.6l-1.7-1.7L12.7,5.7z M4.5,14.6l0.9,0.9l-1.3,0.3L4.5,14.6z"/>
</svg>
