<?xml version="1.0" encoding="utf-8"?>
<!-- Generator: Adobe Illustrator 23.1.1, SVG Export Plug-In . SVG Version: 6.00 Build 0)  -->
<svg version="1.1" id="Capa_1" xmlns="http://www.w3.org/2000/svg" xmlns:xlink="http://www.w3.org/1999/xlink" x="0px" y="0px"
	 viewBox="0 0 20 20" style="enable-background:new 0 0 20 20;" xml:space="preserve">
<style type="text/css">
	.st0{clip-path:url(#SVGID_2_);fill:#FFFFFF;}
</style>
<g>
	<defs>
		<rect id="SVGID_1_" x="0.5" y="1.1" width="19" height="17.7"/>
	</defs>
	<clipPath id="SVGID_2_">
		<use xlink:href="#SVGID_1_"  style="overflow:visible;"/>
	</clipPath>
	<path class="st0" d="M17.9,16.7c-0.3,0.4-0.9,0.7-1.7,0.7H3.8c-0.8,0-1.4-0.3-1.7-0.7c-0.3-0.4-0.2-1.1,0.2-1.8L8.6,3.7
		C9,3,9.5,2.6,10,2.6c0.5,0,1,0.4,1.4,1.1l6.3,11.2C18.1,15.6,18.2,16.3,17.9,16.7 M19,14.2L12.7,3C12,1.8,11,1.1,10,1.1
		C9,1.1,8,1.8,7.3,3L1,14.2c-0.7,1.2-0.7,2.4-0.2,3.3c0.5,0.9,1.6,1.4,3,1.4h12.4c1.4,0,2.4-0.5,3-1.4C19.7,16.5,19.6,15.4,19,14.2"
		/>
	<path class="st0" d="M10,13.6c-0.5,0-1,0.4-1,1c0,0.5,0.4,1,1,1c0.5,0,1-0.4,1-1C11,14.1,10.5,13.6,10,13.6"/>
	<path class="st0" d="M10,6.6c-0.5,0-1,0.4-1,1c0,0,0,0.1,0,0.1h0c0,0,0,0,0.1,0.9l0.3,3.8h0c0,0.3,0.3,0.5,0.6,0.5
		c0.3,0,0.5-0.2,0.6-0.5h0l0.2-2.9c0,0,0.1-1.8,0.1-1.8c0,0,0,0,0,0c0,0,0,0,0,0c0,0,0,0,0-0.1C11,7.1,10.5,6.6,10,6.6"/>
</g>
</svg>
