<?xml version="1.0" encoding="utf-8"?>
<!-- Generator: Adobe Illustrator 23.1.1, SVG Export Plug-In . SVG Version: 6.00 Build 0)  -->
<svg version="1.1" id="Capa_1" xmlns="http://www.w3.org/2000/svg" xmlns:xlink="http://www.w3.org/1999/xlink" x="0px" y="0px"
	 viewBox="0 0 30 30" style="enable-background:new 0 0 30 30;" xml:space="preserve">
<style type="text/css">
	.st0{fill:#FFFFFF;}
</style>
<g>
	<path class="st0" d="M23.9,5h-0.6V3.8c0-0.4-0.3-0.8-0.8-0.8s-0.8,0.3-0.8,0.8V5H8.4V3.8c0-0.4-0.3-0.8-0.8-0.8S6.9,3.4,6.9,3.8V5
		H6.1C3.8,5,1.9,6.9,1.9,9.2v13.4c0,2.3,1.9,4.3,4.3,4.3h17.7c2.3,0,4.3-1.9,4.3-4.3V9.2C28.1,6.9,26.2,5,23.9,5z M6.1,6.5h0.8v1.1
		c0,0.4,0.3,0.8,0.8,0.8S8.4,8,8.4,7.6V6.5h13.4v1.1c0,0.4,0.3,0.8,0.8,0.8s0.8-0.3,0.8-0.8V6.5h0.6c1.5,0,2.8,1.2,2.8,2.8v1H3.4v-1
		C3.4,7.7,4.6,6.5,6.1,6.5z M23.9,25.4H6.1c-1.5,0-2.8-1.2-2.8-2.8v-11h23.3v11C26.6,24.2,25.4,25.4,23.9,25.4z"/>
	<path class="st0" d="M9.9,14.6H8.6c-0.4,0-0.8,0.3-0.8,0.8s0.3,0.8,0.8,0.8h1.3c0.4,0,0.8-0.3,0.8-0.8S10.3,14.6,9.9,14.6z"/>
	<path class="st0" d="M15.7,14.6h-1.3c-0.4,0-0.8,0.3-0.8,0.8s0.3,0.8,0.8,0.8h1.3c0.4,0,0.7-0.3,0.7-0.8S16.1,14.6,15.7,14.6z"/>
	<path class="st0" d="M21.4,14.6h-1.3c-0.4,0-0.8,0.3-0.8,0.8s0.3,0.8,0.8,0.8h1.3c0.4,0,0.8-0.3,0.8-0.8S21.8,14.6,21.4,14.6z"/>
	<path class="st0" d="M9.9,19.1H8.6c-0.4,0-0.8,0.3-0.8,0.8s0.3,0.8,0.8,0.8h1.3c0.4,0,0.8-0.3,0.8-0.8S10.3,19.1,9.9,19.1z"/>
	<path class="st0" d="M15.7,19.1h-1.3c-0.4,0-0.8,0.3-0.8,0.8s0.3,0.8,0.8,0.8h1.3c0.4,0,0.7-0.3,0.7-0.8S16.1,19.1,15.7,19.1z"/>
	<path class="st0" d="M21.4,19.1h-1.3c-0.4,0-0.8,0.3-0.8,0.8s0.3,0.8,0.8,0.8h1.3c0.4,0,0.8-0.3,0.8-0.8S21.8,19.1,21.4,19.1z"/>
</g>
</svg>
