<?xml version="1.0" encoding="utf-8"?>
<!-- Generator: Adobe Illustrator 23.1.1, SVG Export Plug-In . SVG Version: 6.00 Build 0)  -->
<svg version="1.1" id="Layer_1" xmlns="http://www.w3.org/2000/svg" xmlns:xlink="http://www.w3.org/1999/xlink" x="0px" y="0px"
	 viewBox="0 0 20 20" style="enable-background:new 0 0 20 20;" xml:space="preserve">
<style type="text/css">
	.st0{fill:#FFFFFF;}
</style>
<g>
	<path class="st0" d="M16,3.9h-3.1c0,0,0-0.1,0-0.1V2.5c0-0.4-0.3-0.7-0.7-0.7H7.9c-0.4,0-0.7,0.3-0.7,0.7v1.3c0,0,0,0.1,0,0.1H4
		c-0.4,0-0.7,0.3-0.7,0.7S3.6,5.4,4,5.4h0.3l0.5,9.5c0.1,1.6,1.4,3.4,3,3.4h4.6c1.7,0,3-1.8,3-3.4L16,5.4H16c0.4,0,0.7-0.3,0.7-0.7
		S16.4,3.9,16,3.9z M8.6,3.8V3.2h2.8v0.5c0,0,0,0.1,0,0.1H8.6C8.6,3.8,8.6,3.8,8.6,3.8z M14,14.8c-0.1,1-0.8,2-1.6,2H7.9
		c-0.7,0-1.5-1-1.6-2L5.8,5.4h8.7L14,14.8z"/>
	<path class="st0" d="M8.7,14.8c0.4,0,0.7-0.3,0.7-0.7V8.9c0-0.4-0.3-0.7-0.7-0.7C8.3,8.2,8,8.5,8,8.9v5.2C8,14.5,8.3,14.8,8.7,14.8
		z"/>
	<path class="st0" d="M11.3,14.8c0.4,0,0.7-0.3,0.7-0.7V8.9c0-0.4-0.3-0.7-0.7-0.7c-0.4,0-0.7,0.3-0.7,0.7v5.2
		C10.5,14.5,10.9,14.8,11.3,14.8z"/>
</g>
</svg>
