<?xml version="1.0" encoding="utf-8"?>
<!-- Generator: Adobe Illustrator 23.1.1, SVG Export Plug-In . SVG Version: 6.00 Build 0)  -->
<svg version="1.1" id="Capa_1" xmlns="http://www.w3.org/2000/svg" xmlns:xlink="http://www.w3.org/1999/xlink" x="0px" y="0px"
	 viewBox="0 0 20 20" style="enable-background:new 0 0 20 20;" xml:space="preserve">
<style type="text/css">
	.st0{fill:#18C7FB;}
</style>
<g>
	<path class="st0" d="M10.1,5.8C9.2,5.8,8.3,6,7.5,6.5l0.6,1.2C8.8,7.4,9.4,7.2,10,7.2c0.3,0,0.5,0.1,0.7,0.2
		C10.9,7.5,11,7.7,11,7.9c0,0.2,0,0.4-0.2,0.6S10.4,8.9,10,9.2S9.4,9.7,9.2,10S9,10.6,9,10.9v0.4h1.4V11c0-0.2,0-0.4,0.1-0.5
		s0.3-0.3,0.7-0.6c0.6-0.4,0.9-0.7,1.1-1c0.2-0.3,0.3-0.7,0.3-1.1c0-0.6-0.3-1.1-0.7-1.5C11.5,6,10.9,5.8,10.1,5.8z"/>
	<path class="st0" d="M10.4,12.5c-0.2-0.1-0.4-0.2-0.7-0.2s-0.6,0-0.7,0.2s-0.2,0.4-0.2,0.7s0.1,0.6,0.2,0.7
		c0.1,0.1,0.4,0.2,0.7,0.2s0.5,0,0.7-0.2c0.1-0.2,0.2-0.4,0.2-0.7S10.6,12.6,10.4,12.5z"/>
	<path class="st0" d="M10,1.5c-4.7,0-8.5,3.8-8.5,8.5c0,4.7,3.8,8.5,8.5,8.5c4.7,0,8.5-3.8,8.5-8.5C18.5,5.3,14.7,1.5,10,1.5z
		 M10,17c-3.8,0-7-3.1-7-7c0-3.8,3.1-7,7-7c3.8,0,7,3.1,7,7C17,13.8,13.8,17,10,17z"/>
</g>
</svg>
