<?xml version="1.0" encoding="utf-8"?>
<!-- Generator: Adobe Illustrator 23.1.1, SVG Export Plug-In . SVG Version: 6.00 Build 0)  -->
<svg version="1.1" id="Capa_1" xmlns="http://www.w3.org/2000/svg" xmlns:xlink="http://www.w3.org/1999/xlink" x="0px" y="0px"
	 viewBox="0 0 30 30" style="enable-background:new 0 0 30 30;" xml:space="preserve">
<style type="text/css">
	.st0{fill:#FFFFFF;}
</style>
<g>
	<g>
		<path class="st0" d="M22.8,5.1h-0.6V3.9c0-0.4-0.3-0.8-0.8-0.8s-0.8,0.3-0.8,0.8v1.2H9.3V3.9c0-0.4-0.3-0.8-0.8-0.8
			S7.8,3.5,7.8,3.9v1.2H7C4.7,5.1,2.8,7,2.8,9.3v13.4c0,2.3,1.9,4.3,4.3,4.3h15.7c2.3,0,4.3-1.9,4.3-4.3V9.3C27,7,25.1,5.1,22.8,5.1
			z M7,6.6h0.8v1.1c0,0.4,0.3,0.8,0.8,0.8c0.5,0,0.7-0.4,0.7-0.8V6.6h11.4v1.1c0,0.4,0.3,0.8,0.8,0.8s0.8-0.3,0.8-0.8V6.6h0.6
			c1.5,0,2.8,1.2,2.8,2.8v1H4.3v-1C4.3,7.8,5.5,6.6,7,6.6z M22.8,25.5H7c-1.5,0-2.8-1.2-2.8-2.8v-11h21.3v11
			C25.5,24.3,24.3,25.5,22.8,25.5z"/>
	</g>
	<path class="st0" d="M9.8,14.7H8.6c-0.4,0-0.8,0.3-0.8,0.8s0.3,0.8,0.8,0.8h1.3c0.4,0,0.8-0.3,0.8-0.8S10.2,14.7,9.8,14.7z"/>
	<path class="st0" d="M15.6,14.7h-1.3c-0.4,0-0.8,0.3-0.8,0.8s0.3,0.8,0.8,0.8h1.3c0.4,0,0.7-0.3,0.7-0.8S16,14.7,15.6,14.7z"/>
	<path class="st0" d="M21.3,14.7H20c-0.4,0-0.8,0.3-0.8,0.8s0.3,0.8,0.8,0.8h1.3c0.4,0,0.8-0.3,0.8-0.8S21.7,14.7,21.3,14.7z"/>
	<path class="st0" d="M9.8,19.2H8.6c-0.4,0-0.8,0.3-0.8,0.8s0.3,0.8,0.8,0.8h1.3c0.4,0,0.8-0.3,0.8-0.8S10.2,19.2,9.8,19.2z"/>
	<path class="st0" d="M15.6,19.2h-1.3c-0.4,0-0.8,0.3-0.8,0.8s0.3,0.8,0.8,0.8h1.3c0.4,0,0.7-0.3,0.7-0.8S16,19.2,15.6,19.2z"/>
	<path class="st0" d="M21.3,19.2H20c-0.4,0-0.8,0.3-0.8,0.8s0.3,0.8,0.8,0.8h1.3c0.4,0,0.8-0.3,0.8-0.8S21.7,19.2,21.3,19.2z"/>
</g>
</svg>
