<?xml version="1.0" encoding="utf-8"?>
<!-- Generator: Adobe Illustrator 23.1.1, SVG Export Plug-In . SVG Version: 6.00 Build 0)  -->
<svg version="1.1" id="Capa_1" xmlns="http://www.w3.org/2000/svg" xmlns:xlink="http://www.w3.org/1999/xlink" x="0px" y="0px"
	 viewBox="0 0 70 70" style="enable-background:new 0 0 70 70;" xml:space="preserve">
<style type="text/css">
	.st0{fill:#0B4CC8;}
</style>
<g>
	<path class="st0" d="M23.6,12.7L10.7,27.4c-0.2,0.2-0.4,0.5-0.6,0.7c-2.1,2.6-3.4,5.8-3.8,9.1c-0.8,6.4,1.5,12.7,6.4,16.9
		c4.3,3.8,9.9,5.4,15.6,4.6c3-0.2,9.1-0.5,14.4-0.8c2.7-0.2,5.3-0.3,7.2-0.4c3.6-0.2,6-0.4,6.4-3.4c0,0,0,0,0,0c0-0.2,0-0.5,0-0.7
		l0-0.4c0-0.2,0-0.3-0.1-0.5c-0.8-3.4-4.2-6-7.6-5.8c-0.4,0-2.7,0.1-5.7,0.2l2.5-2.8l11.8-13.4c0.8-0.9,1.3-2,1.5-3.2
		c0.3-1.9-0.4-3.8-1.9-5c-0.8-0.7-1.7-1.1-2.6-1.3c0.5-0.7,0.8-1.6,0.9-2.5c0.2-1.9-0.5-3.8-1.9-5c-2.2-1.9-5.4-1.9-7.6,0
		c-0.3-0.9-0.9-1.8-1.6-2.4c-1.1-1-2.6-1.5-4.1-1.4c-1.5,0.1-2.9,0.8-3.9,1.9l-2.3,2.7c-0.3-0.9-0.8-1.8-1.6-2.4
		C29.6,9.9,25.8,10.2,23.6,12.7z M29.5,14.6c0.5,0.5,0.7,1.1,0.6,1.8c-0.1,0.5-0.3,1-0.6,1.4l-4,4.5c-0.3,0.3-0.5,0.7-0.5,1.1
		c-0.1,0.7,0.2,1.4,0.7,1.9c0.9,0.8,2.2,0.7,3-0.2c0.1-0.1,0.2-0.3,0.3-0.4l9.5-10.8c0.8-0.9,2.1-1,3-0.2c0.6,0.5,0.8,1.2,0.7,1.9
		c-0.1,0.4-0.2,0.8-0.5,1.1l-8.5,9.7c0,0,0,0,0,0c-0.2,0.3-0.4,0.6-0.4,1c-0.1,0.7,0.2,1.4,0.7,1.9c0.9,0.8,2.2,0.7,3-0.2
		c0,0,0,0,0,0l0,0l11.2-12.7c0.8-0.9,2.1-1,3-0.2c0.6,0.5,0.8,1.2,0.7,1.9c-0.1,0.4-0.2,0.8-0.5,1.1L39.1,32.8c0,0,0,0,0,0
		c0,0-0.1,0.1-0.1,0.1c-0.3,0.3-0.5,0.7-0.5,1.1c-0.1,0.7,0.2,1.4,0.7,1.9c0.9,0.8,2.2,0.7,3-0.2l9-10.2c0.8-1,2.2-1.1,3.1-0.3
		c0.5,0.5,0.8,1.2,0.7,1.9c-0.1,0.5-0.3,0.9-0.6,1.3L42.5,41.7L37.9,47c-0.3,0.3-0.5,0.7-0.5,1.1c-0.1,0.7,0.2,1.4,0.7,1.9
		c0.5,0.4,1,0.6,1.6,0.5c0.1,0,0.2,0,0.3,0c4.6-0.2,8.7-0.3,8.7-0.3c1.7-0.1,3.6,1.3,4,3c0,0,0,0,0,0.4c0,0,0,0,0,0
		c0,0.2-18.8,1.2-24.7,1.5c-4.4,0.7-9.2-0.5-12.8-3.7c-4.1-3.6-5.8-8.8-5.2-13.8c0.4-2.7,1.4-5.3,3.2-7.5c0.1-0.1,0.2-0.3,0.3-0.4
		l12.9-14.7C27.2,14.1,28.7,13.9,29.5,14.6z"/>
	<path class="st0" d="M21,8.2c0.5,0.9,0.1,2-0.7,2.4c-0.1,0-5.6,3.1-8,8.6c-0.4,0.9-1.5,1.3-2.4,0.9c-0.8-0.4-1.2-1.2-1-2.1
		c0-0.1,0.1-0.2,0.1-0.3c2.9-6.6,9.3-10.1,9.6-10.3C19.4,7,20.5,7.3,21,8.2z"/>
	<path class="st0" d="M49.3,63.5c-0.2-1,0.4-1.9,1.3-2.2c0.1,0,6.2-1.5,9.9-6.2c0.6-0.8,1.8-0.9,2.5-0.3c0.7,0.6,0.9,1.5,0.4,2.3
		c0,0.1-0.1,0.2-0.2,0.3c-4.5,5.7-11.6,7.4-11.9,7.4C50.5,65,49.5,64.4,49.3,63.5z"/>
</g>
</svg>
