<?xml version="1.0" encoding="utf-8"?>
<!-- Generator: Adobe Illustrator 23.1.1, SVG Export Plug-In . SVG Version: 6.00 Build 0)  -->
<svg version="1.1" id="Capa_1" xmlns="http://www.w3.org/2000/svg" xmlns:xlink="http://www.w3.org/1999/xlink" x="0px" y="0px"
	 viewBox="0 0 20 20" style="enable-background:new 0 0 20 20;" xml:space="preserve">
<style type="text/css">
	.st0{clip-path:url(#SVGID_2_);fill:#1A3D82;}
</style>
<g>
	<defs>
		<rect id="SVGID_1_" x="1.9" y="1" width="15.8" height="17.7"/>
	</defs>
	<clipPath id="SVGID_2_">
		<use xlink:href="#SVGID_1_"  style="overflow:visible;"/>
	</clipPath>
	<path class="st0" d="M3.4,17.3c0.1-3.3,3-6,6.4-6c3.5,0,6.3,2.7,6.4,6H3.4z M6.2,6c0-2,1.6-3.6,3.6-3.6c2,0,3.6,1.6,3.6,3.6
		c0,2-1.6,3.6-3.6,3.6C7.8,9.6,6.2,8,6.2,6 M12.5,10.3c1.4-0.9,2.4-2.5,2.4-4.2c0-2.8-2.2-5-5-5c-2.8,0-5,2.2-5,5
		c0,1.8,0.9,3.4,2.4,4.2c-3,1.1-5.2,3.9-5.2,7.2c0,0.2,0,0.3,0,0.6c0,0.4,0.3,0.7,0.7,0.7h14.3c0.4,0,0.7-0.3,0.7-0.7
		c0-0.2,0-0.3,0-0.5C17.7,14.1,15.5,11.3,12.5,10.3"/>
</g>
</svg>
