<?xml version="1.0" encoding="utf-8"?>
<!-- Generator: Adobe Illustrator 23.1.1, SVG Export Plug-In . SVG Version: 6.00 Build 0)  -->
<svg version="1.1" id="Capa_1" xmlns="http://www.w3.org/2000/svg" xmlns:xlink="http://www.w3.org/1999/xlink" x="0px" y="0px"
	 viewBox="0 0 18 18" style="enable-background:new 0 0 18 18;" xml:space="preserve">
<style type="text/css">
	.st0{fill:#E7E8ED;}
	.st1{fill:#15A9FA;}
</style>
<g>
	<path class="st0" d="M9,1C4.6,1,1,4.6,1,9s3.6,8,8,8s8-3.6,8-8S13.4,1,9,1z M9,15.7c-3.7,0-6.7-3-6.7-6.7s3-6.7,6.7-6.7
		s6.7,3,6.7,6.7S12.7,15.7,9,15.7z"/>
	<path class="st1" d="M11,8.4H9.6V7c0-0.3-0.3-0.5-0.6-0.5S8.4,6.7,8.4,7v1.4H7C6.7,8.4,6.4,8.7,6.4,9S6.7,9.6,7,9.6h1.4V11
		c-0.1,0.3,0.2,0.5,0.5,0.5s0.6-0.3,0.6-0.6V9.6H11c0.3,0,0.5-0.3,0.5-0.6S11.3,8.4,11,8.4z"/>
</g>
</svg>
