<?xml version="1.0" encoding="utf-8"?>
<!-- Generator: Adobe Illustrator 23.1.1, SVG Export Plug-In . SVG Version: 6.00 Build 0)  -->
<svg version="1.1" id="Capa_1" xmlns="http://www.w3.org/2000/svg" xmlns:xlink="http://www.w3.org/1999/xlink" x="0px" y="0px"
	 viewBox="0 0 20 20" style="enable-background:new 0 0 20 20;" xml:space="preserve">
<style type="text/css">
	.st0{fill:#FFFFFF;}
</style>
<g>
	<path class="st0" d="M13.2,7.2l-4,4.1L7.6,10c-0.3-0.3-0.8-0.2-1,0.1c-0.3,0.3-0.2,0.8,0.1,1l2.2,1.7C8.9,13,9.1,13,9.3,13
		c0.2,0,0.4-0.1,0.5-0.2l4.4-4.6c0.3-0.3,0.3-0.8,0-1C13.9,6.9,13.5,6.9,13.2,7.2z"/>
	<path class="st0" d="M10,1.2c-4.9,0-8.8,4-8.8,8.8c0,4.9,4,8.8,8.8,8.8s8.8-4,8.8-8.8C18.8,5.1,14.9,1.2,10,1.2z M10,17.3
		c-4,0-7.3-3.3-7.3-7.3S6,2.7,10,2.7S17.3,6,17.3,10S14,17.3,10,17.3z"/>
</g>
</svg>
