<?xml version="1.0" encoding="utf-8"?>
<!-- Generator: Adobe Illustrator 23.1.1, SVG Export Plug-In . SVG Version: 6.00 Build 0)  -->
<svg version="1.1" id="Capa_1" xmlns="http://www.w3.org/2000/svg" xmlns:xlink="http://www.w3.org/1999/xlink" x="0px" y="0px"
	 viewBox="0 0 70 70" style="enable-background:new 0 0 70 70;" xml:space="preserve">
<style type="text/css">
	.st0{fill:#15A9FA;}
</style>
<g>
	<path class="st0" d="M11.6,47.3l14.7,12.9c0.2,0.2,0.5,0.4,0.7,0.6c2.6,2.1,5.8,3.4,9.1,3.8c6.4,0.8,12.7-1.5,16.9-6.4
		c3.8-4.3,5.4-9.9,4.6-15.6c-0.2-3-0.5-9.1-0.8-14.4c-0.2-2.7-0.3-5.3-0.4-7.2c-0.2-3.6-0.4-6-3.4-6.4l0,0c-0.2,0-0.5,0-0.7,0h-0.4
		c-0.2,0-0.3,0-0.5,0.1c-3.4,0.8-6,4.2-5.8,7.6c0,0.4,0.1,2.7,0.2,5.7L43,25.5L29.6,13.7c-0.9-0.8-2-1.3-3.2-1.5
		c-1.9-0.3-3.8,0.4-5,1.9c-0.7,0.8-1.1,1.7-1.3,2.6c-0.7-0.5-1.6-0.8-2.5-0.9c-1.9-0.2-3.8,0.5-5,1.9c-1.9,2.2-1.9,5.4,0,7.6
		c-0.9,0.3-1.8,0.9-2.4,1.6c-1,1.1-1.5,2.6-1.4,4.1s0.8,2.9,1.9,3.9l2.7,2.3c-0.9,0.3-1.8,0.8-2.4,1.6C8.8,41.3,9.1,45.1,11.6,47.3z
		 M13.5,41.4c0.5-0.5,1.1-0.7,1.8-0.6c0.5,0.1,1,0.3,1.4,0.6l4.5,4c0.3,0.3,0.7,0.5,1.1,0.5c0.7,0.1,1.4-0.2,1.9-0.7
		c0.8-0.9,0.7-2.2-0.2-3c-0.1-0.1-0.3-0.2-0.4-0.3l-10.8-9.5c-0.9-0.8-1-2.1-0.2-3c0.5-0.6,1.2-0.8,1.9-0.7c0.4,0.1,0.8,0.2,1.1,0.5
		l9.7,8.5l0,0c0.3,0.2,0.6,0.4,1,0.4c0.7,0.1,1.4-0.2,1.9-0.7c0.8-0.9,0.7-2.2-0.2-3l0,0l0,0L15.3,23.2c-0.9-0.8-1-2.1-0.2-3
		c0.5-0.6,1.2-0.8,1.9-0.7c0.4,0.1,0.8,0.2,1.1,0.5l13.6,11.8l0,0l0.1,0.1c0.3,0.3,0.7,0.5,1.1,0.5c0.7,0.1,1.4-0.2,1.9-0.7
		c0.8-0.9,0.7-2.2-0.2-3l-10.2-9c-1-0.8-1.1-2.2-0.3-3.1c0.5-0.5,1.2-0.8,1.9-0.7c0.5,0.1,0.9,0.3,1.3,0.6l13.3,11.9l5.3,4.6
		c0.3,0.3,0.7,0.5,1.1,0.5c0.7,0.1,1.4-0.2,1.9-0.7c0.4-0.5,0.6-1,0.5-1.6c0-0.1,0-0.2,0-0.3c-0.2-4.6-0.3-8.7-0.3-8.7
		c-0.1-1.7,1.3-3.6,3-4c0,0,0,0,0.4,0l0,0c0.2,0,1.2,18.8,1.5,24.7c0.7,4.4-0.5,9.2-3.7,12.8c-3.6,4.1-8.8,5.8-13.8,5.2
		c-2.7-0.4-5.3-1.4-7.5-3.2c-0.1-0.1-0.3-0.2-0.4-0.3L13.9,44.5C13,43.7,12.8,42.2,13.5,41.4z"/>
	<path class="st0" d="M7.1,49.9c0.9-0.5,2-0.1,2.4,0.7c0,0.1,3.1,5.6,8.6,8C19,59,19.4,60.1,19,61c-0.4,0.8-1.2,1.2-2.1,1
		c-0.1,0-0.2-0.1-0.3-0.1C10,59,6.5,52.6,6.3,52.3C5.9,51.5,6.2,50.4,7.1,49.9z"/>
	<path class="st0" d="M62.4,21.6c-1,0.2-1.9-0.4-2.2-1.3c0-0.1-1.5-6.2-6.2-9.9c-0.8-0.6-0.9-1.8-0.3-2.5C54.3,7.2,55.2,7,56,7.5
		c0.1,0,0.2,0.1,0.3,0.2c5.7,4.5,7.4,11.6,7.4,11.9C63.9,20.4,63.3,21.4,62.4,21.6z"/>
</g>
</svg>
