<?xml version="1.0" encoding="utf-8"?>
<!-- Generator: Adobe Illustrator 23.1.1, SVG Export Plug-In . SVG Version: 6.00 Build 0)  -->
<svg version="1.1" id="Capa_1" xmlns="http://www.w3.org/2000/svg" xmlns:xlink="http://www.w3.org/1999/xlink" x="0px" y="0px"
	 viewBox="0 0 50 50" style="enable-background:new 0 0 50 50;" xml:space="preserve">
<style type="text/css">
	.st0{fill:#FFFFFF;}
</style>
<path class="st0" d="M40.7,26.1c2-1.4,3.3-3.7,3.3-6.4c0-4.3-3.5-7.8-7.8-7.8s-7.8,3.5-7.8,7.8c0,2.6,1.3,4.9,3.3,6.4
	c-1.9,0.7-3.5,1.9-4.8,3.5c-1.6-1.7-3.6-3-5.8-3.8c2.6-1.6,4.3-4.5,4.3-7.8c0-5.1-4.1-9.2-9.2-9.2s-9.2,4.1-9.2,9.2
	c0,3.3,1.7,6.2,4.3,7.8c-5.6,2-9.6,7.2-9.6,13.3c0,0.3,0,0.6,0.1,1c0.1,0.7,0.6,1.2,1.3,1.2h26.2c0.7,0,1.3-0.6,1.3-1.3
	c0-0.3,0-0.6,0-0.8c0,0,0.1,0,0.1,0H47c0.7,0,1.3-0.6,1.3-1.3c0-0.3,0-0.5,0-0.8C48.3,32.1,45.2,27.8,40.7,26.1z M36.2,14.5
	c2.9,0,5.2,2.3,5.2,5.2c0,2.9-2.3,5.2-5.2,5.2S31,22.6,31,19.7C31,16.9,33.3,14.5,36.2,14.5z M9.6,17.9c0-3.6,3-6.6,6.6-6.6
	s6.6,3,6.6,6.6s-3,6.6-6.6,6.6S9.6,21.6,9.6,17.9z M4.3,38.6c0.2-6.1,5.4-11.1,11.8-11.1S27.8,32.5,28,38.6H4.3z M30.7,36.5
	c-0.1,0-0.2,0-0.4,0.1c-0.3-1.8-1-3.5-1.9-5c0,0,0.1-0.1,0.1-0.1c1.8-2.3,4.6-3.7,7.6-3.7c5.1,0,9.2,3.8,9.5,8.7H30.7z"/>
</svg>
