<?xml version="1.0" encoding="utf-8"?>
<!-- Generator: Adobe Illustrator 23.1.1, SVG Export Plug-In . SVG Version: 6.00 Build 0)  -->
<svg version="1.1" id="Layer_1" xmlns="http://www.w3.org/2000/svg" xmlns:xlink="http://www.w3.org/1999/xlink" x="0px" y="0px"
	 viewBox="0 0 20 20" style="enable-background:new 0 0 20 20;" xml:space="preserve">
<style type="text/css">
	.st0{fill:#FFFFFF;}
</style>
<g>
	<path class="st0" d="M10,7c-1.7,0-3,1.3-3,3s1.3,3,3,3s3-1.3,3-3S11.7,7,10,7z M10,11.7c-0.9,0-1.7-0.8-1.7-1.7S9.1,8.3,10,8.3
		s1.7,0.8,1.7,1.7S10.9,11.7,10,11.7z"/>
	<path class="st0" d="M18.9,9.7c-1.8-3.1-5.2-5.1-8.9-5.1S2.8,6.6,1.1,9.7c-0.1,0.2-0.1,0.4,0,0.6c1.8,3.1,5.2,5.1,8.9,5.1
		s7.2-1.9,8.9-5.1C19.1,10.1,19.1,9.9,18.9,9.7z M10,14.1c-3.2,0-6-1.6-7.6-4.1C4,7.5,6.8,5.9,10,5.9s6,1.6,7.6,4.1
		C16,12.5,13.2,14.1,10,14.1z"/>
</g>
</svg>
