<?xml version="1.0" encoding="utf-8"?>
<!-- Generator: Adobe Illustrator 23.1.1, SVG Export Plug-In . SVG Version: 6.00 Build 0)  -->
<svg version="1.1" id="Capa_1" xmlns="http://www.w3.org/2000/svg" xmlns:xlink="http://www.w3.org/1999/xlink" x="0px" y="0px"
	 viewBox="0 0 20 20" style="enable-background:new 0 0 20 20;" xml:space="preserve">
<style type="text/css">
	.st0{fill:#0B4CC8;}
	.st1{fill:none;stroke:#0B4CC8;stroke-width:1.5;stroke-miterlimit:10;}
</style>
<path class="st0" d="M8.8,13.2c0-0.3,0.1-0.5,0.2-0.7s0.4-0.2,0.7-0.2c0.3,0,0.5,0.1,0.7,0.2s0.2,0.4,0.2,0.7c0,0.3-0.1,0.5-0.2,0.7
	c-0.2,0.2-0.4,0.2-0.7,0.2c-0.3,0-0.6-0.1-0.7-0.2C8.9,13.8,8.8,13.5,8.8,13.2 M9,11.3v-0.4C9,10.6,9,10.3,9.2,10S9.6,9.5,10,9.2
	c0.4-0.3,0.6-0.5,0.8-0.7s0.2-0.4,0.2-0.6c0-0.2-0.1-0.4-0.3-0.5c-0.2-0.1-0.4-0.2-0.7-0.2c-0.6,0-1.2,0.2-1.9,0.5L7.5,6.5
	c0.8-0.5,1.7-0.7,2.6-0.7c0.8,0,1.4,0.2,1.8,0.5c0.4,0.4,0.7,0.9,0.7,1.5c0,0.4-0.1,0.8-0.3,1.1c-0.2,0.3-0.5,0.6-1.1,1
	c-0.4,0.3-0.6,0.5-0.7,0.6c-0.1,0.1-0.1,0.3-0.1,0.5v0.3L9,11.3L9,11.3z"/>
<circle class="st1" cx="10" cy="10" r="7.7"/>
</svg>
