<?xml version="1.0" encoding="utf-8"?>
<!-- Generator: Adobe Illustrator 23.1.1, SVG Export Plug-In . SVG Version: 6.00 Build 0)  -->
<svg version="1.1" id="Capa_1" xmlns="http://www.w3.org/2000/svg" xmlns:xlink="http://www.w3.org/1999/xlink" x="0px" y="0px"
	 viewBox="0 0 70 70" style="enable-background:new 0 0 70 70;" xml:space="preserve">
<style type="text/css">
	.st0{fill:#BAC4D9;}
</style>
<g>
	<path class="st0" d="M21,12.1c-3.9,0-4.6,3.3-5.3,6.8c-0.4,1.8-0.8,4.4-1.3,7.1c-1,5.2-2.1,11.1-2.6,14.1c-1.6,5.8-0.7,12,2.7,17
		c3.7,5.7,10,9.1,16.7,9.1c3.5,0,6.9-0.9,10-2.7c0.3-0.2,0.6-0.3,0.9-0.5L58,52c1.5-1,2.5-2.5,3-4.2c0.5-1.9,0.2-3.9-0.9-5.6
		c-0.3-0.4-0.6-0.9-1-1.2l1.5-1c1.5-1,2.5-2.6,2.9-4.4c0.4-1.8,0-3.7-1-5.2c-0.4-0.6-0.8-1.1-1.3-1.5c0.6-0.8,1-1.7,1.2-2.8
		c0.3-1.8,0-3.7-1-5.2c-1.3-1.9-3.4-3.1-5.7-3.1c-0.6,0-1.1,0.1-1.6,0.2c-0.2-0.6-0.5-1.3-0.8-1.8c-1.2-1.9-3.4-3-5.6-3
		c-1.4,0-2.8,0.4-4,1.2l-14.7,10L28,25c0.2-1.5,0.4-2.6,0.5-2.9c0.7-3.9-1.7-8.3-5.5-9.7c-0.2-0.1-0.4-0.1-0.7-0.2L22,12.2
		C21.7,12.1,21.4,12.1,21,12.1C21,12.1,21,12.1,21,12.1 M21,16.9L21,16.9l0.4,0.1c1.6,0.6,2.7,2.7,2.4,4.4c0,0-0.6,4-1.4,8.5
		c0,0.1,0,0.2,0,0.3c-0.1,0.5,0,1.1,0.3,1.6c0.4,0.6,1.1,0.9,1.7,0.9c0.4,0,0.8-0.1,1.2-0.4l5.8-4l14.7-10c0.4-0.3,0.9-0.4,1.3-0.4
		c0.7,0,1.3,0.3,1.7,0.9c0.6,1,0.3,2.3-0.7,3l-11.2,7.6c-1,0.7-1.2,2-0.6,3c0.4,0.6,1.1,0.9,1.7,0.9c0.4,0,0.8-0.1,1.2-0.4
		c0,0,0.1,0,0.1-0.1c0,0,0,0,0,0l14.7-10c0.4-0.2,0.8-0.4,1.2-0.4c0.7,0,1.3,0.3,1.7,0.9c0.6,1,0.4,2.3-0.6,2.9L42.9,36v0
		c0,0,0,0,0,0c-1,0.7-1.2,2-0.6,2.9c0.4,0.6,1.1,0.9,1.7,0.9c0.3,0,0.7-0.1,1-0.3c0,0,0,0,0,0l10.6-7.2c0.4-0.2,0.8-0.4,1.2-0.4
		c0.7,0,1.3,0.3,1.7,0.9c0.6,1,0.4,2.3-0.6,3l-11.8,8c-0.1,0.1-0.3,0.2-0.4,0.3c-1,0.7-1.2,2-0.6,2.9c0.4,0.6,1.1,0.9,1.7,0.9
		c0.4,0,0.8-0.1,1.2-0.4l5-3.4c0.5-0.3,1-0.5,1.5-0.5c0.7,0,1.3,0.3,1.7,0.9c0.6,1,0.3,2.4-0.8,3.1l-16,10.9
		c-0.1,0.1-0.3,0.2-0.5,0.3c-2.4,1.5-5.1,2.2-7.8,2.2c-4.9,0-9.8-2.4-12.8-6.9c-2.7-4-3.2-8.9-2-13.2C17.4,35.4,20.8,16.9,21,16.9"
		/>
	<path class="st0" d="M49.6,65c-1.1,0-2.1-0.8-2.3-2c-0.2-1.3,0.6-2.5,1.9-2.8c5.6-1,9.7-5.5,9.8-5.5c0.9-1,2.4-1,3.3-0.2
		c1,0.9,1,2.4,0.2,3.4c-0.2,0.2-5.2,5.8-12.5,7C49.9,64.9,49.8,65,49.6,65"/>
	<path class="st0" d="M8.8,20.3c-0.2,0-0.4,0-0.7-0.1c-1.3-0.4-2-1.7-1.6-3c1.3-4.6,7.3-13.3,20.6-13.3c1.3,0,2.4,1.1,2.4,2.4
		c0,1.3-1.1,2.4-2.4,2.4c-13,0-16,9.8-16,9.9C10.7,19.6,9.8,20.3,8.8,20.3"/>
</g>
</svg>
