<?xml version="1.0" encoding="utf-8"?>
<!-- Generator: Adobe Illustrator 23.1.1, SVG Export Plug-In . SVG Version: 6.00 Build 0)  -->
<svg version="1.1" id="Capa_1" xmlns="http://www.w3.org/2000/svg" xmlns:xlink="http://www.w3.org/1999/xlink" x="0px" y="0px"
	 viewBox="0 0 20 20" style="enable-background:new 0 0 20 20;" xml:space="preserve">
<style type="text/css">
	.st0{clip-path:url(#SVGID_2_);fill:#1A3D82;}
</style>
<g>
	<defs>
		<rect id="SVGID_1_" x="2" y="1" width="15.7" height="17.7"/>
	</defs>
	<clipPath id="SVGID_2_">
		<use xlink:href="#SVGID_1_"  style="overflow:visible;"/>
	</clipPath>
	<path class="st0" d="M16.2,16.1c0,0.7-0.5,1.2-1.2,1.2H4.6c-0.7,0-1.2-0.5-1.2-1.2V8c0-0.7,0.5-1.2,1.2-1.2H15
		c0.7,0,1.2,0.5,1.2,1.2V16.1z M9.8,2.4c1.9,0,3.5,1.2,4.1,2.9H5.7C6.3,3.6,7.9,2.4,9.8,2.4 M15.4,5.4C14.8,2.8,12.5,1,9.8,1
		c-2.7,0-5,1.8-5.6,4.4C2.9,5.6,2,6.7,2,8v8.1c0,1.5,1.2,2.6,2.6,2.6H15c1.5,0,2.6-1.2,2.6-2.6V8C17.6,6.7,16.7,5.6,15.4,5.4"/>
	<path class="st0" d="M9.9,10.4H9.7c-0.5,0-0.9,0.4-0.9,0.9v2.1c0,0.5,0.4,0.9,0.9,0.9h0.2c0.5,0,0.9-0.4,0.9-0.9v-2.1
		C10.8,10.8,10.4,10.4,9.9,10.4"/>
</g>
</svg>
