<?xml version="1.0" encoding="utf-8"?>
<!-- Generator: Adobe Illustrator 23.1.1, SVG Export Plug-In . SVG Version: 6.00 Build 0)  -->
<svg version="1.1" id="Capa_1" xmlns="http://www.w3.org/2000/svg" xmlns:xlink="http://www.w3.org/1999/xlink" x="0px" y="0px"
	 viewBox="0 0 20 20" style="enable-background:new 0 0 20 20;" xml:space="preserve">
<style type="text/css">
	.st0{clip-path:url(#SVGID_2_);fill:#1160FB;}
</style>
<g>
	<defs>
		<rect id="SVGID_1_" x="3.1" y="0.32" width="12.58" height="19.36"/>
	</defs>
	<clipPath id="SVGID_2_">
		<use xlink:href="#SVGID_1_"  style="overflow:visible;"/>
	</clipPath>
	<path class="st0" d="M7.71,13.97h3.36c0.13-1.81,1.17-3.06,1.81-3.66c1.03-0.97,1.59-2.28,1.59-3.69c0-2.8-2.28-5.08-5.08-5.08
		S4.31,3.81,4.31,6.61c0,1.41,0.57,2.72,1.59,3.69C6.54,10.91,7.58,12.16,7.71,13.97 M11.66,15.18H7.11c-0.33,0-0.61-0.27-0.61-0.61
		v-0.24c0-1.55-0.9-2.64-1.44-3.15C3.8,9.98,3.1,8.36,3.1,6.61c0-3.47,2.82-6.29,6.29-6.29s6.29,2.82,6.29,6.29
		c0,1.75-0.7,3.37-1.97,4.57c-0.54,0.51-1.44,1.6-1.44,3.15v0.24C12.27,14.91,12,15.18,11.66,15.18"/>
	<path class="st0" d="M11.81,17.26H6.97c-0.45,0-0.81-0.36-0.81-0.81c0-0.45,0.36-0.81,0.81-0.81h4.84c0.45,0,0.81,0.36,0.81,0.81
		C12.62,16.9,12.26,17.26,11.81,17.26"/>
	<path class="st0" d="M11,19.68H7.77c-0.45,0-0.81-0.36-0.81-0.81c0-0.45,0.36-0.81,0.81-0.81H11c0.45,0,0.81,0.36,0.81,0.81
		C11.81,19.32,11.45,19.68,11,19.68"/>
</g>
</svg>
