<?xml version="1.0" encoding="utf-8"?>
<!-- Generator: Adobe Illustrator 23.1.1, SVG Export Plug-In . SVG Version: 6.00 Build 0)  -->
<svg version="1.1" id="Capa_1" xmlns="http://www.w3.org/2000/svg" xmlns:xlink="http://www.w3.org/1999/xlink" x="0px" y="0px"
	 viewBox="0 0 40 40" style="enable-background:new 0 0 40 40;" xml:space="preserve">
<style type="text/css">
	.st0{fill:#B5BBC9;}
</style>
<g>
	<g>
		<path class="st0" d="M33.2,29.2h-9.9c-2,0-3.7-1.6-3.7-3.7V14.5c0-2,1.6-3.7,3.7-3.7h9.9c2,0,3.7,1.6,3.7,3.7v11.1
			C36.9,27.6,35.3,29.2,33.2,29.2z M23.4,12.6c-1,0-1.9,0.8-1.9,1.9v11.1c0,1,0.8,1.9,1.9,1.9h9.9c1,0,1.9-0.8,1.9-1.9V14.5
			c0-1-0.8-1.9-1.9-1.9H23.4z"/>
	</g>
	<g>
		<path class="st0" d="M15.8,15H4c-0.5,0-0.9-0.4-0.9-0.9s0.4-0.9,0.9-0.9h11.9c0.5,0,0.9,0.4,0.9,0.9S16.3,15,15.8,15z"/>
	</g>
	<g>
		<path class="st0" d="M15.8,20.9H4c-0.5,0-0.9-0.4-0.9-0.9s0.4-0.9,0.9-0.9h11.9c0.5,0,0.9,0.4,0.9,0.9S16.3,20.9,15.8,20.9z"/>
	</g>
	<g>
		<path class="st0" d="M15.8,26.8H4c-0.5,0-0.9-0.4-0.9-0.9C3.1,25.4,3.5,25,4,25h11.9c0.5,0,0.9,0.4,0.9,0.9
			C16.7,26.4,16.3,26.8,15.8,26.8z"/>
	</g>
</g>
</svg>
