<?xml version="1.0" encoding="utf-8"?>
<!-- Generator: Adobe Illustrator 23.1.1, SVG Export Plug-In . SVG Version: 6.00 Build 0)  -->
<svg version="1.1" id="Capa_1" xmlns="http://www.w3.org/2000/svg" xmlns:xlink="http://www.w3.org/1999/xlink" x="0px" y="0px"
	 viewBox="0 0 18 18" style="enable-background:new 0 0 18 18;" xml:space="preserve">
<style type="text/css">
	.st0{fill:#9AB0DB;}
</style>
<g>
	<path class="st0" d="M9,1C4.6,1,1,4.6,1,9s3.6,8,8,8c4.4,0,8-3.6,8-8S13.4,1,9,1z M9,15.7c-3.7,0-6.7-3-6.7-6.7
		c0-3.7,3-6.7,6.7-6.7s6.7,3,6.7,6.7C15.7,12.7,12.7,15.7,9,15.7z"/>
	<path class="st0" d="M11.4,8.3H9.7V6.6C9.7,6.3,9.4,6,9,6C8.6,6,8.3,6.3,8.3,6.6v1.7H6.6C6.3,8.3,6,8.6,6,9s0.3,0.7,0.7,0.7h1.7
		v1.7C8.3,11.7,8.6,12,9,12c0.4,0,0.7-0.3,0.7-0.7V9.7h1.7C11.7,9.7,12,9.4,12,9S11.7,8.3,11.4,8.3z"/>
</g>
</svg>
