<?xml version="1.0" encoding="utf-8"?>
<!-- Generator: Adobe Illustrator 23.1.1, SVG Export Plug-In . SVG Version: 6.00 Build 0)  -->
<svg version="1.1" id="Capa_1" xmlns="http://www.w3.org/2000/svg" xmlns:xlink="http://www.w3.org/1999/xlink" x="0px" y="0px"
	 viewBox="0 0 20 20" style="enable-background:new 0 0 20 20;" xml:space="preserve">
<style type="text/css">
	.st0{fill:#18C7FB;}
</style>
<g>
	<path class="st0" d="M9.9,17.5c-0.2,0-0.3-0.1-0.5-0.2l-1.8-1.5H3.8c-1,0-1.8-0.9-1.8-2V4.5c0-1.1,0.8-2,1.8-2h12.3
		c1,0,1.9,0.9,1.9,2v9.2c0,1.1-0.8,2-1.9,2h-4.3l-1.4,1.5C10.3,17.4,10.1,17.5,9.9,17.5z M7.7,15.8L7.7,15.8L7.7,15.8z M7.5,15.7
		C7.5,15.7,7.5,15.7,7.5,15.7L7.5,15.7z M3.8,4C3.6,4,3.5,4.2,3.5,4.5v9.3c0,0.3,0.1,0.5,0.3,0.5h3.9c0.2,0,0.5,0,0.8,0.3l1.3,1.1
		l0.9-1c0.2-0.2,0.5-0.5,1-0.5h4.4c0.2,0,0.4-0.2,0.4-0.5V4.5c0-0.3-0.1-0.5-0.4-0.5H3.8z"/>
</g>
</svg>
