<?xml version="1.0" encoding="utf-8"?>
<!-- Generator: Adobe Illustrator 23.1.1, SVG Export Plug-In . SVG Version: 6.00 Build 0)  -->
<svg version="1.1" id="Capa_1" xmlns="http://www.w3.org/2000/svg" xmlns:xlink="http://www.w3.org/1999/xlink" x="0px" y="0px"
	 viewBox="0 0 35 35" style="enable-background:new 0 0 35 35;" xml:space="preserve">
<style type="text/css">
	.st0{clip-path:url(#SVGID_2_);fill:#142145;}
</style>
<g>
	<defs>
		<rect id="SVGID_1_" x="2.5" y="3.1" width="30.5" height="29.6"/>
	</defs>
	<clipPath id="SVGID_2_">
		<use xlink:href="#SVGID_1_"  style="overflow:visible;"/>
	</clipPath>
	<path class="st0" d="M30.4,32.8c-0.7,0-1.3-0.2-1.8-0.7L3.3,7.4c-1-1-1-2.5,0-3.5c1-1,2.6-1,3.6,0l25.3,24.6c1,1,1,2.5,0,3.5
		C31.8,32.5,31.1,32.8,30.4,32.8"/>
	<path class="st0" d="M5.1,32.8c-0.7,0-1.3-0.2-1.8-0.7c-1-1-1-2.5,0-3.5L28.6,3.9c1-1,2.6-1,3.6,0c1,1,1,2.5,0,3.5L6.9,32
		C6.4,32.5,5.7,32.8,5.1,32.8"/>
</g>
</svg>
