<?xml version="1.0" encoding="utf-8"?>
<!-- Generator: Adobe Illustrator 20.0.0, SVG Export Plug-In . SVG Version: 6.00 Build 0)  -->
<svg version="1.1" id="Layer_1" xmlns="http://www.w3.org/2000/svg" xmlns:xlink="http://www.w3.org/1999/xlink" x="0px" y="0px"
	 viewBox="0 0 20 20" style="enable-background:new 0 0 20 20;" xml:space="preserve">
<style type="text/css">
	.st0{clip-path:url(#SVGID_2_);fill:#FFFFFF;}
</style>
<g>
	<defs>
		<rect id="SVGID_1_" x="1.2" y="2.8" width="17.7" height="14.4"/>
	</defs>
	<clipPath id="SVGID_2_">
		<use xlink:href="#SVGID_1_"  style="overflow:visible;"/>
	</clipPath>
	<path class="st0" d="M3.3,3.8h13.5c0.6,0,1.1,0.5,1.1,1.1v6.5l-4.9-4.8c-0.2-0.2-0.5-0.2-0.7,0L8,11.3L5.7,9.6
		C5.5,9.4,5.2,9.5,5.1,9.7l-2.9,3.2V5C2.2,4.4,2.7,3.8,3.3,3.8 M16.7,16.2H3.3c-0.6,0-1.1-0.5-1.1-1.1v-0.6l3.3-3.7l2.3,1.7
		c0.2,0.1,0.5,0.1,0.7-0.1l4.2-4.6l5.2,5.1V15C17.8,15.6,17.3,16.2,16.7,16.2 M3.3,17.2h13.5c1.2,0,2.1-1,2.1-2.2V5
		c0-1.2-0.9-2.2-2.1-2.2H3.3c-1.2,0-2.1,1-2.1,2.2V15C1.2,16.2,2.1,17.2,3.3,17.2"/>
	<path class="st0" d="M7.5,6.3c0.6,0,1.1,0.5,1.1,1.1S8.1,8.5,7.5,8.5C6.9,8.5,6.4,8,6.4,7.4S6.9,6.3,7.5,6.3 M7.5,9.5
		c1.2,0,2.1-1,2.1-2.2S8.7,5.2,7.5,5.2s-2.1,1-2.1,2.2S6.4,9.5,7.5,9.5"/>
</g>
</svg>
