<?xml version="1.0" encoding="utf-8"?>
<!-- Generator: Adobe Illustrator 23.1.1, SVG Export Plug-In . SVG Version: 6.00 Build 0)  -->
<svg version="1.1" id="Capa_1" xmlns="http://www.w3.org/2000/svg" xmlns:xlink="http://www.w3.org/1999/xlink" x="0px" y="0px"
	 viewBox="0 0 30 30" style="enable-background:new 0 0 30 30;" xml:space="preserve">
<style type="text/css">
	.st0{fill:#1A3D82;}
</style>
<g>
	<path class="st0" d="M19.9,3.9h-9.7c-3.4,0-6.2,2.8-6.2,6.2v9.7c0,3.4,2.8,6.2,6.2,6.2h9.7c3.4,0,6.2-2.8,6.2-6.2v-9.7
		C26.1,6.7,23.3,3.9,19.9,3.9z M24.1,19.9c0,2.3-1.9,4.2-4.2,4.2h-9.7c-2.3,0-4.2-1.9-4.2-4.2v-9.7c0-2.3,1.9-4.2,4.2-4.2h9.7
		c2.3,0,4.2,1.9,4.2,4.2V19.9z M15,9.3c-3.1,0-5.7,2.5-5.7,5.7s2.5,5.7,5.7,5.7c3.1,0,5.7-2.5,5.7-5.7S18.1,9.3,15,9.3z M15,18.6
		c-2,0-3.6-1.6-3.6-3.6c0-2,1.6-3.6,3.6-3.6c2,0,3.6,1.6,3.6,3.6C18.6,17,17,18.6,15,18.6z M22.2,9c0,0.7-0.6,1.4-1.4,1.4
		c-0.7,0-1.4-0.6-1.4-1.4c0-0.7,0.6-1.4,1.4-1.4C21.6,7.6,22.2,8.3,22.2,9z"/>
</g>
</svg>
