<?xml version="1.0" encoding="utf-8"?>
<!-- Generator: Adobe Illustrator 23.1.1, SVG Export Plug-In . SVG Version: 6.00 Build 0)  -->
<svg version="1.1" id="Capa_1" xmlns="http://www.w3.org/2000/svg" xmlns:xlink="http://www.w3.org/1999/xlink" x="0px" y="0px"
	 viewBox="0 0 130 100" style="enable-background:new 0 0 130 100;" xml:space="preserve">
<style type="text/css">
	.st0{clip-path:url(#SVGID_2_);fill:#CECFD2;}
	.st1{clip-path:url(#SVGID_2_);fill:#FFFFFF;}
</style>
<g>
	<g>
		<defs>
			<rect id="SVGID_1_" x="0.4" y="0.1" width="129.3" height="99.8"/>
		</defs>
		<clipPath id="SVGID_2_">
			<use xlink:href="#SVGID_1_"  style="overflow:visible;"/>
		</clipPath>
		<path class="st0" d="M31.4,31.3c4.1,0,8.1,0.7,11.9,1.9C45,22.8,54.1,14.9,65,14.9c10.7,0,19.6,7.6,21.6,17.7
			c1.5-0.4,3.1-0.8,4.7-1c2-0.3,4.1-0.5,6.1-0.5c1.4,0,2.7,0.1,4,0.2C98.8,13.7,83.4,0.1,65,0.1c-18.5,0-33.8,13.6-36.5,31.3
			C29.4,31.3,30.4,31.3,31.4,31.3"/>
		<path class="st1" d="M105.1,83c-1.8,0.9-3.7,1.6-5.7,1.8c-0.4,0.1-2,0.2-3.4,0.3L64.1,85c2.8-3.3,5.6-7.2,8-12.1
			c0.5-1.1,1-2.1,1.5-3.3c7.7-17.8,18-19.9,19.9-20.2l0.3,0c1-0.2,2-0.3,3-0.3c3.2,0,6.3,0.9,8.9,2.4c5.4,3.1,9,8.9,9,15.5
			c0,4.9-2,9.5-5.4,12.7C108.1,81,106.6,82,105.1,83 M15.2,67.2c0-9.9,8-17.9,17.9-17.9c6.3,0,11.9,3.3,15.1,8.3
			c1.8,2.8,2.8,6.1,2.8,9.6c0,8.8-6.4,16.2-14.8,17.6c-1,0.2-2,0.3-3.1,0.3c0,0,0,0,0,0c-3,0-5.9-0.8-8.4-2.1
			C19.1,80,15.2,74,15.2,67.2 M118.5,42.5c-5.8-5.1-13.3-8.1-21.6-8.1c-1.8,0-3.6,0.2-5.4,0.4c-2.4,0.3-6.7,1.3-11.6,4.3
			c-1.5,0.8-3.3,2-5.1,3.7C70.7,46.2,67,50.7,63.9,56c-1.8-4.9-4.7-9.2-8.4-12.6c-5.9-5.5-13.7-8.9-22.4-8.9
			c-18.1,0-32.8,14.7-32.8,32.7s14.7,32.7,32.8,32.7c0.8,0,1.6,0,2.4-0.1l37.9,0.1l23.1,0l0.3,0c1.3-0.1,3.7-0.3,4.6-0.4
			c16.1-2.2,28.3-16.1,28.3-32.4C129.6,57.3,125.3,48.5,118.5,42.5"/>
		<path class="st0" d="M48.2,57.6c1.8,2.8,2.8,6.1,2.8,9.6c0,8.8-6.4,16.2-14.8,17.6l1.1-0.1c4.8-1,15.7-4.9,22.6-20.9
			c1.2-2.8,2.5-5.4,4-7.8c-1.8-4.9-4.7-9.2-8.4-12.6c-1.5,2.6-3,5.4-4.3,8.4C50.3,53.9,49.3,55.9,48.2,57.6"/>
	</g>
</g>
</svg>
