<?xml version="1.0" encoding="utf-8"?>
<!-- Generator: Adobe Illustrator 23.1.1, SVG Export Plug-In . SVG Version: 6.00 Build 0)  -->
<svg version="1.1" id="Capa_1" xmlns="http://www.w3.org/2000/svg" xmlns:xlink="http://www.w3.org/1999/xlink" x="0px" y="0px"
	 viewBox="0 0 240 155" style="enable-background:new 0 0 240 155;" xml:space="preserve">
<style type="text/css">
	.st0{fill:#FFFFFF;}
	.st1{fill:#CECFD2;}
</style>
<g>
	<g>
		<path class="st0" d="M57.5,95.1c1.8,1.8,2.7,4.3,2.7,7.7v13.8h-4.3v-13.3c0-2.3-0.6-4.1-1.7-5.2c-1.1-1.2-2.7-1.8-4.8-1.8
			c-2.3,0-4.2,0.7-5.6,2.1c-1.4,1.4-2,3.3-2,5.9v12.3h-4.3V92.7h4.2v3.6c0.9-1.2,2.1-2.2,3.5-2.8c1.5-0.7,3.2-1,5.1-1
			C53.3,92.5,55.7,93.4,57.5,95.1z"/>
		<path class="st0" d="M67.4,87.3c-0.6-0.5-0.8-1.2-0.8-2s0.3-1.5,0.8-2c0.6-0.6,1.3-0.8,2.1-0.8c0.8,0,1.5,0.3,2.1,0.8
			c0.6,0.5,0.8,1.2,0.8,2c0,0.8-0.3,1.5-0.8,2.1c-0.6,0.6-1.3,0.8-2.1,0.8C68.6,88.1,67.9,87.8,67.4,87.3z M67.3,92.7h4.3v23.9h-4.3
			V92.7z"/>
		<path class="st0" d="M116.1,95.1c1.8,1.7,2.6,4.3,2.6,7.8v13.8h-4.3v-13.3c0-2.3-0.5-4.1-1.6-5.2c-1.1-1.2-2.6-1.8-4.6-1.8
			c-2.2,0-3.9,0.7-5.2,2.1c-1.3,1.4-1.9,3.3-1.9,5.9v12.3h-4.3v-13.3c0-2.3-0.5-4.1-1.6-5.2c-1.1-1.2-2.6-1.8-4.6-1.8
			c-2.2,0-3.9,0.7-5.2,2.1c-1.3,1.4-1.9,3.3-1.9,5.9v12.3H79V92.7h4.2v3.6c0.9-1.2,2-2.2,3.4-2.8c1.4-0.6,3-1,4.8-1
			c1.9,0,3.5,0.4,5,1.1c1.4,0.8,2.6,1.9,3.3,3.3c0.9-1.4,2.2-2.5,3.8-3.2c1.6-0.8,3.4-1.2,5.4-1.2C111.9,92.5,114.3,93.3,116.1,95.1
			z"/>
		<path class="st0" d="M144.7,94c1.8,1,3.3,2.5,4.3,4.3c1,1.8,1.6,4,1.6,6.4s-0.5,4.5-1.6,6.4c-1,1.8-2.5,3.3-4.3,4.3
			c-1.8,1-3.9,1.5-6.2,1.5c-1.8,0-3.4-0.3-4.9-1c-1.5-0.7-2.7-1.7-3.7-3v3.8h-4.2V83.1h4.3v13.2c1-1.3,2.2-2.2,3.6-2.9
			c1.4-0.6,3-1,4.7-1C140.8,92.5,142.9,93,144.7,94z M142.3,112c1.2-0.7,2.2-1.7,2.9-3c0.7-1.3,1.1-2.7,1.1-4.4s-0.4-3.1-1.1-4.4
			c-0.7-1.3-1.7-2.3-2.9-3c-1.2-0.7-2.6-1-4.1-1c-1.5,0-2.9,0.3-4.1,1c-1.2,0.7-2.2,1.7-2.9,3c-0.7,1.3-1,2.7-1,4.4s0.3,3.1,1,4.4
			c0.7,1.3,1.7,2.3,2.9,3c1.2,0.7,2.6,1.1,4.1,1.1C139.7,113.1,141,112.7,142.3,112z"/>
		<path class="st0" d="M178,92.7v23.9h-4.1V113c-0.9,1.2-2,2.2-3.5,2.9c-1.4,0.7-3,1-4.7,1c-3.2,0-5.7-0.9-7.5-2.6
			c-1.8-1.8-2.8-4.4-2.8-7.8V92.7h4.3V106c0,2.3,0.6,4.1,1.7,5.3c1.1,1.2,2.7,1.8,4.8,1.8c2.3,0,4.1-0.7,5.4-2.1
			c1.3-1.4,2-3.3,2-5.9V92.7H178z"/>
		<path class="st0" d="M186.5,116.1c-1.8-0.5-3.2-1.2-4.2-2l1.8-3.4c1.1,0.8,2.3,1.4,3.8,1.8c1.5,0.5,3,0.7,4.6,0.7
			c3.8,0,5.7-1.1,5.7-3.2c0-0.7-0.3-1.3-0.8-1.7c-0.5-0.4-1.2-0.7-1.9-0.9c-0.8-0.2-1.9-0.4-3.3-0.7c-1.9-0.3-3.5-0.6-4.7-1
			c-1.2-0.4-2.3-1.1-3.1-2c-0.9-0.9-1.3-2.2-1.3-3.9c0-2.2,0.9-3.9,2.7-5.2c1.8-1.3,4.2-2,7.3-2c1.6,0,3.2,0.2,4.8,0.6
			c1.6,0.4,2.9,0.9,3.9,1.6l-1.9,3.4c-2-1.3-4.3-1.9-6.9-1.9c-1.8,0-3.2,0.3-4.2,0.9c-1,0.6-1.4,1.4-1.4,2.4c0,0.8,0.3,1.4,0.8,1.8
			c0.5,0.5,1.2,0.8,2,1c0.8,0.2,1.9,0.5,3.4,0.7c1.9,0.3,3.5,0.7,4.7,1.1c1.2,0.4,2.2,1,3,1.9c0.8,0.9,1.3,2.2,1.3,3.8
			c0,2.2-0.9,3.9-2.8,5.2c-1.8,1.3-4.4,1.9-7.6,1.9C190.2,116.9,188.4,116.6,186.5,116.1z"/>
	</g>
	<g>
		<path class="st1" d="M98.4,24.4c2.4,0,4.8,0.4,7,1.1c1.1-6.1,6.4-10.8,12.8-10.8c6.3,0,11.6,4.5,12.8,10.5
			c0.9-0.3,1.8-0.4,2.8-0.6c1.2-0.2,2.4-0.3,3.6-0.3c0.8,0,1.6,0,2.4,0.1C138.3,14,129.2,6,118.3,6c-10.9,0-20,8-21.6,18.5
			C97.3,24.5,97.9,24.4,98.4,24.4z"/>
	</g>
	<path class="st0" d="M149.9,31.1c-3.4-3-7.9-4.8-12.8-4.8c-1.1,0-2.1,0.1-3.2,0.3c-1.4,0.2-3.9,0.8-6.9,2.5c-0.9,0.5-1.9,1.2-3,2.2
		c-2.4,2.1-4.6,4.7-6.4,7.8c-1.1-2.9-2.8-5.4-5-7.5c-3.5-3.3-8.1-5.2-13.2-5.2c-10.7,0-19.4,8.7-19.4,19.4s8.7,19.4,19.4,19.4
		c0.5,0,1,0,1.4-0.1l22.4,0l13.6,0l0.2,0c0.8-0.1,2.2-0.2,2.7-0.2c9.5-1.3,16.7-9.6,16.7-19.2C156.5,39.9,153.9,34.7,149.9,31.1z
		 M88.9,45.7c0-5.8,4.7-10.6,10.6-10.6c3.8,0,7,2,8.9,4.9c1,1.6,1.7,3.6,1.7,5.7c0,5.2-3.8,9.6-8.8,10.4c-0.6,0.1-1.2,0.2-1.8,0.2
		c0,0,0,0,0,0c-1.8,0-3.5-0.4-4.9-1.2C91.2,53.3,88.9,49.8,88.9,45.7z M142,55c-1,0.5-2.2,0.9-3.4,1.1c-0.2,0-1.2,0.1-2,0.2l-18.8,0
		c1.7-1.9,3.3-4.3,4.7-7.1c0.3-0.6,0.6-1.3,0.9-1.9c4.5-10.5,10.6-11.8,11.8-11.9l0.2,0c0.6-0.1,1.2-0.2,1.8-0.2
		c1.9,0,3.7,0.5,5.3,1.4c3.2,1.8,5.3,5.3,5.3,9.2c0,2.9-1.2,5.6-3.2,7.5C143.8,53.9,142.9,54.5,142,55z"/>
	<path class="st1" d="M108.4,40c1,1.6,1.7,3.6,1.7,5.7c0,5.2-3.8,9.6-8.8,10.4l0.7,0c2.8-0.6,9.3-2.9,13.4-12.4
		c0.7-1.7,1.5-3.2,2.3-4.6c-1.1-2.9-2.8-5.4-5-7.5c-0.9,1.5-1.8,3.2-2.5,4.9C109.6,37.8,109,39,108.4,40z"/>
	<g>
		<path class="st1" d="M15.7,147.2c-2.2-1.2-3.9-2.8-5.1-4.9c-1.2-2.1-1.9-4.5-1.9-7.1c0-2.6,0.6-5,1.9-7.1c1.2-2.1,3-3.7,5.1-4.9
			c2.2-1.2,4.6-1.8,7.3-1.8c2.1,0,4,0.4,5.8,1.1c1.8,0.7,3.2,1.8,4.5,3.2l-2.5,2.4c-2-2.1-4.6-3.2-7.6-3.2c-2,0-3.8,0.5-5.5,1.4
			c-1.6,0.9-2.9,2.1-3.8,3.7c-0.9,1.6-1.4,3.4-1.4,5.3s0.5,3.7,1.4,5.3c0.9,1.6,2.2,2.8,3.8,3.7c1.6,0.9,3.4,1.4,5.5,1.4
			c3,0,5.6-1.1,7.6-3.2l2.5,2.4c-1.2,1.4-2.7,2.4-4.5,3.2c-1.8,0.7-3.7,1.1-5.8,1.1C20.3,149,17.9,148.4,15.7,147.2z"/>
		<path class="st1" d="M40,147.6c-1.6-0.9-2.9-2.1-3.8-3.7c-0.9-1.6-1.4-3.4-1.4-5.4c0-2,0.5-3.8,1.4-5.4s2.2-2.8,3.8-3.7
			c1.6-0.9,3.5-1.3,5.5-1.3s3.9,0.4,5.5,1.3c1.6,0.9,2.9,2.1,3.8,3.7c0.9,1.6,1.4,3.4,1.4,5.4c0,2-0.5,3.8-1.4,5.4
			c-0.9,1.6-2.2,2.8-3.8,3.7c-1.6,0.9-3.4,1.4-5.5,1.4S41.6,148.5,40,147.6z M49,144.8c1-0.6,1.9-1.5,2.5-2.6
			c0.6-1.1,0.9-2.4,0.9-3.8c0-1.4-0.3-2.7-0.9-3.8c-0.6-1.1-1.4-1.9-2.5-2.5c-1-0.6-2.2-0.9-3.5-0.9c-1.3,0-2.5,0.3-3.5,0.9
			c-1,0.6-1.9,1.4-2.5,2.5c-0.6,1.1-0.9,2.4-0.9,3.8c0,1.4,0.3,2.7,0.9,3.8c0.6,1.1,1.4,1.9,2.5,2.6c1,0.6,2.2,0.9,3.5,0.9
			C46.8,145.7,48,145.4,49,144.8z"/>
		<path class="st1" d="M77.6,130.3c1.5,1.5,2.3,3.7,2.3,6.6v11.8h-3.7v-11.4c0-2-0.5-3.5-1.4-4.5c-1-1-2.3-1.5-4.1-1.5
			c-2,0-3.6,0.6-4.8,1.8c-1.2,1.2-1.7,2.9-1.7,5v10.6h-3.7v-20.5h3.6v3.1c0.7-1.1,1.8-1.9,3-2.4s2.7-0.9,4.3-0.9
			C74,128,76.1,128.8,77.6,130.3z"/>
		<path class="st1" d="M87.1,148.2c-1.5-0.5-2.8-1-3.6-1.7l1.5-2.9c0.9,0.6,2,1.2,3.3,1.5c1.3,0.4,2.6,0.6,3.9,0.6
			c3.2,0,4.9-0.9,4.9-2.8c0-0.6-0.2-1.1-0.7-1.5c-0.4-0.4-1-0.6-1.6-0.8s-1.6-0.4-2.8-0.6c-1.6-0.3-3-0.6-4-0.9
			c-1-0.3-1.9-0.9-2.7-1.7c-0.7-0.8-1.1-1.9-1.1-3.4c0-1.9,0.8-3.3,2.3-4.5c1.5-1.1,3.6-1.7,6.2-1.7c1.4,0,2.7,0.2,4.1,0.5
			c1.4,0.3,2.5,0.8,3.4,1.4l-1.6,2.9c-1.7-1.1-3.6-1.6-5.9-1.6c-1.6,0-2.8,0.3-3.6,0.8c-0.8,0.5-1.2,1.2-1.2,2
			c0,0.7,0.2,1.2,0.7,1.6c0.5,0.4,1,0.7,1.7,0.9c0.7,0.2,1.6,0.4,2.9,0.6c1.6,0.3,3,0.6,4,0.9c1,0.3,1.9,0.9,2.6,1.6
			c0.7,0.8,1.1,1.9,1.1,3.2c0,1.9-0.8,3.3-2.4,4.4c-1.6,1.1-3.7,1.6-6.5,1.6C90.3,148.9,88.6,148.7,87.1,148.2z"/>
		<path class="st1" d="M116.2,147.5c-0.5,0.5-1.2,0.8-2,1.1c-0.8,0.2-1.6,0.4-2.5,0.4c-2.1,0-3.7-0.6-4.8-1.7
			c-1.1-1.1-1.7-2.7-1.7-4.8v-11.3h-3.5v-3.1h3.5v-4.5h3.7v4.5h5.9v3.1h-5.9v11.1c0,1.1,0.3,2,0.8,2.6c0.6,0.6,1.3,0.9,2.4,0.9
			c1.1,0,2.1-0.3,2.9-1L116.2,147.5z"/>
		<path class="st1" d="M126.3,128.9c1.3-0.6,2.8-0.9,4.6-0.9v3.6c-0.2,0-0.5,0-0.9,0c-2,0-3.6,0.6-4.7,1.8c-1.1,1.2-1.7,2.9-1.7,5.1
			v10.2h-3.7v-20.5h3.6v3.4C124.1,130.5,125,129.6,126.3,128.9z"/>
		<path class="st1" d="M154.1,128.2v20.5h-3.5v-3.1c-0.7,1.1-1.7,1.9-3,2.5c-1.2,0.6-2.6,0.9-4,0.9c-2.7,0-4.9-0.8-6.5-2.3
			c-1.6-1.5-2.4-3.7-2.4-6.7v-11.8h3.7v11.4c0,2,0.5,3.5,1.4,4.5c1,1,2.3,1.5,4.1,1.5c2,0,3.5-0.6,4.6-1.8c1.1-1.2,1.7-2.9,1.7-5
			v-10.6H154.1z"/>
		<path class="st1" d="M163.7,147.6c-1.6-0.9-2.9-2.1-3.8-3.7c-0.9-1.6-1.4-3.4-1.4-5.4c0-2,0.5-3.8,1.4-5.4
			c0.9-1.6,2.2-2.8,3.8-3.7c1.6-0.9,3.5-1.3,5.6-1.3c1.9,0,3.5,0.4,5,1.1c1.5,0.7,2.6,1.8,3.4,3.2l-2.8,1.8c-0.6-1-1.4-1.7-2.4-2.2
			c-1-0.5-2-0.7-3.2-0.7c-1.3,0-2.5,0.3-3.6,0.9c-1.1,0.6-1.9,1.4-2.5,2.5c-0.6,1.1-0.9,2.4-0.9,3.8c0,1.4,0.3,2.7,0.9,3.8
			c0.6,1.1,1.4,1.9,2.5,2.5c1.1,0.6,2.3,0.9,3.6,0.9c1.2,0,2.2-0.2,3.2-0.7c1-0.5,1.8-1.2,2.4-2.2l2.8,1.8c-0.8,1.4-1.9,2.5-3.4,3.3
			c-1.5,0.8-3.1,1.1-5,1.1C167.2,148.9,165.3,148.5,163.7,147.6z"/>
		<path class="st1" d="M193.5,147.5c-0.5,0.5-1.2,0.8-2,1.1s-1.6,0.4-2.5,0.4c-2.1,0-3.7-0.6-4.8-1.7c-1.1-1.1-1.7-2.7-1.7-4.8
			v-11.3H179v-3.1h3.5v-4.5h3.7v4.5h5.9v3.1h-5.9v11.1c0,1.1,0.3,2,0.8,2.6c0.6,0.6,1.3,0.9,2.4,0.9c1.1,0,2.1-0.3,2.9-1
			L193.5,147.5z"/>
		<path class="st1" d="M199.8,147.6c-1.6-0.9-2.9-2.1-3.8-3.7c-0.9-1.6-1.4-3.4-1.4-5.4c0-2,0.5-3.8,1.4-5.4
			c0.9-1.6,2.2-2.8,3.8-3.7c1.6-0.9,3.5-1.3,5.5-1.3c2,0,3.9,0.4,5.5,1.3c1.6,0.9,2.9,2.1,3.8,3.7c0.9,1.6,1.4,3.4,1.4,5.4
			c0,2-0.5,3.8-1.4,5.4c-0.9,1.6-2.2,2.8-3.8,3.7c-1.6,0.9-3.4,1.4-5.5,1.4C203.2,148.9,201.4,148.5,199.8,147.6z M208.8,144.8
			c1-0.6,1.9-1.5,2.5-2.6c0.6-1.1,0.9-2.4,0.9-3.8c0-1.4-0.3-2.7-0.9-3.8c-0.6-1.1-1.4-1.9-2.5-2.5c-1-0.6-2.2-0.9-3.5-0.9
			c-1.3,0-2.5,0.3-3.5,0.9c-1,0.6-1.9,1.4-2.5,2.5c-0.6,1.1-0.9,2.4-0.9,3.8c0,1.4,0.3,2.7,0.9,3.8c0.6,1.1,1.4,1.9,2.5,2.6
			c1,0.6,2.2,0.9,3.5,0.9C206.6,145.7,207.7,145.4,208.8,144.8z"/>
		<path class="st1" d="M226.7,128.9c1.3-0.6,2.8-0.9,4.6-0.9v3.6c-0.2,0-0.5,0-0.9,0c-2,0-3.6,0.6-4.7,1.8c-1.1,1.2-1.7,2.9-1.7,5.1
			v10.2h-3.7v-20.5h3.6v3.4C224.4,130.5,225.4,129.6,226.7,128.9z"/>
	</g>
</g>
</svg>
