<?xml version="1.0" encoding="utf-8"?>
<!-- Generator: Adobe Illustrator 23.1.1, SVG Export Plug-In . SVG Version: 6.00 Build 0)  -->
<svg version="1.1" id="Capa_1" xmlns="http://www.w3.org/2000/svg" xmlns:xlink="http://www.w3.org/1999/xlink" x="0px" y="0px"
	 viewBox="0 0 200 140" style="enable-background:new 0 0 200 140;" xml:space="preserve">
<style type="text/css">
	.st0{clip-path:url(#SVGID_2_);fill:#1A3D82;}
	.st1{clip-path:url(#SVGID_2_);fill:#0059FF;}
	.st2{clip-path:url(#SVGID_2_);fill:#0345BA;}
</style>
<g>
	<defs>
		<rect id="SVGID_1_" x="9" y="9" width="183" height="120.5"/>
	</defs>
	<clipPath id="SVGID_2_">
		<use xlink:href="#SVGID_1_"  style="overflow:visible;"/>
	</clipPath>
	<path class="st0" d="M77.2,29c2.7,0,5.3,0.4,7.7,1.2c1.2-6.7,7.1-11.7,14.2-11.7c7,0,12.8,4.9,14.1,11.4c1-0.3,2-0.5,3.1-0.6
		c1.3-0.2,2.7-0.3,4-0.3c0.9,0,1.8,0.1,2.6,0.1C121.2,17.7,111.1,9,99.1,9C87,9,77,17.7,75.3,29.1C75.9,29,76.5,29,77.2,29"/>
	<path class="st1" d="M125.3,62.2c-1.1,0.6-2.4,1-3.7,1.2c-0.3,0-1.3,0.1-2.2,0.2l-20.8,0c1.9-2.1,3.6-4.7,5.2-7.8
		c0.3-0.7,0.7-1.4,1-2.1c5-11.4,11.7-12.8,13-13l0.2,0c0.7-0.1,1.3-0.2,2-0.2c2.1,0,4.1,0.6,5.8,1.5c3.5,2,5.9,5.7,5.9,10
		c0,3.2-1.3,6.1-3.5,8.2C127.2,60.9,126.3,61.6,125.3,62.2 M66.6,52.1c0-6.3,5.2-11.5,11.7-11.5c4.1,0,7.8,2.1,9.9,5.3
		c1.2,1.8,1.8,3.9,1.8,6.2c0,5.7-4.2,10.4-9.7,11.3c-0.6,0.1-1.3,0.2-2,0.2c0,0,0,0,0,0c-2,0-3.8-0.5-5.5-1.3
		C69.1,60.3,66.6,56.5,66.6,52.1 M134,36.2c-3.8-3.3-8.7-5.2-14.1-5.2c-1.2,0-2.3,0.1-3.5,0.3c-1.5,0.2-4.3,0.8-7.6,2.7
		c-1,0.5-2.1,1.3-3.3,2.3c-2.7,2.2-5.1,5.1-7.1,8.5c-1.2-3.1-3.1-5.9-5.5-8.1c-3.8-3.5-9-5.7-14.6-5.7c-11.8,0-21.4,9.4-21.4,21
		s9.6,21,21.4,21c0.5,0,1.1,0,1.6-0.1l24.7,0l15.1,0l0.2,0c0.9-0.1,2.4-0.2,3-0.3c10.5-1.4,18.4-10.4,18.4-20.8
		C141.3,45.7,138.5,40.1,134,36.2"/>
	<path class="st2" d="M88.2,45.9c1.2,1.8,1.8,3.9,1.8,6.2c0,5.7-4.2,10.4-9.7,11.3l0.7,0c3.1-0.6,10.2-3.1,14.8-13.4
		c0.8-1.8,1.7-3.5,2.6-5c-1.2-3.1-3.1-5.9-5.5-8.1c-1,1.7-1.9,3.4-2.8,5.4C89.5,43.5,88.9,44.8,88.2,45.9"/>
	<path class="st0" d="M31.2,105.7c2,1.9,3,4.7,3,8.4v15h-4.8v-14.5c0-2.5-0.6-4.4-1.9-5.7c-1.2-1.3-3-1.9-5.3-1.9
		c-2.6,0-4.7,0.7-6.2,2.2c-1.5,1.5-2.3,3.6-2.3,6.4v13.4H9v-26h4.6v3.9c1-1.3,2.3-2.4,3.9-3.1c1.7-0.7,3.5-1.1,5.6-1.1
		C26.5,102.9,29.2,103.8,31.2,105.7"/>
	<path class="st0" d="M42.1,103.1h4.8v26h-4.8V103.1z M42.1,97.2c-0.6-0.6-0.9-1.3-0.9-2.2c0-0.9,0.3-1.6,0.9-2.2
		c0.6-0.6,1.4-0.9,2.3-0.9c0.9,0,1.7,0.3,2.3,0.9c0.6,0.6,0.9,1.3,0.9,2.1c0,0.9-0.3,1.6-0.9,2.2c-0.6,0.6-1.4,0.9-2.3,0.9
		C43.5,98.1,42.8,97.8,42.1,97.2"/>
	<path class="st0" d="M96.1,105.7c2,1.9,2.9,4.7,2.9,8.5v15h-4.8v-14.4c0-2.5-0.6-4.4-1.8-5.7c-1.2-1.3-2.9-1.9-5.1-1.9
		c-2.4,0-4.4,0.7-5.8,2.2s-2.2,3.6-2.2,6.4v13.4h-4.8v-14.4c0-2.5-0.6-4.4-1.8-5.7c-1.2-1.3-2.9-1.9-5.1-1.9c-2.4,0-4.4,0.7-5.8,2.2
		c-1.4,1.5-2.2,3.6-2.2,6.4v13.4H55v-26h4.6v3.9c1-1.3,2.2-2.4,3.8-3.1c1.6-0.7,3.4-1.1,5.4-1.1c2.1,0,3.9,0.4,5.5,1.2
		c1.6,0.8,2.8,2,3.7,3.6c1-1.5,2.4-2.7,4.2-3.5c1.8-0.9,3.8-1.3,6-1.3C91.5,102.9,94.2,103.8,96.1,105.7"/>
	<path class="st0" d="M125.2,124.2c1.3-0.8,2.4-1.9,3.2-3.2c0.8-1.4,1.2-3,1.2-4.8c0-1.8-0.4-3.4-1.2-4.8c-0.8-1.4-1.9-2.5-3.2-3.2
		c-1.4-0.8-2.9-1.1-4.6-1.1c-1.7,0-3.2,0.4-4.6,1.1c-1.4,0.8-2.4,1.8-3.2,3.2c-0.8,1.4-1.2,3-1.2,4.8c0,1.8,0.4,3.4,1.2,4.8
		c0.8,1.4,1.8,2.5,3.2,3.2c1.4,0.8,2.9,1.2,4.6,1.2C122.3,125.3,123.8,124.9,125.2,124.2 M127.9,104.5c2,1.1,3.6,2.7,4.8,4.7
		c1.2,2,1.7,4.3,1.7,6.9c0,2.6-0.6,4.9-1.7,7c-1.2,2-2.7,3.6-4.8,4.7c-2,1.1-4.3,1.7-6.9,1.7c-2,0-3.8-0.4-5.4-1.1
		c-1.6-0.8-3-1.9-4.1-3.3v4.1h-4.6V92.7h4.8V107c1.1-1.4,2.4-2.4,4-3.1c1.6-0.7,3.4-1.1,5.3-1.1
		C123.5,102.9,125.8,103.4,127.9,104.5"/>
	<path class="st0" d="M164.7,103.1v26h-4.6v-3.9c-1,1.3-2.2,2.4-3.8,3.1c-1.6,0.7-3.3,1.1-5.2,1.1c-3.5,0-6.3-1-8.4-2.9
		c-2-1.9-3.1-4.7-3.1-8.5v-15h4.8v14.4c0,2.5,0.6,4.4,1.9,5.7c1.2,1.3,3,1.9,5.3,1.9c2.5,0,4.5-0.8,6-2.3c1.5-1.5,2.2-3.6,2.2-6.4
		v-13.5H164.7z"/>
	<path class="st0" d="M174.3,128.6c-2-0.6-3.6-1.3-4.7-2.2l2-3.7c1.2,0.8,2.6,1.5,4.3,2c1.7,0.5,3.4,0.7,5.1,0.7
		c4.2,0,6.3-1.2,6.3-3.5c0-0.8-0.3-1.4-0.9-1.9c-0.6-0.5-1.3-0.8-2.1-1c-0.9-0.2-2.1-0.4-3.6-0.7c-2.1-0.3-3.9-0.7-5.2-1.1
		c-1.4-0.4-2.5-1.1-3.5-2.2c-1-1-1.5-2.4-1.5-4.3c0-2.4,1-4.3,3-5.7c2-1.4,4.7-2.1,8.1-2.1c1.8,0,3.5,0.2,5.3,0.6
		c1.8,0.4,3.2,1,4.4,1.7l-2.1,3.7c-2.2-1.4-4.7-2.1-7.7-2.1c-2,0-3.6,0.3-4.7,1c-1.1,0.7-1.6,1.5-1.6,2.6c0,0.9,0.3,1.5,0.9,2
		c0.6,0.5,1.3,0.9,2.2,1.1c0.9,0.2,2.1,0.5,3.7,0.8c2.1,0.4,3.9,0.7,5.2,1.2c1.3,0.4,2.4,1.1,3.4,2.1c0.9,1,1.4,2.4,1.4,4.1
		c0,2.4-1,4.2-3.1,5.6c-2.1,1.4-4.8,2.1-8.4,2.1C178.3,129.5,176.3,129.2,174.3,128.6"/>
</g>
</svg>
