<svg id="Capa_1" data-name="Capa 1" xmlns="http://www.w3.org/2000/svg" viewBox="0 0 99 50"><defs><style>.cls-1{fill:#687c99;}.cls-2{fill:#1a3d82;}</style></defs><title>2</title><path class="cls-1" d="M10.39,40.18a5.1,5.1,0,0,1-2-1.9,5.5,5.5,0,0,1,0-5.46,5.1,5.1,0,0,1,2-1.9,5.92,5.92,0,0,1,2.83-.68,5.82,5.82,0,0,1,2.32.44A4.64,4.64,0,0,1,17.32,32l-1.24,1.17a3.61,3.61,0,0,0-2.76-1.21,4,4,0,0,0-1.91.46,3.41,3.41,0,0,0-1.31,1.3,3.63,3.63,0,0,0-.47,1.87,3.67,3.67,0,0,0,.47,1.88,3.32,3.32,0,0,0,1.31,1.29,3.88,3.88,0,0,0,1.91.46A3.59,3.59,0,0,0,16.08,38l1.24,1.18a4.67,4.67,0,0,1-1.78,1.28,5.87,5.87,0,0,1-2.33.45A5.77,5.77,0,0,1,10.39,40.18Z"/><path class="cls-1" d="M19.49,40.31A3.85,3.85,0,0,1,18,38.87a4.07,4.07,0,0,1-.54-2.09A4,4,0,0,1,18,34.7a3.85,3.85,0,0,1,1.5-1.44,4.85,4.85,0,0,1,4.33,0,3.76,3.76,0,0,1,1.49,1.44,4,4,0,0,1,.54,2.08,4.07,4.07,0,0,1-.54,2.09,3.76,3.76,0,0,1-1.49,1.44,4.85,4.85,0,0,1-4.33,0Zm3.84-1.75a2.74,2.74,0,0,0,0-3.57A2.42,2.42,0,0,0,20,35a2.74,2.74,0,0,0,0,3.57,2.42,2.42,0,0,0,3.36,0Z"/><path class="cls-1" d="M33.9,33.62a3.43,3.43,0,0,1,.9,2.58v4.52H33V36.44a2.24,2.24,0,0,0-.49-1.56,1.81,1.81,0,0,0-1.39-.52,2.12,2.12,0,0,0-1.61.61,2.46,2.46,0,0,0-.59,1.76v4H27V32.84h1.76v1A2.89,2.89,0,0,1,29.94,33a4.14,4.14,0,0,1,1.57-.28A3.3,3.3,0,0,1,33.9,33.62Z"/><path class="cls-1" d="M37.12,40.57a4.63,4.63,0,0,1-1.46-.63l.71-1.4a4.64,4.64,0,0,0,1.27.56,5.09,5.09,0,0,0,1.47.22c1.1,0,1.66-.29,1.66-.87a.58.58,0,0,0-.42-.58A7.59,7.59,0,0,0,39,37.56a10.8,10.8,0,0,1-1.58-.34,2.46,2.46,0,0,1-1.07-.67,1.89,1.89,0,0,1-.45-1.34,2.11,2.11,0,0,1,.94-1.79,4.26,4.26,0,0,1,2.53-.67,7.54,7.54,0,0,1,1.63.18,4.46,4.46,0,0,1,1.33.5l-.71,1.4a4.31,4.31,0,0,0-2.26-.59,2.53,2.53,0,0,0-1.23.24.71.71,0,0,0-.42.64.63.63,0,0,0,.45.63,7.19,7.19,0,0,0,1.39.35,10.58,10.58,0,0,1,1.55.34,2.42,2.42,0,0,1,1,.65,1.81,1.81,0,0,1,.44,1.3,2,2,0,0,1-1,1.77,4.56,4.56,0,0,1-2.62.66A6.91,6.91,0,0,1,37.12,40.57Z"/><path class="cls-1" d="M48.31,40.29a2.18,2.18,0,0,1-.79.4,3.51,3.51,0,0,1-1,.13,2.75,2.75,0,0,1-2-.68,2.61,2.61,0,0,1-.71-2v-3.8h-1.3V32.89h1.3v-1.8h1.85v1.8h2.11v1.48H45.67v3.75A1.22,1.22,0,0,0,46,39a1.06,1.06,0,0,0,.81.3,1.64,1.64,0,0,0,1-.32Z"/><path class="cls-1" d="M53.8,32.75V34.5a2.19,2.19,0,0,0-.42,0,2.25,2.25,0,0,0-1.69.63,2.52,2.52,0,0,0-.6,1.81v3.82H49.24V32.84H51V34A3.07,3.07,0,0,1,53.8,32.75Z"/><path class="cls-1" d="M62.49,32.84v7.88H60.73v-1a3.15,3.15,0,0,1-1.11.82,3.58,3.58,0,0,1-1.43.28A3.47,3.47,0,0,1,55.7,40a3.51,3.51,0,0,1-.91-2.61v-4.5h1.85v4.25a2.25,2.25,0,0,0,.48,1.58,1.75,1.75,0,0,0,1.36.53,2.08,2.08,0,0,0,1.58-.61,2.47,2.47,0,0,0,.58-1.77v-4Z"/><path class="cls-1" d="M65.73,40.31a3.9,3.9,0,0,1-1.52-1.44,4.07,4.07,0,0,1-.54-2.09,4,4,0,0,1,.54-2.08,3.9,3.9,0,0,1,1.52-1.44,4.64,4.64,0,0,1,2.2-.51,4.22,4.22,0,0,1,2,.47,3,3,0,0,1,1.32,1.36l-1.42.82a2.2,2.2,0,0,0-.85-.81,2.23,2.23,0,0,0-1.11-.28,2.35,2.35,0,0,0-1.71.67,2.72,2.72,0,0,0,0,3.59A2.49,2.49,0,0,0,69,39a2.15,2.15,0,0,0,.85-.82L71.3,39A3.14,3.14,0,0,1,70,40.34a4.14,4.14,0,0,1-2,.48A4.69,4.69,0,0,1,65.73,40.31Z"/><path class="cls-1" d="M77.15,40.29a2.18,2.18,0,0,1-.79.4,3.51,3.51,0,0,1-1,.13,2.75,2.75,0,0,1-2-.68,2.61,2.61,0,0,1-.71-2v-3.8h-1.3V32.89h1.3v-1.8H74.5v1.8h2.12v1.48H74.5v3.75a1.23,1.23,0,0,0,.29.88,1,1,0,0,0,.81.3,1.64,1.64,0,0,0,1-.32Z"/><path class="cls-1" d="M79.2,40.31a3.85,3.85,0,0,1-1.5-1.44,4.07,4.07,0,0,1-.54-2.09,4,4,0,0,1,.54-2.08,3.85,3.85,0,0,1,1.5-1.44,4.85,4.85,0,0,1,4.33,0A3.85,3.85,0,0,1,85,34.7a4.1,4.1,0,0,1,.53,2.08A4.16,4.16,0,0,1,85,38.87a3.85,3.85,0,0,1-1.5,1.44,4.85,4.85,0,0,1-4.33,0ZM83,38.56A2.74,2.74,0,0,0,83,35a2.42,2.42,0,0,0-3.36,0,2.74,2.74,0,0,0,0,3.57,2.42,2.42,0,0,0,3.36,0Z"/><path class="cls-1" d="M91.31,32.75V34.5a2.29,2.29,0,0,0-.43,0,2.21,2.21,0,0,0-1.68.63,2.48,2.48,0,0,0-.61,1.81v3.82H86.75V32.84H88.5V34A3.07,3.07,0,0,1,91.31,32.75Z"/><path class="cls-2" d="M17.16,15.45a5.21,5.21,0,0,1,1.34,3.87v6.87H16.34V19.57A3.67,3.67,0,0,0,15.5,17a3.14,3.14,0,0,0-2.38-.88,3.75,3.75,0,0,0-2.78,1,4,4,0,0,0-1,2.94v6.15H7.17V14.25H9.24v1.8A4.1,4.1,0,0,1,11,14.63a6.17,6.17,0,0,1,2.53-.49A4.92,4.92,0,0,1,17.16,15.45Z"/><path class="cls-2" d="M22.55,11.54a1.32,1.32,0,0,1-.42-1,1.36,1.36,0,0,1,.42-1,1.39,1.39,0,0,1,1-.42,1.43,1.43,0,0,1,1.05.4,1.29,1.29,0,0,1,.42,1,1.39,1.39,0,0,1-.42,1,1.52,1.52,0,0,1-2.09,0Zm0,2.71h2.17V26.19H22.51Z"/><path class="cls-2" d="M47.31,15.44a5.24,5.24,0,0,1,1.32,3.88v6.87H46.47V19.57a3.8,3.8,0,0,0-.8-2.62,3,3,0,0,0-2.29-.88,3.42,3.42,0,0,0-2.61,1,4.09,4.09,0,0,0-1,2.94v6.15H37.63V19.57a3.75,3.75,0,0,0-.8-2.62,2.94,2.94,0,0,0-2.28-.88,3.46,3.46,0,0,0-2.62,1A4.13,4.13,0,0,0,31,20v6.15H28.8V14.25h2.07V16a4.17,4.17,0,0,1,1.72-1.41A5.76,5.76,0,0,1,35,14.14a5.24,5.24,0,0,1,2.48.56,3.94,3.94,0,0,1,1.67,1.64A4.53,4.53,0,0,1,41,14.72a6.12,6.12,0,0,1,2.71-.58A4.84,4.84,0,0,1,47.31,15.44Z"/><path class="cls-2" d="M62.06,14.9A5.55,5.55,0,0,1,64.22,17,6.45,6.45,0,0,1,65,20.22a6.52,6.52,0,0,1-.77,3.19,5.51,5.51,0,0,1-2.16,2.15,6.26,6.26,0,0,1-3.11.77,5.61,5.61,0,0,1-2.43-.52,4.79,4.79,0,0,1-1.83-1.51v1.89H52.62V9.47h2.16v6.58a4.67,4.67,0,0,1,1.81-1.43A5.76,5.76,0,0,1,59,14.14,6.26,6.26,0,0,1,62.06,14.9Zm-1.22,9a3.8,3.8,0,0,0,1.44-1.48,4.83,4.83,0,0,0,0-4.4,3.71,3.71,0,0,0-1.44-1.47,4.34,4.34,0,0,0-4.12,0A3.64,3.64,0,0,0,55.28,18a4.91,4.91,0,0,0,0,4.4,3.73,3.73,0,0,0,1.44,1.48,4.27,4.27,0,0,0,4.12,0Z"/><path class="cls-2" d="M79.12,14.25V26.19H77.07v-1.8a4.3,4.3,0,0,1-1.72,1.43,5.33,5.33,0,0,1-2.33.51A5.22,5.22,0,0,1,69.25,25a5.18,5.18,0,0,1-1.37-3.89V14.25H70v6.62a3.69,3.69,0,0,0,.84,2.63,3.11,3.11,0,0,0,2.38.89,3.57,3.57,0,0,0,2.71-1,4.06,4.06,0,0,0,1-2.93V14.25Z"/><path class="cls-2" d="M83.86,25.93a6,6,0,0,1-2.12-1l.9-1.71a6.58,6.58,0,0,0,1.92.9,8,8,0,0,0,2.27.34c1.89,0,2.84-.54,2.84-1.63a1.05,1.05,0,0,0-.38-.85,2.39,2.39,0,0,0-1-.46c-.38-.1-.93-.21-1.63-.33a15.27,15.27,0,0,1-2.36-.52,3.57,3.57,0,0,1-1.57-1,2.79,2.79,0,0,1-.65-2,3.06,3.06,0,0,1,1.35-2.6,6,6,0,0,1,3.63-1,9.77,9.77,0,0,1,2.39.29,6.26,6.26,0,0,1,2,.79l-.92,1.71A6.24,6.24,0,0,0,87.08,16a4,4,0,0,0-2.1.45,1.36,1.36,0,0,0-.72,1.2,1.13,1.13,0,0,0,.41.92,2.54,2.54,0,0,0,1,.5q.6.15,1.68.36a16.91,16.91,0,0,1,2.33.53,3.47,3.47,0,0,1,1.52,1,2.66,2.66,0,0,1,.63,1.89,3,3,0,0,1-1.38,2.58,6.55,6.55,0,0,1-3.78,1A9.74,9.74,0,0,1,83.86,25.93Z"/></svg>