<?xml version="1.0" encoding="utf-8"?>
<!-- Generator: Adobe Illustrator 23.1.1, SVG Export Plug-In . SVG Version: 6.00 Build 0)  -->
<svg version="1.1" id="Capa_1" xmlns="http://www.w3.org/2000/svg" xmlns:xlink="http://www.w3.org/1999/xlink" x="0px" y="0px"
	 viewBox="0 0 200 140" style="enable-background:new 0 0 200 140;" xml:space="preserve">
<style type="text/css">
	.st0{fill:#1A3D82;}
	.st1{fill:#687C99;}
	.st2{fill:url(#SVGID_1_);}
	.st3{opacity:0.25;fill:#072038;}
</style>
<g>
	<path class="st0" d="M42.5,83c1.6,1.6,2.5,4,2.5,7.1v12.7h-4V90.6c0-2.1-0.5-3.7-1.5-4.8c-1-1.1-2.5-1.6-4.4-1.6
		c-2.2,0-3.9,0.6-5.1,1.9s-1.9,3.1-1.9,5.4v11.3h-4v-22h3.8v3.3c0.8-1.1,1.9-2,3.3-2.6c1.4-0.6,2.9-0.9,4.7-0.9
		C38.6,80.6,40.8,81.4,42.5,83z"/>
	<path class="st0" d="M51.6,75.8c-0.5-0.5-0.8-1.1-0.8-1.8s0.3-1.3,0.8-1.8s1.2-0.8,1.9-0.8c0.8,0,1.4,0.2,1.9,0.7s0.8,1.1,0.8,1.8
		c0,0.7-0.3,1.4-0.8,1.9s-1.2,0.8-1.9,0.8C52.7,76.6,52.1,76.3,51.6,75.8z M51.5,80.8h4v22h-4V80.8z"/>
	<path class="st0" d="M96.4,83c1.6,1.6,2.4,4,2.4,7.1v12.7h-4V90.6c0-2.1-0.5-3.7-1.5-4.8c-1-1.1-2.4-1.6-4.2-1.6
		c-2,0-3.6,0.6-4.8,1.9c-1.2,1.3-1.8,3.1-1.8,5.4v11.3h-4V90.6c0-2.1-0.5-3.7-1.5-4.8c-1-1.1-2.4-1.6-4.2-1.6c-2,0-3.6,0.6-4.8,1.9
		c-1.2,1.3-1.8,3.1-1.8,5.4v11.3h-4v-22H66v3.3c0.8-1.1,1.9-2,3.2-2.6c1.3-0.6,2.8-0.9,4.4-0.9c1.7,0,3.2,0.3,4.6,1
		c1.3,0.7,2.4,1.7,3.1,3c0.8-1.3,2-2.3,3.5-3s3.1-1.1,5-1.1C92.6,80.6,94.8,81.4,96.4,83z"/>
	<path class="st0" d="M122.7,82c1.7,0.9,3,2.3,4,3.9c1,1.7,1.4,3.6,1.4,5.9c0,2.2-0.5,4.2-1.4,5.9c-1,1.7-2.3,3-4,4
		c-1.7,0.9-3.6,1.4-5.7,1.4c-1.6,0-3.1-0.3-4.5-1c-1.4-0.6-2.5-1.6-3.4-2.8v3.5h-3.8V72h4v12.1c0.9-1.2,2-2,3.3-2.6s2.8-0.9,4.4-0.9
		C119.1,80.6,121.1,81.1,122.7,82z M120.5,98.6c1.1-0.7,2-1.6,2.7-2.7c0.7-1.2,1-2.5,1-4s-0.3-2.9-1-4.1s-1.5-2.1-2.7-2.7
		c-1.1-0.6-2.4-1-3.8-1s-2.6,0.3-3.8,1c-1.1,0.6-2,1.5-2.7,2.7c-0.6,1.2-1,2.5-1,4.1c0,1.5,0.3,2.9,1,4c0.6,1.2,1.5,2.1,2.7,2.7
		s2.4,1,3.8,1S119.4,99.2,120.5,98.6z"/>
	<path class="st0" d="M153.4,80.8v22h-3.8v-3.3c-0.8,1.1-1.9,2-3.2,2.6s-2.7,0.9-4.3,0.9c-2.9,0-5.2-0.8-6.9-2.4s-2.5-4-2.5-7.2
		V80.8h4V93c0,2.1,0.5,3.7,1.5,4.8c1,1.1,2.5,1.6,4.4,1.6c2.1,0,3.8-0.6,5-1.9s1.8-3.1,1.8-5.4V80.8H153.4z"/>
	<path class="st0" d="M161.2,102.3c-1.7-0.5-3-1.1-3.9-1.8l1.7-3.2c1,0.7,2.1,1.2,3.5,1.7c1.4,0.4,2.8,0.6,4.2,0.6
		c3.5,0,5.2-1,5.2-3c0-0.7-0.2-1.2-0.7-1.6s-1.1-0.7-1.8-0.9c-0.7-0.2-1.7-0.4-3-0.6c-1.8-0.3-3.2-0.6-4.3-1s-2.1-1-2.9-1.8
		c-0.8-0.9-1.2-2.1-1.2-3.6c0-2,0.8-3.6,2.5-4.8c1.7-1.2,3.9-1.8,6.7-1.8c1.5,0,2.9,0.2,4.4,0.5s2.7,0.8,3.6,1.5l-1.7,3.2
		c-1.8-1.2-3.9-1.7-6.4-1.7c-1.7,0-3,0.3-3.9,0.8c-0.9,0.6-1.3,1.3-1.3,2.2c0,0.7,0.2,1.3,0.7,1.7c0.5,0.4,1.1,0.7,1.8,0.9
		c0.7,0.2,1.8,0.4,3.1,0.7c1.8,0.3,3.2,0.6,4.3,1c1.1,0.3,2,0.9,2.8,1.8c0.8,0.8,1.2,2,1.2,3.5c0,2-0.9,3.6-2.6,4.8
		c-1.7,1.2-4,1.8-7,1.8C164.6,103.1,162.9,102.8,161.2,102.3z"/>
</g>
<g>
	<polygon class="st1" points="94.6,122.9 106.7,122.9 106.7,119.9 94.6,119.9 94.6,112.4 108.2,112.4 108.2,109.4 91.1,109.4 
		91.1,133.7 108.7,133.7 108.7,130.7 94.6,130.7 	"/>
	<path class="st1" d="M135.3,115.2c-1.1-1.8-2.6-3.3-4.6-4.3s-4.3-1.5-6.8-1.5h-10.2v24.3h10.2c2.6,0,4.8-0.5,6.8-1.5
		s3.5-2.4,4.6-4.3s1.6-4,1.6-6.3C137,119.2,136.4,117.1,135.3,115.2z M132.3,126.3c-0.8,1.4-2,2.4-3.5,3.2s-3.2,1.1-5.2,1.1H117
		v-18.3h6.6c2,0,3.7,0.4,5.2,1.1c1.5,0.8,2.6,1.8,3.5,3.2c0.8,1.4,1.2,3,1.2,4.8C133.5,123.4,133.1,125,132.3,126.3z"/>
	<path class="st1" d="M71.2,113.4c1.5-0.8,3.1-1.2,5-1.2c2.8,0,5.1,0.9,7,2.8l2.2-2.2c-1.1-1.2-2.5-2.2-4-2.8c-1.6-0.6-3.3-1-5.3-1
		c-2.5,0-4.7,0.5-6.7,1.6s-3.5,2.5-4.7,4.4c-1.1,1.9-1.7,4-1.7,6.4s0.6,4.5,1.7,6.4c1.1,1.9,2.7,3.4,4.6,4.4c2,1.1,4.2,1.6,6.6,1.6
		c1.7,0,3.4-0.3,5-0.8s3-1.3,4.2-2.3v-9.5h-3.3l0,0h-4.4v2.9h4.4v5c-1.6,1-3.5,1.6-5.7,1.6c-1.8,0-3.5-0.4-4.9-1.2
		c-1.5-0.8-2.6-1.9-3.5-3.3c-0.8-1.4-1.2-3-1.2-4.8s0.4-3.4,1.2-4.8C68.6,115.3,69.7,114.2,71.2,113.4z"/>
</g>
<g>
	<g>
		<path class="st0" d="M81.4,21c2.3,0,4.5,0.4,6.6,1.1c1-5.7,6-10.1,12-10.1c5.9,0,10.8,4.2,12,9.8c0.8-0.2,1.7-0.4,2.6-0.5
			c1.1-0.2,2.3-0.3,3.4-0.3c0.8,0,1.5,0,2.2,0.1c-1.5-9.8-10-17.3-20.2-17.3c-10.2,0-18.7,7.5-20.2,17.3C80.4,21,80.9,21,81.4,21z"
			/>
	</g>
	<linearGradient id="SVGID_1_" gradientUnits="userSpaceOnUse" x1="133.4772" y1="42.1003" x2="83.5565" y2="40.1803">
		<stop  offset="0" style="stop-color:#18C7FB"/>
		<stop  offset="0.9995" style="stop-color:#1292E4"/>
	</linearGradient>
	<path class="st2" d="M129.5,27.2c-3.2-2.8-7.4-4.5-11.9-4.5c-1,0-2,0.1-3,0.2c-1.3,0.2-3.7,0.7-6.4,2.4c-0.8,0.4-1.8,1.1-2.8,2
		c-2.3,1.9-4.3,4.4-6,7.3c-1-2.7-2.6-5.1-4.6-7c-3.2-3-7.6-4.9-12.4-4.9c-10,0-18.1,8.1-18.1,18.1s8.1,18.1,18.1,18.1
		c0.5,0,0.9,0,1.3-0.1l20.9,0l12.8,0l0.2,0c0.7-0.1,2-0.2,2.5-0.2c8.9-1.2,15.6-8.9,15.6-17.9C135.7,35.4,133.3,30.5,129.5,27.2z
		 M72.5,40.8c0-5.5,4.4-9.9,9.9-9.9c3.5,0,6.6,1.8,8.4,4.6c1,1.5,1.5,3.4,1.5,5.3c0,4.9-3.5,8.9-8.2,9.7c-0.5,0.1-1.1,0.1-1.7,0.1
		c0,0,0,0,0,0c-1.7,0-3.2-0.4-4.6-1.2C74.6,47.9,72.5,44.6,72.5,40.8z M122.2,49.6c-1,0.5-2,0.9-3.2,1c-0.2,0-1.1,0.1-1.9,0.2
		l-17.6,0c1.6-1.8,3.1-4,4.4-6.7c0.3-0.6,0.6-1.2,0.8-1.8c4.2-9.8,9.9-11,11-11.2l0.2,0c0.6-0.1,1.1-0.1,1.7-0.1
		c1.8,0,3.5,0.5,4.9,1.3c3,1.7,5,4.9,5,8.6c0,2.7-1.1,5.2-3,7C123.8,48.5,123,49.1,122.2,49.6z"/>
	<path class="st3" d="M90.7,35.5c1,1.5,1.5,3.4,1.5,5.3c0,4.9-3.5,8.9-8.2,9.7l0.6,0c2.6-0.5,8.7-2.7,12.5-11.6
		c0.7-1.5,1.4-3,2.2-4.3c-1-2.7-2.6-5.1-4.6-7c-0.9,1.4-1.6,3-2.4,4.6C91.9,33.5,91.3,34.6,90.7,35.5z"/>
</g>
</svg>
