<?xml version="1.0" encoding="utf-8"?>
<!-- Generator: Adobe Illustrator 23.1.1, SVG Export Plug-In . SVG Version: 6.00 Build 0)  -->
<svg version="1.1" id="Capa_1" xmlns="http://www.w3.org/2000/svg" xmlns:xlink="http://www.w3.org/1999/xlink" x="0px" y="0px"
	 viewBox="0 0 250 90" style="enable-background:new 0 0 250 90;" xml:space="preserve">
<style type="text/css">
	.st0{clip-path:url(#SVGID_2_);fill:#1A3D82;}
	.st1{clip-path:url(#SVGID_2_);fill:#0059FF;}
</style>
<g>
	<defs>
		<rect id="SVGID_1_" x="6" y="11.62" width="238" height="66.77"/>
	</defs>
	<clipPath id="SVGID_2_">
		<use xlink:href="#SVGID_1_"  style="overflow:visible;"/>
	</clipPath>
	<path class="st0" d="M110.65,71.51c-1.41-0.77-2.51-1.84-3.31-3.19c-0.8-1.36-1.2-2.88-1.2-4.58c0-1.7,0.4-3.22,1.2-4.58
		c0.8-1.36,1.91-2.42,3.32-3.19c1.42-0.77,3-1.16,4.75-1.16c1.37,0,2.62,0.23,3.75,0.69c1.13,0.46,2.1,1.14,2.9,2.03l-1.62,1.57
		c-1.32-1.38-2.96-2.07-4.92-2.07c-1.3,0-2.48,0.29-3.52,0.87c-1.05,0.58-1.87,1.39-2.46,2.41c-0.59,1.02-0.89,2.17-0.89,3.43
		c0,1.27,0.3,2.41,0.89,3.43c0.59,1.02,1.41,1.83,2.46,2.41c1.05,0.58,2.22,0.87,3.52,0.87c1.95,0,3.59-0.7,4.92-2.1l1.62,1.57
		c-0.8,0.9-1.77,1.58-2.91,2.05c-1.14,0.46-2.4,0.7-3.76,0.7C113.64,72.68,112.06,72.29,110.65,71.51"/>
	<path class="st0" d="M131.2,69.94c0.68-0.39,1.2-0.94,1.59-1.65c0.38-0.71,0.57-1.52,0.57-2.43c0-0.91-0.19-1.72-0.57-2.43
		c-0.38-0.71-0.91-1.25-1.59-1.63c-0.67-0.38-1.44-0.57-2.29-0.57c-0.85,0-1.61,0.19-2.29,0.57c-0.68,0.38-1.21,0.93-1.6,1.63
		c-0.39,0.71-0.59,1.52-0.59,2.43c0,0.92,0.2,1.73,0.59,2.43c0.39,0.71,0.92,1.26,1.6,1.65c0.68,0.39,1.44,0.59,2.29,0.59
		C129.77,70.53,130.53,70.33,131.2,69.94 M125.37,71.75c-1.05-0.58-1.87-1.39-2.46-2.41c-0.59-1.02-0.89-2.18-0.89-3.48
		c0-1.3,0.3-2.46,0.89-3.48c0.59-1.02,1.41-1.82,2.46-2.4c1.05-0.57,2.23-0.86,3.55-0.86c1.32,0,2.5,0.29,3.54,0.86
		c1.04,0.57,1.86,1.37,2.45,2.4c0.59,1.02,0.89,2.18,0.89,3.48c0,1.3-0.3,2.46-0.89,3.48c-0.59,1.02-1.41,1.83-2.45,2.41
		c-1.04,0.58-2.22,0.87-3.54,0.87C127.6,72.63,126.42,72.34,125.37,71.75"/>
	<path class="st0" d="M148.7,60.58c0.99,0.97,1.49,2.4,1.49,4.28v7.61h-2.4v-7.34c0-1.28-0.31-2.25-0.93-2.9
		c-0.62-0.65-1.5-0.97-2.65-0.97c-1.3,0-2.33,0.38-3.07,1.14c-0.75,0.76-1.12,1.84-1.12,3.26v6.81h-2.4V59.25h2.3v2
		c0.48-0.68,1.14-1.21,1.96-1.57c0.82-0.37,1.76-0.55,2.81-0.55C146.37,59.12,147.71,59.61,148.7,60.58"/>
	<path class="st0" d="M153.82,72.19c-1-0.29-1.78-0.66-2.35-1.11l1-1.9c0.58,0.42,1.29,0.75,2.13,1c0.83,0.25,1.67,0.37,2.52,0.37
		c2.1,0,3.15-0.6,3.15-1.8c0-0.4-0.14-0.72-0.42-0.95c-0.28-0.23-0.64-0.4-1.06-0.51c-0.43-0.11-1.03-0.23-1.81-0.36
		c-1.07-0.17-1.94-0.36-2.61-0.58c-0.67-0.21-1.25-0.58-1.74-1.1s-0.72-1.24-0.72-2.17c0-1.2,0.5-2.16,1.5-2.88
		c1-0.72,2.34-1.09,4.02-1.09c0.88,0,1.77,0.11,2.65,0.33c0.88,0.22,1.61,0.51,2.17,0.87l-1.02,1.9c-1.09-0.7-2.36-1.05-3.83-1.05
		c-1.02,0-1.79,0.17-2.32,0.5c-0.53,0.33-0.8,0.77-0.8,1.32c0,0.43,0.15,0.77,0.45,1.02c0.3,0.25,0.67,0.43,1.11,0.55
		s1.06,0.25,1.86,0.4c1.07,0.18,1.93,0.38,2.59,0.59s1.22,0.56,1.69,1.06c0.47,0.5,0.7,1.2,0.7,2.1c0,1.2-0.51,2.15-1.54,2.86
		c-1.03,0.71-2.42,1.06-4.19,1.06C155.86,72.63,154.82,72.48,153.82,72.19"/>
	<path class="st0" d="M171.61,71.7c-0.35,0.3-0.78,0.53-1.3,0.69c-0.52,0.16-1.05,0.24-1.6,0.24c-1.33,0-2.37-0.36-3.1-1.07
		c-0.73-0.71-1.1-1.74-1.1-3.07v-7.26h-2.25v-1.97h2.25v-2.9h2.4v2.9h3.8v1.97h-3.8v7.16c0,0.72,0.18,1.26,0.54,1.65
		c0.36,0.38,0.87,0.57,1.54,0.57c0.73,0,1.36-0.21,1.88-0.62L171.61,71.7z"/>
	<path class="st0" d="M177.16,59.72c0.82-0.4,1.81-0.6,2.97-0.6v2.32c-0.13-0.02-0.32-0.02-0.55-0.02c-1.3,0-2.32,0.39-3.06,1.16
		c-0.74,0.77-1.11,1.87-1.11,3.31v6.59h-2.4V59.24h2.3v2.22C175.73,60.7,176.35,60.12,177.16,59.72"/>
	<path class="st0" d="M194.11,59.25v13.23h-2.28v-2c-0.48,0.68-1.12,1.21-1.91,1.58c-0.79,0.38-1.66,0.56-2.59,0.56
		c-1.77,0-3.16-0.49-4.18-1.46c-1.02-0.97-1.52-2.41-1.52-4.31v-7.61h2.4v7.34c0,1.28,0.31,2.25,0.93,2.91
		c0.62,0.66,1.5,0.99,2.65,0.99c1.27,0,2.27-0.38,3-1.15c0.73-0.76,1.1-1.85,1.1-3.25v-6.84H194.11z"/>
	<path class="st0" d="M199.35,71.75c-1.06-0.58-1.89-1.39-2.49-2.41c-0.6-1.02-0.9-2.18-0.9-3.48c0-1.3,0.3-2.46,0.9-3.48
		c0.6-1.02,1.43-1.82,2.49-2.4c1.06-0.57,2.26-0.86,3.61-0.86c1.2,0,2.27,0.24,3.21,0.72c0.94,0.48,1.67,1.18,2.19,2.1l-1.82,1.17
		c-0.42-0.63-0.93-1.11-1.55-1.42c-0.62-0.32-1.3-0.47-2.05-0.47c-0.87,0-1.65,0.19-2.34,0.57c-0.69,0.38-1.23,0.93-1.62,1.63
		c-0.39,0.71-0.59,1.52-0.59,2.43c0,0.93,0.2,1.75,0.59,2.46c0.39,0.71,0.93,1.25,1.62,1.63c0.69,0.38,1.47,0.57,2.34,0.57
		c0.75,0,1.43-0.16,2.05-0.47c0.62-0.32,1.13-0.79,1.55-1.42l1.82,1.15c-0.52,0.92-1.24,1.62-2.19,2.11
		c-0.94,0.49-2.01,0.74-3.21,0.74C201.61,72.63,200.41,72.34,199.35,71.75"/>
	<path class="st0" d="M217.59,71.7c-0.35,0.3-0.78,0.53-1.3,0.69c-0.52,0.16-1.05,0.24-1.6,0.24c-1.33,0-2.37-0.36-3.1-1.07
		c-0.73-0.71-1.1-1.74-1.1-3.07v-7.26h-2.25v-1.97h2.25v-2.9h2.4v2.9h3.8v1.97h-3.8v7.16c0,0.72,0.18,1.26,0.54,1.65
		c0.36,0.38,0.87,0.57,1.54,0.57c0.73,0,1.36-0.21,1.88-0.62L217.59,71.7z"/>
	<path class="st0" d="M226.5,69.94c0.68-0.39,1.21-0.94,1.59-1.65c0.38-0.71,0.57-1.52,0.57-2.43c0-0.91-0.19-1.72-0.57-2.43
		c-0.38-0.71-0.91-1.25-1.59-1.63c-0.67-0.38-1.44-0.57-2.29-0.57c-0.85,0-1.61,0.19-2.29,0.57c-0.68,0.38-1.21,0.93-1.6,1.63
		c-0.39,0.71-0.59,1.52-0.59,2.43c0,0.92,0.2,1.73,0.59,2.43c0.39,0.71,0.92,1.26,1.6,1.65c0.68,0.39,1.44,0.59,2.29,0.59
		C225.06,70.53,225.82,70.33,226.5,69.94 M220.66,71.75c-1.05-0.58-1.87-1.39-2.46-2.41c-0.59-1.02-0.89-2.18-0.89-3.48
		c0-1.3,0.3-2.46,0.89-3.48c0.59-1.02,1.41-1.82,2.46-2.4c1.05-0.57,2.23-0.86,3.55-0.86c1.32,0,2.5,0.29,3.54,0.86
		c1.04,0.57,1.86,1.37,2.45,2.4c0.59,1.02,0.89,2.18,0.89,3.48c0,1.3-0.3,2.46-0.89,3.48c-0.59,1.02-1.41,1.83-2.45,2.41
		c-1.04,0.58-2.22,0.87-3.54,0.87C222.89,72.63,221.71,72.34,220.66,71.75"/>
	<path class="st0" d="M237.06,59.72c0.82-0.4,1.81-0.6,2.97-0.6v2.32c-0.13-0.02-0.32-0.02-0.55-0.02c-1.3,0-2.32,0.39-3.06,1.16
		c-0.74,0.77-1.11,1.87-1.11,3.31v6.59h-2.4V59.24h2.3v2.22C235.63,60.7,236.24,60.12,237.06,59.72"/>
	<path class="st0" d="M26.74,32.47c2.77,0,5.44,0.46,7.93,1.29c1.2-6.93,7.26-12.23,14.54-12.23c7.15,0,13.13,5.1,14.47,11.85
		c1.02-0.28,2.06-0.51,3.14-0.65c1.36-0.22,2.73-0.34,4.08-0.34c0.92,0,1.82,0.05,2.71,0.15c-1.81-11.83-12.06-20.92-24.41-20.92
		c-12.35,0-22.61,9.1-24.41,20.93C25.45,32.5,26.09,32.47,26.74,32.47"/>
	<path class="st1" d="M76.06,67.05c-1.18,0.61-2.47,1.04-3.84,1.23c-0.27,0.03-1.35,0.12-2.27,0.19l-21.33-0.04
		c1.91-2.18,3.73-4.84,5.34-8.08c0.35-0.7,0.69-1.42,1.02-2.18c5.13-11.88,12.01-13.33,13.34-13.5l0.21-0.03
		c0.68-0.12,1.37-0.17,2.03-0.17c2.17,0,4.2,0.58,5.95,1.58c3.6,2.07,6.04,5.94,6.04,10.38c0,3.3-1.37,6.33-3.59,8.52
		C78.04,65.73,77.08,66.43,76.06,67.05 M15.93,56.5c0-6.6,5.38-11.97,11.99-11.97c4.25,0,7.98,2.22,10.11,5.55
		c1.19,1.86,1.88,4.06,1.88,6.42c0,5.9-4.29,10.81-9.92,11.79c-0.66,0.12-1.35,0.18-2.04,0.18c-0.01,0-0.01,0-0.02,0
		c-2.02,0-3.93-0.5-5.6-1.39C18.52,65.07,15.93,61.08,15.93,56.5 M84.99,40c-3.86-3.39-8.91-5.45-14.44-5.45
		c-1.19,0-2.4,0.1-3.6,0.3c-1.59,0.22-4.46,0.87-7.77,2.86c-1.01,0.53-2.18,1.31-3.41,2.44c-2.75,2.32-5.18,5.28-7.27,8.85
		c-1.19-3.25-3.13-6.13-5.61-8.45c-3.92-3.67-9.19-5.93-14.98-5.93C15.83,34.62,6,44.44,6,56.5s9.83,21.88,21.91,21.88
		c0.55,0,1.08-0.03,1.62-0.07l25.33,0.04l15.44,0.03l0.18-0.01c0.89-0.06,2.47-0.19,3.08-0.27c10.77-1.48,18.9-10.8,18.9-21.67
		C92.46,49.89,89.57,44.01,84.99,40"/>
	<path class="st0" d="M38.02,50.09c1.19,1.86,1.88,4.06,1.88,6.42c0,5.9-4.29,10.81-9.92,11.79l0.76-0.04
		c3.19-0.64,10.48-3.25,15.12-13.99c0.81-1.87,1.69-3.62,2.64-5.24c-1.19-3.25-3.13-6.13-5.61-8.45c-1.03,1.72-1.99,3.59-2.85,5.6
		C39.41,47.61,38.73,48.91,38.02,50.09"/>
	<path class="st1" d="M122.86,29.47c1.49,1.47,2.24,3.62,2.24,6.46V47.4h-3.62V36.34c0-1.93-0.46-3.39-1.39-4.37
		c-0.93-0.98-2.26-1.47-4-1.47c-1.96,0-3.51,0.57-4.64,1.71c-1.13,1.14-1.7,2.78-1.7,4.91V47.4h-3.62V27.45h3.47v3.01
		c0.73-1.03,1.72-1.82,2.96-2.37c1.24-0.55,2.66-0.83,4.24-0.83C119.35,27.26,121.36,28,122.86,29.47"/>
	<path class="st1" d="M131.06,27.45h3.62V47.4h-3.62V27.45z M131.12,22.93c-0.47-0.45-0.7-1-0.7-1.66c0-0.65,0.23-1.21,0.7-1.67
		c0.46-0.46,1.05-0.7,1.75-0.7c0.7,0,1.29,0.22,1.75,0.66c0.46,0.44,0.7,0.99,0.7,1.64c0,0.68-0.23,1.25-0.7,1.71
		c-0.46,0.47-1.05,0.7-1.75,0.7C132.16,23.61,131.58,23.39,131.12,22.93"/>
	<path class="st1" d="M171.79,29.45c1.47,1.46,2.21,3.61,2.21,6.48V47.4h-3.62V36.33c0-1.93-0.45-3.39-1.34-4.37
		c-0.89-0.98-2.17-1.47-3.83-1.47c-1.84,0-3.29,0.57-4.37,1.71c-1.08,1.14-1.62,2.78-1.62,4.91V47.4h-3.62V36.33
		c0-1.93-0.45-3.39-1.34-4.37c-0.89-0.98-2.17-1.47-3.83-1.47c-1.83,0-3.29,0.57-4.37,1.71c-1.08,1.14-1.62,2.78-1.62,4.91V47.4
		h-3.62V27.45h3.47v2.97c0.73-1.03,1.68-1.81,2.86-2.35c1.18-0.54,2.53-0.81,4.03-0.81c1.56,0,2.94,0.31,4.15,0.94
		c1.21,0.63,2.14,1.54,2.79,2.75c0.75-1.15,1.8-2.06,3.15-2.71c1.35-0.65,2.86-0.98,4.54-0.98
		C168.33,27.26,170.32,27.99,171.79,29.45"/>
	<path class="st1" d="M193.66,43.58c1.02-0.59,1.82-1.42,2.41-2.48c0.59-1.07,0.89-2.29,0.89-3.67c0-1.38-0.3-2.6-0.89-3.67
		c-0.59-1.07-1.39-1.89-2.41-2.47c-1.02-0.58-2.17-0.87-3.45-0.87c-1.26,0-2.4,0.29-3.43,0.87c-1.03,0.58-1.83,1.4-2.41,2.47
		c-0.58,1.07-0.87,2.29-0.87,3.67c0,1.38,0.29,2.6,0.87,3.67c0.58,1.07,1.38,1.9,2.41,2.48c1.03,0.59,2.17,0.88,3.43,0.88
		C191.49,44.47,192.64,44.17,193.66,43.58 M195.71,28.54c1.53,0.85,2.73,2.05,3.6,3.58c0.87,1.53,1.3,3.3,1.3,5.31
		c0,2.01-0.43,3.78-1.3,5.33c-0.87,1.54-2.07,2.74-3.6,3.59c-1.53,0.85-3.27,1.28-5.2,1.28c-1.48,0-2.84-0.29-4.07-0.87
		c-1.23-0.58-2.25-1.42-3.05-2.52v3.16h-3.47V19.47h3.62v10.99c0.8-1.05,1.81-1.85,3.02-2.39c1.21-0.54,2.53-0.81,3.96-0.81
		C192.44,27.26,194.18,27.69,195.71,28.54"/>
	<path class="st1" d="M223.49,27.45V47.4h-3.43v-3.01c-0.73,1.03-1.69,1.83-2.88,2.39c-1.19,0.56-2.49,0.85-3.9,0.85
		c-2.66,0-4.76-0.73-6.29-2.2c-1.53-1.47-2.3-3.63-2.3-6.49V27.45h3.62v11.07c0,1.93,0.46,3.39,1.4,4.39c0.93,0.99,2.26,1.49,4,1.49
		c1.91,0,3.42-0.58,4.52-1.73c1.11-1.15,1.66-2.78,1.66-4.89V27.45H223.49z"/>
	<path class="st1" d="M230.65,46.97c-1.51-0.44-2.69-1-3.54-1.68l1.51-2.86c0.88,0.63,1.95,1.13,3.2,1.51
		c1.26,0.38,2.53,0.56,3.81,0.56c3.17,0,4.75-0.9,4.75-2.71c0-0.6-0.21-1.08-0.64-1.43c-0.43-0.35-0.96-0.61-1.6-0.77
		c-0.64-0.16-1.55-0.34-2.73-0.55c-1.61-0.25-2.92-0.54-3.94-0.87c-1.02-0.33-1.89-0.88-2.62-1.66c-0.73-0.78-1.09-1.87-1.09-3.27
		c0-1.81,0.76-3.26,2.26-4.35c1.51-1.09,3.53-1.64,6.07-1.64c1.33,0,2.66,0.16,4,0.49c1.33,0.33,2.42,0.77,3.28,1.32l-1.54,2.86
		c-1.64-1.05-3.56-1.58-5.77-1.58c-1.53,0-2.7,0.25-3.51,0.75c-0.8,0.5-1.21,1.17-1.21,1.99c0,0.65,0.23,1.17,0.68,1.54
		c0.45,0.38,1.01,0.65,1.68,0.83c0.67,0.18,1.6,0.38,2.81,0.6c1.61,0.28,2.91,0.57,3.9,0.89c0.99,0.31,1.84,0.85,2.54,1.6
		c0.7,0.75,1.06,1.81,1.06,3.16c0,1.81-0.77,3.24-2.32,4.31c-1.54,1.07-3.65,1.6-6.31,1.6C233.73,47.63,232.16,47.41,230.65,46.97"
		/>
</g>
</svg>
