<?xml version="1.0" encoding="utf-8"?>
<!-- Generator: Adobe Illustrator 23.1.1, SVG Export Plug-In . SVG Version: 6.00 Build 0)  -->
<svg version="1.1" id="Capa_1" xmlns="http://www.w3.org/2000/svg" xmlns:xlink="http://www.w3.org/1999/xlink" x="0px" y="0px"
	 viewBox="0 0 250 90" style="enable-background:new 0 0 250 90;" xml:space="preserve">
<style type="text/css">
	.st0{fill:#687C99;}
	.st1{fill:#1A3D82;}
	.st2{fill:url(#SVGID_1_);}
	.st3{opacity:0.25;fill:#072038;}
</style>
<g>
	<g>
		<polygon class="st0" points="123.1,63.8 132.8,63.8 132.8,61.4 123.1,61.4 123.1,55.5 134,55.5 134,53.1 120.3,53.1 120.3,72.4 
			134.3,72.4 134.3,70 123.1,70 		"/>
		<path class="st0" d="M155.6,57.7c-0.9-1.5-2.1-2.6-3.7-3.4c-1.6-0.8-3.4-1.2-5.4-1.2h-8.2v19.4h8.2c2,0,3.9-0.4,5.4-1.2
			c1.6-0.8,2.8-1.9,3.7-3.4c0.9-1.5,1.3-3.1,1.3-5C156.9,60.8,156.4,59.2,155.6,57.7z M153.2,66.5c-0.6,1.1-1.6,1.9-2.8,2.6
			c-1.2,0.6-2.6,0.9-4.1,0.9H141V55.5h5.2c1.6,0,2.9,0.3,4.1,0.9c1.2,0.6,2.1,1.5,2.8,2.6c0.6,1.1,1,2.4,1,3.8
			C154.1,64.2,153.8,65.4,153.2,66.5z"/>
		<path class="st0" d="M104.4,56.2c1.2-0.6,2.5-1,4-1c2.2,0,4.1,0.7,5.6,2.2l1.7-1.7c-0.9-1-2-1.7-3.2-2.2c-1.3-0.5-2.7-0.8-4.2-0.8
			c-2,0-3.7,0.4-5.3,1.3c-1.6,0.8-2.8,2-3.7,3.5c-0.9,1.5-1.3,3.2-1.3,5.1c0,1.9,0.4,3.6,1.3,5.1c0.9,1.5,2.1,2.7,3.7,3.5
			c1.6,0.9,3.3,1.3,5.3,1.3c1.4,0,2.7-0.2,4-0.6c1.3-0.4,2.4-1,3.3-1.8v-7.6h-2.7v0h-3.5V65h3.5v4c-1.3,0.8-2.8,1.2-4.5,1.2
			c-1.5,0-2.8-0.3-3.9-1c-1.2-0.6-2.1-1.5-2.8-2.7s-1-2.4-1-3.8c0-1.4,0.3-2.7,1-3.8C102.3,57.8,103.3,56.9,104.4,56.2z"/>
	</g>
	<g>
		<path class="st1" d="M24.8,32.9c2.7,0,5.2,0.4,7.6,1.2c1.2-6.7,7-11.8,14-11.8c6.9,0,12.6,4.9,13.9,11.4c1-0.3,2-0.5,3-0.6
			c1.3-0.2,2.6-0.3,3.9-0.3c0.9,0,1.8,0.1,2.6,0.1c-1.7-11.4-11.6-20.2-23.5-20.2C34.6,12.8,24.7,21.6,23,33
			C23.6,32.9,24.2,32.9,24.8,32.9z"/>
	</g>
	<linearGradient id="SVGID_1_" gradientUnits="userSpaceOnUse" x1="85.5457" y1="57.5682" x2="27.3075" y2="55.3282">
		<stop  offset="0" style="stop-color:#18C7FB"/>
		<stop  offset="1" style="stop-color:#1595F0"/>
	</linearGradient>
	<path class="st2" d="M80.9,40.2c-3.7-3.3-8.6-5.3-13.9-5.3c-1.1,0-2.3,0.1-3.5,0.3c-1.5,0.2-4.3,0.8-7.5,2.8
		c-1,0.5-2.1,1.3-3.3,2.4c-2.6,2.2-5,5.1-7,8.5c-1.1-3.1-3-5.9-5.4-8.2c-3.8-3.5-8.9-5.7-14.4-5.7C14.3,35,4.8,44.5,4.8,56.1
		s9.5,21.1,21.1,21.1c0.5,0,1,0,1.6-0.1l24.4,0l14.9,0l0.2,0c0.9-0.1,2.4-0.2,3-0.3C80.3,75.5,88.1,66.5,88.1,56
		C88.1,49.7,85.4,44,80.9,40.2z M14.4,56.1c0-6.4,5.2-11.5,11.5-11.5c4.1,0,7.7,2.1,9.7,5.4c1.1,1.8,1.8,3.9,1.8,6.2
		c0,5.7-4.1,10.4-9.6,11.4c-0.6,0.1-1.3,0.2-2,0.2c0,0,0,0,0,0c-1.9,0-3.8-0.5-5.4-1.3C16.9,64.4,14.4,60.5,14.4,56.1z M72.3,66.3
		c-1.1,0.6-2.4,1-3.7,1.2c-0.3,0-1.3,0.1-2.2,0.2l-20.6,0c1.8-2.1,3.6-4.7,5.1-7.8c0.3-0.7,0.7-1.4,1-2.1
		c4.9-11.5,11.6-12.9,12.9-13l0.2,0c0.7-0.1,1.3-0.2,2-0.2c2.1,0,4,0.6,5.7,1.5c3.5,2,5.8,5.7,5.8,10c0,3.2-1.3,6.1-3.5,8.2
		C74.2,65,73.3,65.7,72.3,66.3z"/>
	<path class="st3" d="M35.7,49.9c1.1,1.8,1.8,3.9,1.8,6.2c0,5.7-4.1,10.4-9.6,11.4l0.7,0c3.1-0.6,10.1-3.1,14.6-13.5
		c0.8-1.8,1.6-3.5,2.5-5.1c-1.1-3.1-3-5.9-5.4-8.2c-1,1.7-1.9,3.5-2.7,5.4C37,47.5,36.4,48.8,35.7,49.9z"/>
	<g>
		<path class="st1" d="M116.7,28.9c1.5,1.5,2.3,3.7,2.3,6.7v11.8h-3.7V36c0-2-0.5-3.5-1.4-4.5c-1-1-2.3-1.5-4.1-1.5
			c-2,0-3.6,0.6-4.8,1.8c-1.2,1.2-1.7,2.9-1.7,5.1v10.6h-3.7V26.9h3.6V30c0.7-1.1,1.8-1.9,3-2.4c1.3-0.6,2.7-0.9,4.4-0.9
			C113.1,26.7,115.1,27.4,116.7,28.9z"/>
		<path class="st1" d="M125.9,22.2c-0.5-0.5-0.7-1-0.7-1.7s0.2-1.2,0.7-1.7c0.5-0.5,1.1-0.7,1.8-0.7c0.7,0,1.3,0.2,1.8,0.7
			c0.5,0.5,0.7,1,0.7,1.7c0,0.7-0.2,1.3-0.7,1.8c-0.5,0.5-1.1,0.7-1.8,0.7C127,22.9,126.4,22.7,125.9,22.2z M125.9,26.9h3.7v20.6
			h-3.7V26.9z"/>
		<path class="st1" d="M168.6,28.9c1.5,1.5,2.3,3.7,2.3,6.7v11.8h-3.7V36c0-2-0.5-3.5-1.4-4.5c-0.9-1-2.2-1.5-3.9-1.5
			c-1.9,0-3.4,0.6-4.5,1.8c-1.1,1.2-1.7,2.9-1.7,5.1v10.6h-3.7V36c0-2-0.5-3.5-1.4-4.5c-0.9-1-2.2-1.5-3.9-1.5
			c-1.9,0-3.4,0.6-4.5,1.8c-1.1,1.2-1.7,2.9-1.7,5.1v10.6h-3.7V26.9h3.6v3.1c0.7-1.1,1.7-1.9,2.9-2.4c1.2-0.6,2.6-0.8,4.2-0.8
			c1.6,0,3,0.3,4.3,1c1.2,0.6,2.2,1.6,2.9,2.8c0.8-1.2,1.9-2.1,3.2-2.8c1.4-0.7,2.9-1,4.7-1C165,26.7,167,27.4,168.6,28.9z"/>
		<path class="st1" d="M193.9,28c1.6,0.9,2.8,2.1,3.7,3.7c0.9,1.6,1.3,3.4,1.3,5.5s-0.4,3.9-1.3,5.5c-0.9,1.6-2.1,2.8-3.7,3.7
			c-1.6,0.9-3.4,1.3-5.4,1.3c-1.5,0-2.9-0.3-4.2-0.9c-1.3-0.6-2.3-1.5-3.1-2.6v3.3h-3.6V18.7h3.7V30c0.8-1.1,1.9-1.9,3.1-2.5
			c1.2-0.6,2.6-0.8,4.1-0.8C190.6,26.7,192.4,27.1,193.9,28z M191.8,43.5c1-0.6,1.9-1.5,2.5-2.6c0.6-1.1,0.9-2.4,0.9-3.8
			s-0.3-2.7-0.9-3.8c-0.6-1.1-1.4-1.9-2.5-2.5c-1-0.6-2.2-0.9-3.5-0.9c-1.3,0-2.5,0.3-3.5,0.9c-1.1,0.6-1.9,1.4-2.5,2.5
			c-0.6,1.1-0.9,2.4-0.9,3.8s0.3,2.7,0.9,3.8c0.6,1.1,1.4,2,2.5,2.6c1.1,0.6,2.2,0.9,3.5,0.9C189.6,44.4,190.8,44.1,191.8,43.5z"/>
		<path class="st1" d="M223.3,26.9v20.6h-3.5v-3.1c-0.8,1.1-1.7,1.9-3,2.5c-1.2,0.6-2.6,0.9-4,0.9c-2.7,0-4.9-0.8-6.5-2.3
			c-1.6-1.5-2.4-3.7-2.4-6.7V26.9h3.7v11.4c0,2,0.5,3.5,1.4,4.5c1,1,2.3,1.5,4.1,1.5c2,0,3.5-0.6,4.7-1.8c1.1-1.2,1.7-2.9,1.7-5
			V26.9H223.3z"/>
		<path class="st1" d="M231.4,47c-1.6-0.5-2.8-1-3.6-1.7l1.6-2.9c0.9,0.6,2,1.2,3.3,1.6c1.3,0.4,2.6,0.6,3.9,0.6
			c3.3,0,4.9-0.9,4.9-2.8c0-0.6-0.2-1.1-0.7-1.5c-0.4-0.4-1-0.6-1.6-0.8c-0.7-0.2-1.6-0.4-2.8-0.6c-1.7-0.3-3-0.6-4.1-0.9
			c-1-0.3-1.9-0.9-2.7-1.7c-0.8-0.8-1.1-1.9-1.1-3.4c0-1.9,0.8-3.4,2.3-4.5c1.6-1.1,3.6-1.7,6.2-1.7c1.4,0,2.7,0.2,4.1,0.5
			c1.4,0.3,2.5,0.8,3.4,1.4l-1.6,2.9c-1.7-1.1-3.7-1.6-5.9-1.6c-1.6,0-2.8,0.3-3.6,0.8c-0.8,0.5-1.2,1.2-1.2,2.1
			c0,0.7,0.2,1.2,0.7,1.6c0.5,0.4,1,0.7,1.7,0.9c0.7,0.2,1.6,0.4,2.9,0.6c1.7,0.3,3,0.6,4,0.9c1,0.3,1.9,0.9,2.6,1.6
			c0.7,0.8,1.1,1.9,1.1,3.3c0,1.9-0.8,3.3-2.4,4.4c-1.6,1.1-3.8,1.6-6.5,1.6C234.6,47.7,233,47.4,231.4,47z"/>
	</g>
</g>
</svg>
