<?xml version="1.0" encoding="utf-8"?>
<!-- Generator: Adobe Illustrator 23.1.1, SVG Export Plug-In . SVG Version: 6.00 Build 0)  -->
<svg version="1.1" id="Capa_1" xmlns="http://www.w3.org/2000/svg" xmlns:xlink="http://www.w3.org/1999/xlink" x="0px" y="0px"
	 viewBox="0 0 70 60" style="enable-background:new 0 0 70 60;" xml:space="preserve">
<style type="text/css">
	.st0{fill:#1A3D82;}
	.st1{fill:url(#SVGID_1_);}
	.st2{opacity:0.25;fill:#072038;}
</style>
<g>
	<path class="st0" d="M18.3,20.4c2.1,0,4.1,0.3,6,1c0.9-5.3,5.5-9.3,11.1-9.3c5.4,0,10,3.9,11,9c0.8-0.2,1.6-0.4,2.4-0.5
		c1-0.2,2.1-0.3,3.1-0.3c0.7,0,1.4,0,2.1,0.1c-1.4-9-9.2-15.9-18.5-15.9c-9.4,0-17.2,6.9-18.5,15.9C17.3,20.4,17.8,20.4,18.3,20.4z"
		/>
</g>
<linearGradient id="SVGID_1_" gradientUnits="userSpaceOnUse" x1="66.1649" y1="39.8677" x2="20.2264" y2="38.1008">
	<stop  offset="0" style="stop-color:#18C7FB"/>
	<stop  offset="1" style="stop-color:#1595F0"/>
</linearGradient>
<path class="st1" d="M62.5,26.1c-2.9-2.6-6.8-4.1-11-4.1c-0.9,0-1.8,0.1-2.7,0.2c-1.2,0.2-3.4,0.7-5.9,2.2c-0.8,0.4-1.7,1-2.6,1.9
	c-2.1,1.8-3.9,4-5.5,6.7c-0.9-2.5-2.4-4.7-4.3-6.4c-3-2.8-7-4.5-11.4-4.5c-9.2,0-16.7,7.5-16.7,16.7S10,55.4,19.2,55.4
	c0.4,0,0.8,0,1.2-0.1l19.3,0l11.7,0l0.1,0c0.7,0,1.9-0.1,2.3-0.2C62,54,68.2,46.9,68.2,38.7C68.2,33.7,66,29.2,62.5,26.1z M10,38.7
	c0-5,4.1-9.1,9.1-9.1c3.2,0,6.1,1.7,7.7,4.2c0.9,1.4,1.4,3.1,1.4,4.9c0,4.5-3.3,8.2-7.5,9c-0.5,0.1-1,0.1-1.6,0.1c0,0,0,0,0,0
	c-1.5,0-3-0.4-4.3-1.1C12,45.2,10,42.2,10,38.7z M55.7,46.7c-0.9,0.5-1.9,0.8-2.9,0.9c-0.2,0-1,0.1-1.7,0.1l-16.2,0
	c1.4-1.7,2.8-3.7,4.1-6.2c0.3-0.5,0.5-1.1,0.8-1.7c3.9-9,9.1-10.1,10.1-10.3l0.2,0c0.5-0.1,1-0.1,1.5-0.1c1.6,0,3.2,0.4,4.5,1.2
	c2.7,1.6,4.6,4.5,4.6,7.9c0,2.5-1,4.8-2.7,6.5C57.3,45.7,56.5,46.3,55.7,46.7z"/>
<path class="st2" d="M26.8,33.8c0.9,1.4,1.4,3.1,1.4,4.9c0,4.5-3.3,8.2-7.5,9l0.6,0c2.4-0.5,8-2.5,11.5-10.7c0.6-1.4,1.3-2.8,2-4
	c-0.9-2.5-2.4-4.7-4.3-6.4c-0.8,1.3-1.5,2.7-2.2,4.3C27.9,31.9,27.4,32.9,26.8,33.8z"/>
</svg>
