<?xml version="1.0" encoding="utf-8"?>
<!-- Generator: Adobe Illustrator 23.1.1, SVG Export Plug-In . SVG Version: 6.00 Build 0)  -->
<svg version="1.1" id="Capa_1" xmlns="http://www.w3.org/2000/svg" xmlns:xlink="http://www.w3.org/1999/xlink" x="0px" y="0px"
	 viewBox="0 0 200 140" style="enable-background:new 0 0 200 140;" xml:space="preserve">
<style type="text/css">
	.st0{fill:#1A3D82;}
	.st1{fill:url(#SVGID_1_);}
	.st2{opacity:0.3523;fill:#072038;}
	.st3{fill:#687C99;}
</style>
<g>
	<g>
		<g>
			<path class="st0" d="M42.5,86c1.6,1.6,2.5,4,2.5,7.1v12.7h-4V93.6c0-2.1-0.5-3.7-1.5-4.8c-1-1.1-2.5-1.6-4.4-1.6
				c-2.2,0-3.9,0.6-5.1,1.9c-1.2,1.3-1.9,3.1-1.9,5.4v11.3h-4v-22h3.8v3.3c0.8-1.1,1.9-2,3.3-2.6c1.4-0.6,2.9-0.9,4.7-0.9
				C38.6,83.6,40.8,84.4,42.5,86z"/>
			<path class="st0" d="M51.6,78.8c-0.5-0.5-0.8-1.1-0.8-1.8s0.3-1.3,0.8-1.8c0.5-0.5,1.2-0.8,1.9-0.8c0.8,0,1.4,0.2,1.9,0.7
				c0.5,0.5,0.8,1.1,0.8,1.8c0,0.7-0.3,1.4-0.8,1.9c-0.5,0.5-1.2,0.8-1.9,0.8C52.7,79.6,52.1,79.3,51.6,78.8z M51.5,83.8h4v22h-4
				V83.8z"/>
			<path class="st0" d="M96.4,86c1.6,1.6,2.4,4,2.4,7.1v12.7h-4V93.6c0-2.1-0.5-3.7-1.5-4.8c-1-1.1-2.4-1.6-4.2-1.6
				c-2,0-3.6,0.6-4.8,1.9c-1.2,1.3-1.8,3.1-1.8,5.4v11.3h-4V93.6c0-2.1-0.5-3.7-1.5-4.8c-1-1.1-2.4-1.6-4.2-1.6
				c-2,0-3.6,0.6-4.8,1.9c-1.2,1.3-1.8,3.1-1.8,5.4v11.3h-4v-22h3.8v3.3c0.8-1.1,1.9-2,3.2-2.6c1.3-0.6,2.8-0.9,4.4-0.9
				c1.7,0,3.2,0.3,4.6,1c1.3,0.7,2.4,1.7,3.1,3c0.8-1.3,2-2.3,3.5-3c1.5-0.7,3.1-1.1,5-1.1C92.6,83.6,94.8,84.4,96.4,86z"/>
			<path class="st0" d="M122.7,85c1.7,0.9,3,2.3,4,3.9c1,1.7,1.4,3.6,1.4,5.9c0,2.2-0.5,4.2-1.4,5.9c-1,1.7-2.3,3-4,4
				c-1.7,0.9-3.6,1.4-5.7,1.4c-1.6,0-3.1-0.3-4.5-1c-1.4-0.6-2.5-1.6-3.4-2.8v3.5h-3.8V75h4v12.1c0.9-1.2,2-2,3.3-2.6
				c1.3-0.6,2.8-0.9,4.4-0.9C119.1,83.6,121.1,84.1,122.7,85z M120.5,101.6c1.1-0.7,2-1.6,2.7-2.7c0.7-1.2,1-2.5,1-4
				c0-1.5-0.3-2.9-1-4.1c-0.7-1.2-1.5-2.1-2.7-2.7c-1.1-0.6-2.4-1-3.8-1c-1.4,0-2.6,0.3-3.8,1c-1.1,0.6-2,1.5-2.7,2.7
				c-0.6,1.2-1,2.5-1,4.1c0,1.5,0.3,2.9,1,4c0.6,1.2,1.5,2.1,2.7,2.7s2.4,1,3.8,1C118.1,102.6,119.4,102.2,120.5,101.6z"/>
			<path class="st0" d="M153.4,83.8v22h-3.8v-3.3c-0.8,1.1-1.9,2-3.2,2.6c-1.3,0.6-2.7,0.9-4.3,0.9c-2.9,0-5.2-0.8-6.9-2.4
				c-1.7-1.6-2.5-4-2.5-7.2V83.8h4V96c0,2.1,0.5,3.7,1.5,4.8c1,1.1,2.5,1.6,4.4,1.6c2.1,0,3.8-0.6,5-1.9c1.2-1.3,1.8-3.1,1.8-5.4
				V83.8H153.4z"/>
			<path class="st0" d="M161.2,105.3c-1.7-0.5-3-1.1-3.9-1.8l1.7-3.2c1,0.7,2.1,1.2,3.5,1.7c1.4,0.4,2.8,0.6,4.2,0.6
				c3.5,0,5.2-1,5.2-3c0-0.7-0.2-1.2-0.7-1.6c-0.5-0.4-1.1-0.7-1.8-0.9c-0.7-0.2-1.7-0.4-3-0.6c-1.8-0.3-3.2-0.6-4.3-1
				c-1.1-0.4-2.1-1-2.9-1.8c-0.8-0.9-1.2-2.1-1.2-3.6c0-2,0.8-3.6,2.5-4.8c1.7-1.2,3.9-1.8,6.7-1.8c1.5,0,2.9,0.2,4.4,0.5
				s2.7,0.8,3.6,1.5l-1.7,3.2c-1.8-1.2-3.9-1.7-6.4-1.7c-1.7,0-3,0.3-3.9,0.8c-0.9,0.6-1.3,1.3-1.3,2.2c0,0.7,0.2,1.3,0.7,1.7
				c0.5,0.4,1.1,0.7,1.8,0.9c0.7,0.2,1.8,0.4,3.1,0.7c1.8,0.3,3.2,0.6,4.3,1c1.1,0.3,2,0.9,2.8,1.8c0.8,0.8,1.2,2,1.2,3.5
				c0,2-0.9,3.6-2.6,4.8c-1.7,1.2-4,1.8-7,1.8C164.6,106.1,162.9,105.8,161.2,105.3z"/>
		</g>
		<g>
			<path class="st0" d="M80.2,21c2.3,0,4.4,0.4,6.4,1c1-5.6,5.9-10,11.8-10c5.8,0,10.7,4.2,11.8,9.6c0.8-0.2,1.7-0.4,2.6-0.5
				c1.1-0.2,2.2-0.3,3.3-0.3c0.7,0,1.5,0,2.2,0.1c-1.5-9.6-9.8-17-19.8-17c-10,0-18.4,7.4-19.8,17C79.1,21,79.6,21,80.2,21z"/>
		</g>
		<linearGradient id="SVGID_1_" gradientUnits="userSpaceOnUse" x1="63.2981" y1="40.5252" x2="133.5863" y2="40.5252">
			<stop  offset="0" style="stop-color:#111EFF"/>
			<stop  offset="1" style="stop-color:#2681FF"/>
		</linearGradient>
		<path class="st1" d="M127.5,27.1c-3.1-2.8-7.2-4.4-11.7-4.4c-1,0-2,0.1-2.9,0.2c-1.3,0.2-3.6,0.7-6.3,2.3c-0.8,0.4-1.8,1.1-2.8,2
			c-2.2,1.9-4.2,4.3-5.9,7.2c-1-2.6-2.5-5-4.6-6.9c-3.2-3-7.5-4.8-12.2-4.8c-9.8,0-17.8,8-17.8,17.8s8,17.8,17.8,17.8
			c0.4,0,0.9,0,1.3-0.1l20.6,0l12.6,0l0.1,0c0.7-0.1,2-0.2,2.5-0.2c8.8-1.2,15.4-8.8,15.4-17.6C133.6,35.2,131.2,30.4,127.5,27.1z
			 M71.4,40.6c0-5.4,4.4-9.7,9.7-9.7c3.5,0,6.5,1.8,8.2,4.5c1,1.5,1.5,3.3,1.5,5.2c0,4.8-3.5,8.8-8.1,9.6c-0.5,0.1-1.1,0.1-1.7,0.1
			c0,0,0,0,0,0c-1.6,0-3.2-0.4-4.6-1.1C73.5,47.5,71.4,44.3,71.4,40.6z M120.2,49.1c-1,0.5-2,0.8-3.1,1c-0.2,0-1.1,0.1-1.8,0.2
			l-17.3,0c1.5-1.8,3-3.9,4.3-6.6c0.3-0.6,0.6-1.2,0.8-1.8c4.2-9.7,9.8-10.9,10.8-11l0.2,0c0.6-0.1,1.1-0.1,1.7-0.1
			c1.8,0,3.4,0.5,4.8,1.3c2.9,1.7,4.9,4.8,4.9,8.5c0,2.7-1.1,5.2-2.9,6.9C121.9,48.1,121.1,48.6,120.2,49.1z"/>
		<path class="st2" d="M89.3,35.3c1,1.5,1.5,3.3,1.5,5.2c0,4.8-3.5,8.8-8.1,9.6l0.6,0c2.6-0.5,8.5-2.6,12.3-11.4
			c0.7-1.5,1.4-2.9,2.1-4.3c-1-2.6-2.5-5-4.6-6.9c-0.8,1.4-1.6,2.9-2.3,4.6C90.5,33.3,89.9,34.4,89.3,35.3z"/>
	</g>
	<g>
		<polygon class="st3" points="94.6,124.9 106.7,124.9 106.7,121.9 94.6,121.9 94.6,114.4 108.2,114.4 108.2,111.4 91.1,111.4 
			91.1,135.7 108.7,135.7 108.7,132.7 94.6,132.7 		"/>
		<path class="st3" d="M135.3,117.2c-1.1-1.8-2.6-3.3-4.6-4.3c-2-1-4.3-1.5-6.8-1.5h-10.2v24.3h10.2c2.6,0,4.8-0.5,6.8-1.5
			c2-1,3.5-2.4,4.6-4.3s1.6-4,1.6-6.3C137,121.2,136.4,119.1,135.3,117.2z M132.3,128.3c-0.8,1.4-2,2.4-3.5,3.2
			c-1.5,0.8-3.2,1.1-5.2,1.1h-6.6v-18.3h6.6c2,0,3.7,0.4,5.2,1.1c1.5,0.8,2.6,1.8,3.5,3.2c0.8,1.4,1.2,3,1.2,4.8
			C133.5,125.4,133.1,127,132.3,128.3z"/>
		<path class="st3" d="M71.2,115.4c1.5-0.8,3.1-1.2,5-1.2c2.8,0,5.1,0.9,7,2.8l2.2-2.2c-1.1-1.2-2.5-2.2-4-2.8c-1.6-0.6-3.3-1-5.3-1
			c-2.5,0-4.7,0.5-6.7,1.6c-2,1.1-3.5,2.5-4.7,4.4c-1.1,1.9-1.7,4-1.7,6.4c0,2.4,0.6,4.5,1.7,6.4c1.1,1.9,2.7,3.4,4.6,4.4
			c2,1.1,4.2,1.6,6.6,1.6c1.7,0,3.4-0.3,5-0.8c1.6-0.5,3-1.3,4.2-2.3v-9.5h-3.3v0h-4.4v2.9h4.4v5c-1.6,1-3.5,1.6-5.7,1.6
			c-1.8,0-3.5-0.4-4.9-1.2c-1.5-0.8-2.6-1.9-3.5-3.3c-0.8-1.4-1.2-3-1.2-4.8c0-1.8,0.4-3.4,1.2-4.8
			C68.6,117.3,69.7,116.2,71.2,115.4z"/>
	</g>
</g>
</svg>
