<?xml version="1.0" encoding="utf-8"?>
<!-- Generator: Adobe Illustrator 23.1.1, SVG Export Plug-In . SVG Version: 6.00 Build 0)  -->
<svg version="1.1" id="Capa_1" xmlns="http://www.w3.org/2000/svg" xmlns:xlink="http://www.w3.org/1999/xlink" x="0px" y="0px"
	 viewBox="0 0 250 90" style="enable-background:new 0 0 250 90;" xml:space="preserve">
<style type="text/css">
	.st0{fill:#1A3D82;}
	.st1{fill:url(#SVGID_1_);}
	.st2{opacity:0.25;fill:#072038;}
	.st3{fill:#687C99;}
</style>
<g>
	<path class="st0" d="M25.4,33c2.7,0,5.3,0.4,7.7,1.3c1.2-6.7,7-11.9,14.1-11.9c6.9,0,12.7,5,14,11.5c1-0.3,2-0.5,3-0.6
		c1.3-0.2,2.6-0.3,4-0.3c0.9,0,1.8,0.1,2.6,0.1c-1.7-11.5-11.7-20.3-23.6-20.3c-12,0-21.9,8.8-23.6,20.3C24.2,33.1,24.8,33,25.4,33z
		"/>
</g>
<linearGradient id="SVGID_1_" gradientUnits="userSpaceOnUse" x1="86.4954" y1="57.8349" x2="27.9395" y2="55.5828">
	<stop  offset="0" style="stop-color:#18C7FB"/>
	<stop  offset="1" style="stop-color:#1595F0"/>
</linearGradient>
<path class="st1" d="M81.9,40.3c-3.7-3.3-8.6-5.3-14-5.3c-1.2,0-2.3,0.1-3.5,0.3c-1.5,0.2-4.3,0.8-7.5,2.8c-1,0.5-2.1,1.3-3.3,2.4
	c-2.7,2.3-5,5.1-7,8.6c-1.2-3.1-3-5.9-5.4-8.2c-3.8-3.6-8.9-5.8-14.5-5.8c-11.7,0-21.2,9.5-21.2,21.2s9.5,21.2,21.2,21.2
	c0.5,0,1.1,0,1.6-0.1l24.5,0l15,0l0.2,0c0.9-0.1,2.4-0.2,3-0.3c10.4-1.4,18.3-10.5,18.3-21C89.1,49.9,86.3,44.2,81.9,40.3z M15,56.4
	c0-6.4,5.2-11.6,11.6-11.6c4.1,0,7.7,2.2,9.8,5.4c1.1,1.8,1.8,3.9,1.8,6.2c0,5.7-4.2,10.5-9.6,11.4c-0.6,0.1-1.3,0.2-2,0.2
	c0,0,0,0,0,0c-2,0-3.8-0.5-5.4-1.3C17.5,64.7,15,60.8,15,56.4z M73.2,66.6c-1.1,0.6-2.4,1-3.7,1.2c-0.3,0-1.3,0.1-2.2,0.2l-20.7,0
	c1.8-2.1,3.6-4.7,5.2-7.8c0.3-0.7,0.7-1.4,1-2.1c5-11.5,11.6-12.9,12.9-13.1l0.2,0c0.7-0.1,1.3-0.2,2-0.2c2.1,0,4.1,0.6,5.8,1.5
	c3.5,2,5.8,5.8,5.8,10.1c0,3.2-1.3,6.1-3.5,8.3C75.1,65.3,74.2,66,73.2,66.6z"/>
<path class="st2" d="M36.4,50.1c1.1,1.8,1.8,3.9,1.8,6.2c0,5.7-4.2,10.5-9.6,11.4l0.7,0c3.1-0.6,10.2-3.2,14.6-13.6
	c0.8-1.8,1.6-3.5,2.6-5.1c-1.2-3.1-3-5.9-5.4-8.2c-1,1.7-1.9,3.5-2.8,5.4C37.7,47.7,37.1,49,36.4,50.1z"/>
<g>
	<path class="st3" d="M102.9,71.8c-1.5-0.8-2.6-1.9-3.4-3.3c-0.8-1.4-1.2-3-1.2-4.7c0-1.8,0.4-3.3,1.3-4.7c0.8-1.4,2-2.5,3.4-3.3
		c1.5-0.8,3.1-1.2,4.9-1.2c1.5,0,2.8,0.3,4,0.8c1.2,0.5,2.2,1.3,3.1,2.2l-2.1,2c-1.3-1.4-2.9-2.1-4.8-2.1c-1.2,0-2.3,0.3-3.3,0.8
		c-1,0.5-1.7,1.3-2.3,2.2c-0.5,1-0.8,2-0.8,3.2c0,1.2,0.3,2.3,0.8,3.2c0.5,1,1.3,1.7,2.3,2.2c1,0.5,2.1,0.8,3.3,0.8
		c1.9,0,3.5-0.7,4.8-2.1l2.1,2c-0.8,1-1.9,1.7-3.1,2.2c-1.2,0.5-2.6,0.8-4,0.8C106,73,104.4,72.6,102.9,71.8z"/>
	<path class="st3" d="M118.6,72.1c-1.1-0.6-2-1.4-2.6-2.5c-0.6-1.1-0.9-2.3-0.9-3.6c0-1.3,0.3-2.5,0.9-3.6c0.6-1.1,1.5-1.9,2.6-2.5
		c1.1-0.6,2.4-0.9,3.7-0.9c1.4,0,2.6,0.3,3.8,0.9c1.1,0.6,2,1.4,2.6,2.5c0.6,1.1,0.9,2.3,0.9,3.6c0,1.3-0.3,2.6-0.9,3.6
		c-0.6,1.1-1.5,1.9-2.6,2.5s-2.4,0.9-3.8,0.9C121,72.9,119.8,72.7,118.6,72.1z M125.3,69c0.8-0.8,1.1-1.8,1.1-3.1s-0.4-2.3-1.1-3.1
		c-0.8-0.8-1.7-1.2-2.9-1.2c-1.2,0-2.1,0.4-2.9,1.2c-0.8,0.8-1.1,1.8-1.1,3.1s0.4,2.3,1.1,3.1c0.8,0.8,1.7,1.2,2.9,1.2
		C123.6,70.2,124.5,69.8,125.3,69z"/>
	<path class="st3" d="M143.6,60.5c1,1,1.6,2.5,1.6,4.5v7.8h-3.2v-7.4c0-1.2-0.3-2.1-0.8-2.7c-0.6-0.6-1.4-0.9-2.4-0.9
		c-1.2,0-2.1,0.4-2.8,1.1c-0.7,0.7-1,1.7-1,3.1v6.9h-3.2V59.1h3v1.8c0.5-0.6,1.2-1.1,2-1.4c0.8-0.3,1.7-0.5,2.7-0.5
		C141.2,59,142.5,59.5,143.6,60.5z"/>
	<path class="st3" d="M149.1,72.5c-1.1-0.3-1.9-0.7-2.5-1.1l1.2-2.4c0.6,0.4,1.3,0.7,2.2,1c0.9,0.2,1.7,0.4,2.5,0.4
		c1.9,0,2.9-0.5,2.9-1.5c0-0.5-0.2-0.8-0.7-1c-0.5-0.2-1.3-0.4-2.3-0.5c-1.1-0.2-2-0.4-2.7-0.6c-0.7-0.2-1.3-0.6-1.8-1.2
		c-0.5-0.6-0.8-1.3-0.8-2.3c0-1.3,0.5-2.3,1.6-3.1c1.1-0.8,2.5-1.2,4.4-1.2c0.9,0,1.9,0.1,2.8,0.3s1.7,0.5,2.3,0.9l-1.2,2.4
		c-1.2-0.7-2.5-1-3.9-1c-0.9,0-1.6,0.1-2.1,0.4c-0.5,0.3-0.7,0.7-0.7,1.1c0,0.5,0.3,0.9,0.8,1.1c0.5,0.2,1.3,0.4,2.4,0.6
		c1.1,0.2,2,0.4,2.7,0.6c0.7,0.2,1.3,0.6,1.8,1.1c0.5,0.5,0.8,1.3,0.8,2.2c0,1.3-0.6,2.3-1.7,3.1c-1.1,0.8-2.6,1.1-4.5,1.1
		C151.3,72.9,150.2,72.8,149.1,72.5z"/>
	<path class="st3" d="M168.5,72c-0.4,0.3-0.8,0.5-1.4,0.7c-0.5,0.2-1.1,0.2-1.7,0.2c-1.5,0-2.7-0.4-3.5-1.2
		c-0.8-0.8-1.2-1.9-1.2-3.4v-6.6h-2.2v-2.6h2.2v-3.1h3.2v3.1h3.7v2.6h-3.7v6.5c0,0.7,0.2,1.2,0.5,1.5c0.3,0.3,0.8,0.5,1.4,0.5
		c0.7,0,1.3-0.2,1.8-0.6L168.5,72z"/>
	<path class="st3" d="M178,59v3c-0.3-0.1-0.5-0.1-0.7-0.1c-1.2,0-2.2,0.4-2.9,1.1c-0.7,0.7-1,1.8-1,3.1v6.6h-3.2V59.1h3v2
		C174.1,59.7,175.7,59,178,59z"/>
	<path class="st3" d="M193,59.1v13.6h-3V71c-0.5,0.6-1.2,1.1-1.9,1.4c-0.8,0.3-1.6,0.5-2.5,0.5c-1.8,0-3.3-0.5-4.3-1.5
		c-1-1-1.6-2.5-1.6-4.5v-7.8h3.2v7.4c0,1.2,0.3,2.1,0.8,2.7c0.6,0.6,1.3,0.9,2.4,0.9c1.1,0,2-0.4,2.7-1.1c0.7-0.7,1-1.7,1-3.1v-6.9
		H193z"/>
	<path class="st3" d="M198.7,72.1c-1.1-0.6-2-1.4-2.6-2.5c-0.6-1.1-0.9-2.3-0.9-3.6c0-1.3,0.3-2.5,0.9-3.6s1.5-1.9,2.6-2.5
		c1.1-0.6,2.4-0.9,3.8-0.9c1.3,0,2.5,0.3,3.5,0.8c1,0.5,1.8,1.3,2.3,2.4l-2.5,1.4c-0.4-0.6-0.9-1.1-1.5-1.4
		c-0.6-0.3-1.2-0.5-1.9-0.5c-1.2,0-2.2,0.4-3,1.2c-0.8,0.8-1.2,1.8-1.2,3.1c0,1.3,0.4,2.3,1.2,3.1c0.8,0.8,1.8,1.2,3,1.2
		c0.7,0,1.3-0.2,1.9-0.5c0.6-0.3,1.1-0.8,1.5-1.4l2.5,1.4c-0.5,1-1.3,1.8-2.3,2.4c-1,0.6-2.2,0.8-3.5,0.8
		C201,72.9,199.8,72.7,198.7,72.1z"/>
	<path class="st3" d="M218.4,72c-0.4,0.3-0.8,0.5-1.4,0.7c-0.5,0.2-1.1,0.2-1.7,0.2c-1.5,0-2.7-0.4-3.5-1.2
		c-0.8-0.8-1.2-1.9-1.2-3.4v-6.6h-2.2v-2.6h2.2v-3.1h3.2v3.1h3.7v2.6h-3.7v6.5c0,0.7,0.2,1.2,0.5,1.5c0.3,0.3,0.8,0.5,1.4,0.5
		c0.7,0,1.3-0.2,1.8-0.6L218.4,72z"/>
	<path class="st3" d="M222,72.1c-1.1-0.6-2-1.4-2.6-2.5c-0.6-1.1-0.9-2.3-0.9-3.6c0-1.3,0.3-2.5,0.9-3.6c0.6-1.1,1.5-1.9,2.6-2.5
		c1.1-0.6,2.4-0.9,3.7-0.9c1.4,0,2.6,0.3,3.8,0.9c1.1,0.6,2,1.4,2.6,2.5c0.6,1.1,0.9,2.3,0.9,3.6c0,1.3-0.3,2.6-0.9,3.6
		c-0.6,1.1-1.5,1.9-2.6,2.5c-1.1,0.6-2.4,0.9-3.8,0.9C224.3,72.9,223.1,72.7,222,72.1z M228.6,69c0.8-0.8,1.1-1.8,1.1-3.1
		s-0.4-2.3-1.1-3.1c-0.8-0.8-1.7-1.2-2.9-1.2s-2.1,0.4-2.9,1.2c-0.8,0.8-1.1,1.8-1.1,3.1s0.4,2.3,1.1,3.1c0.8,0.8,1.7,1.2,2.9,1.2
		S227.8,69.8,228.6,69z"/>
	<path class="st3" d="M242.9,59v3c-0.3-0.1-0.5-0.1-0.7-0.1c-1.2,0-2.2,0.4-2.9,1.1c-0.7,0.7-1,1.8-1,3.1v6.6H235V59.1h3v2
		C239,59.7,240.6,59,242.9,59z"/>
</g>
<g>
	<path class="st0" d="M116.4,29.1c1.5,1.5,2.3,3.7,2.3,6.7v11.9H115V36.2c0-2-0.5-3.5-1.4-4.5c-1-1-2.3-1.5-4.1-1.5
		c-2,0-3.6,0.6-4.8,1.8c-1.2,1.2-1.8,2.9-1.8,5.1v10.6h-3.7V27h3.6v3.1c0.8-1.1,1.8-1.9,3.1-2.5c1.3-0.6,2.7-0.9,4.4-0.9
		C112.8,26.8,114.9,27.5,116.4,29.1z"/>
	<path class="st0" d="M125.8,22.3c-0.5-0.5-0.7-1-0.7-1.7c0-0.7,0.2-1.3,0.7-1.7c0.5-0.5,1.1-0.7,1.8-0.7c0.7,0,1.3,0.2,1.8,0.7
		c0.5,0.5,0.7,1,0.7,1.7c0,0.7-0.2,1.3-0.7,1.8c-0.5,0.5-1.1,0.7-1.8,0.7C126.8,23,126.2,22.8,125.8,22.3z M125.7,27h3.7v20.7h-3.7
		V27z"/>
	<path class="st0" d="M168.6,29c1.5,1.5,2.3,3.7,2.3,6.7v11.9h-3.7V36.2c0-2-0.5-3.5-1.4-4.5c-0.9-1-2.2-1.5-4-1.5
		c-1.9,0-3.4,0.6-4.5,1.8c-1.1,1.2-1.7,2.9-1.7,5.1v10.6h-3.7V36.2c0-2-0.5-3.5-1.4-4.5c-0.9-1-2.2-1.5-4-1.5
		c-1.9,0-3.4,0.6-4.5,1.8c-1.1,1.2-1.7,2.9-1.7,5.1v10.6h-3.7V27h3.6v3.1c0.8-1.1,1.7-1.9,3-2.4c1.2-0.6,2.6-0.8,4.2-0.8
		c1.6,0,3,0.3,4.3,1c1.2,0.6,2.2,1.6,2.9,2.8c0.8-1.2,1.9-2.1,3.3-2.8c1.4-0.7,3-1,4.7-1C165,26.8,167.1,27.5,168.6,29z"/>
	<path class="st0" d="M194.1,28.1c1.6,0.9,2.8,2.1,3.7,3.7c0.9,1.6,1.3,3.4,1.3,5.5s-0.4,3.9-1.3,5.5c-0.9,1.6-2.1,2.8-3.7,3.7
		c-1.6,0.9-3.4,1.3-5.4,1.3c-1.5,0-2.9-0.3-4.2-0.9c-1.3-0.6-2.3-1.5-3.2-2.6v3.3h-3.6V18.7h3.7v11.4c0.8-1.1,1.9-1.9,3.1-2.5
		c1.2-0.6,2.6-0.8,4.1-0.8C190.8,26.8,192.5,27.2,194.1,28.1z M192,43.7c1.1-0.6,1.9-1.5,2.5-2.6c0.6-1.1,0.9-2.4,0.9-3.8
		s-0.3-2.7-0.9-3.8c-0.6-1.1-1.4-2-2.5-2.6c-1.1-0.6-2.2-0.9-3.6-0.9c-1.3,0-2.5,0.3-3.5,0.9c-1.1,0.6-1.9,1.4-2.5,2.6
		c-0.6,1.1-0.9,2.4-0.9,3.8s0.3,2.7,0.9,3.8c0.6,1.1,1.4,2,2.5,2.6c1.1,0.6,2.2,0.9,3.5,0.9C189.8,44.6,191,44.3,192,43.7z"/>
	<path class="st0" d="M223.6,27v20.7h-3.5v-3.1c-0.8,1.1-1.7,1.9-3,2.5c-1.2,0.6-2.6,0.9-4,0.9c-2.8,0-4.9-0.8-6.5-2.3
		c-1.6-1.5-2.4-3.8-2.4-6.7V27h3.7v11.5c0,2,0.5,3.5,1.4,4.5c1,1,2.3,1.5,4.1,1.5c2,0,3.5-0.6,4.7-1.8c1.1-1.2,1.7-2.9,1.7-5.1V27
		H223.6z"/>
	<path class="st0" d="M231.8,47.2c-1.6-0.5-2.8-1-3.7-1.7l1.6-3c0.9,0.6,2,1.2,3.3,1.6c1.3,0.4,2.6,0.6,3.9,0.6
		c3.3,0,4.9-0.9,4.9-2.8c0-0.6-0.2-1.1-0.7-1.5c-0.4-0.4-1-0.6-1.7-0.8c-0.7-0.2-1.6-0.4-2.8-0.6c-1.7-0.3-3-0.6-4.1-0.9
		c-1.1-0.3-2-0.9-2.7-1.7c-0.8-0.8-1.1-1.9-1.1-3.4c0-1.9,0.8-3.4,2.3-4.5c1.6-1.1,3.7-1.7,6.3-1.7c1.4,0,2.8,0.2,4.1,0.5
		c1.4,0.3,2.5,0.8,3.4,1.4l-1.6,3c-1.7-1.1-3.7-1.6-6-1.6c-1.6,0-2.8,0.3-3.6,0.8c-0.8,0.5-1.2,1.2-1.2,2.1c0,0.7,0.2,1.2,0.7,1.6
		c0.5,0.4,1,0.7,1.7,0.9c0.7,0.2,1.7,0.4,2.9,0.6c1.7,0.3,3,0.6,4,0.9c1,0.3,1.9,0.9,2.6,1.7c0.7,0.8,1.1,1.9,1.1,3.3
		c0,1.9-0.8,3.4-2.4,4.5c-1.6,1.1-3.8,1.7-6.5,1.7C235,47.9,233.4,47.6,231.8,47.2z"/>
</g>
</svg>
