<?xml version="1.0" encoding="utf-8"?>
<!-- Generator: Adobe Illustrator 23.1.1, SVG Export Plug-In . SVG Version: 6.00 Build 0)  -->
<svg version="1.1" id="Layer_1" xmlns="http://www.w3.org/2000/svg" xmlns:xlink="http://www.w3.org/1999/xlink" x="0px" y="0px"
	 viewBox="0 0 100 32" style="enable-background:new 0 0 100 32;" xml:space="preserve">
<style type="text/css">
	.st0{fill:#1A3D82;}
	.st1{fill:url(#SVGID_1_);}
	.st2{opacity:0.25;fill:#072038;}
	.st3{fill:#687C99;}
</style>
<g>
	<g>
		<path class="st0" d="M8.6,11c1.1,0,2.2,0.2,3.2,0.5c0.5-2.8,2.9-4.9,5.8-4.9c2.9,0,5.3,2,5.8,4.8c0.4-0.1,0.8-0.2,1.3-0.3
			c0.5-0.1,1.1-0.1,1.6-0.1c0.4,0,0.7,0,1.1,0.1c-0.7-4.7-4.8-8.4-9.8-8.4c-4.9,0-9.1,3.6-9.8,8.4C8.1,11,8.4,11,8.6,11z"/>
	</g>
	<linearGradient id="SVGID_1_" gradientUnits="userSpaceOnUse" x1="33.8825" y1="21.2227" x2="9.6816" y2="20.2919">
		<stop  offset="0" style="stop-color:#18C7FB"/>
		<stop  offset="1" style="stop-color:#1595F0"/>
	</linearGradient>
	<path class="st1" d="M32,14c-1.5-1.4-3.6-2.2-5.8-2.2c-0.5,0-1,0-1.4,0.1c-0.6,0.1-1.8,0.4-3.1,1.1c-0.4,0.2-0.9,0.5-1.4,1
		c-1.1,0.9-2.1,2.1-2.9,3.5c-0.5-1.3-1.3-2.5-2.2-3.4c-1.6-1.5-3.7-2.4-6-2.4c-4.8,0-8.8,3.9-8.8,8.8s3.9,8.8,8.8,8.8
		c0.2,0,0.4,0,0.6,0l10.1,0l6.2,0l0.1,0c0.4,0,1-0.1,1.2-0.1c4.3-0.6,7.6-4.3,7.6-8.7C35,18,33.8,15.6,32,14z M4.3,20.6
		c0-2.6,2.2-4.8,4.8-4.8c1.7,0,3.2,0.9,4,2.2c0.5,0.7,0.8,1.6,0.8,2.6c0,2.4-1.7,4.3-4,4.7c-0.3,0-0.5,0.1-0.8,0.1c0,0,0,0,0,0
		c-0.8,0-1.6-0.2-2.2-0.6C5.4,24,4.3,22.4,4.3,20.6z M28.4,24.8c-0.5,0.2-1,0.4-1.5,0.5c-0.1,0-0.5,0-0.9,0.1l-8.5,0
		c0.8-0.9,1.5-1.9,2.1-3.2c0.1-0.3,0.3-0.6,0.4-0.9c2.1-4.8,4.8-5.3,5.3-5.4l0.1,0c0.3,0,0.5-0.1,0.8-0.1c0.9,0,1.7,0.2,2.4,0.6
		c1.4,0.8,2.4,2.4,2.4,4.2c0,1.3-0.5,2.5-1.4,3.4C29.2,24.3,28.8,24.6,28.4,24.8z"/>
	<path class="st2" d="M13.2,18c0.5,0.7,0.8,1.6,0.8,2.6c0,2.4-1.7,4.3-4,4.7l0.3,0c1.3-0.3,4.2-1.3,6.1-5.6c0.3-0.8,0.7-1.5,1.1-2.1
		c-0.5-1.3-1.3-2.5-2.2-3.4c-0.4,0.7-0.8,1.4-1.1,2.2C13.7,17,13.4,17.6,13.2,18z"/>
	<g>
		<path class="st3" d="M40.7,27c-0.6-0.3-1.1-0.8-1.4-1.4c-0.3-0.6-0.5-1.2-0.5-2c0-0.7,0.2-1.4,0.5-2c0.3-0.6,0.8-1,1.4-1.4
			s1.3-0.5,2-0.5c0.6,0,1.2,0.1,1.7,0.3c0.5,0.2,0.9,0.5,1.3,0.9L44.7,22c-0.5-0.6-1.2-0.9-2-0.9c-0.5,0-1,0.1-1.4,0.3
			c-0.4,0.2-0.7,0.5-0.9,0.9c-0.2,0.4-0.3,0.8-0.3,1.3c0,0.5,0.1,0.9,0.3,1.3c0.2,0.4,0.5,0.7,0.9,0.9c0.4,0.2,0.9,0.3,1.4,0.3
			c0.8,0,1.4-0.3,2-0.9l0.9,0.8c-0.3,0.4-0.8,0.7-1.3,0.9c-0.5,0.2-1.1,0.3-1.7,0.3C41.9,27.5,41.3,27.3,40.7,27z"/>
		<path class="st3" d="M47.2,27.1c-0.5-0.2-0.8-0.6-1.1-1c-0.3-0.4-0.4-0.9-0.4-1.5c0-0.6,0.1-1.1,0.4-1.5c0.3-0.4,0.6-0.8,1.1-1
			c0.5-0.2,1-0.4,1.5-0.4c0.6,0,1.1,0.1,1.6,0.4c0.5,0.2,0.8,0.6,1.1,1c0.3,0.4,0.4,0.9,0.4,1.5c0,0.6-0.1,1.1-0.4,1.5
			c-0.3,0.4-0.6,0.8-1.1,1c-0.5,0.2-1,0.4-1.6,0.4C48.1,27.5,47.6,27.3,47.2,27.1z M49.9,25.9c0.3-0.3,0.5-0.7,0.5-1.3
			c0-0.5-0.2-1-0.5-1.3c-0.3-0.3-0.7-0.5-1.2-0.5s-0.9,0.2-1.2,0.5C47.2,23.6,47,24,47,24.6c0,0.5,0.2,1,0.5,1.3
			c0.3,0.3,0.7,0.5,1.2,0.5S49.6,26.2,49.9,25.9z"/>
		<path class="st3" d="M57.5,22.3c0.4,0.4,0.6,1,0.6,1.8v3.2h-1.3v-3.1c0-0.5-0.1-0.9-0.3-1.1c-0.2-0.2-0.6-0.4-1-0.4
			c-0.5,0-0.9,0.1-1.2,0.4c-0.3,0.3-0.4,0.7-0.4,1.3v2.9h-1.3v-5.6h1.3v0.7c0.2-0.3,0.5-0.5,0.8-0.6c0.3-0.1,0.7-0.2,1.1-0.2
			C56.5,21.7,57,21.9,57.5,22.3z"/>
		<path class="st3" d="M59.8,27.3c-0.4-0.1-0.8-0.3-1-0.5l0.5-1c0.3,0.2,0.6,0.3,0.9,0.4c0.4,0.1,0.7,0.2,1.1,0.2
			c0.8,0,1.2-0.2,1.2-0.6c0-0.2-0.1-0.3-0.3-0.4c-0.2-0.1-0.5-0.2-1-0.2c-0.5-0.1-0.8-0.2-1.1-0.2c-0.3-0.1-0.5-0.3-0.8-0.5
			c-0.2-0.2-0.3-0.5-0.3-1c0-0.5,0.2-1,0.7-1.3s1.1-0.5,1.8-0.5c0.4,0,0.8,0,1.2,0.1c0.4,0.1,0.7,0.2,1,0.4l-0.5,1
			c-0.5-0.3-1-0.4-1.6-0.4c-0.4,0-0.7,0.1-0.9,0.2c-0.2,0.1-0.3,0.3-0.3,0.5c0,0.2,0.1,0.4,0.3,0.4c0.2,0.1,0.5,0.2,1,0.2
			c0.4,0.1,0.8,0.2,1.1,0.2c0.3,0.1,0.5,0.2,0.7,0.5c0.2,0.2,0.3,0.5,0.3,0.9c0,0.5-0.2,1-0.7,1.3c-0.5,0.3-1.1,0.5-1.9,0.5
			C60.7,27.5,60.2,27.4,59.8,27.3z"/>
		<path class="st3" d="M67.8,27.1c-0.2,0.1-0.3,0.2-0.6,0.3c-0.2,0.1-0.5,0.1-0.7,0.1c-0.6,0-1.1-0.2-1.4-0.5
			c-0.3-0.3-0.5-0.8-0.5-1.4v-2.7h-0.9v-1.1h0.9v-1.3h1.3v1.3h1.5v1.1h-1.5v2.7c0,0.3,0.1,0.5,0.2,0.6c0.1,0.1,0.3,0.2,0.6,0.2
			c0.3,0,0.5-0.1,0.7-0.2L67.8,27.1z"/>
		<path class="st3" d="M71.7,21.7V23c-0.1,0-0.2,0-0.3,0c-0.5,0-0.9,0.1-1.2,0.4c-0.3,0.3-0.4,0.7-0.4,1.3v2.7h-1.3v-5.6h1.3v0.8
			C70.1,22,70.8,21.7,71.7,21.7z"/>
		<path class="st3" d="M77.9,21.8v5.6h-1.3v-0.7c-0.2,0.3-0.5,0.4-0.8,0.6c-0.3,0.1-0.7,0.2-1,0.2c-0.8,0-1.3-0.2-1.8-0.6
			c-0.4-0.4-0.6-1-0.6-1.9v-3.2h1.3v3c0,0.5,0.1,0.9,0.3,1.1c0.2,0.3,0.6,0.4,1,0.4c0.5,0,0.8-0.1,1.1-0.4c0.3-0.3,0.4-0.7,0.4-1.3
			v-2.9H77.9z"/>
		<path class="st3" d="M80.2,27.1c-0.5-0.2-0.8-0.6-1.1-1c-0.3-0.4-0.4-0.9-0.4-1.5c0-0.6,0.1-1.1,0.4-1.5s0.6-0.8,1.1-1
			c0.5-0.2,1-0.4,1.6-0.4c0.6,0,1,0.1,1.5,0.3c0.4,0.2,0.7,0.5,0.9,1l-1,0.6c-0.2-0.3-0.4-0.5-0.6-0.6c-0.2-0.1-0.5-0.2-0.8-0.2
			c-0.5,0-0.9,0.2-1.2,0.5c-0.3,0.3-0.5,0.7-0.5,1.3c0,0.5,0.2,1,0.5,1.3c0.3,0.3,0.7,0.5,1.2,0.5c0.3,0,0.6-0.1,0.8-0.2
			c0.2-0.1,0.4-0.3,0.6-0.6l1,0.6c-0.2,0.4-0.5,0.7-1,1c-0.4,0.2-0.9,0.3-1.5,0.3C81.2,27.5,80.7,27.3,80.2,27.1z"/>
		<path class="st3" d="M88.4,27.1c-0.2,0.1-0.3,0.2-0.6,0.3c-0.2,0.1-0.5,0.1-0.7,0.1c-0.6,0-1.1-0.2-1.4-0.5
			c-0.3-0.3-0.5-0.8-0.5-1.4v-2.7h-0.9v-1.1h0.9v-1.3h1.3v1.3H88v1.1h-1.5v2.7c0,0.3,0.1,0.5,0.2,0.6c0.1,0.1,0.3,0.2,0.6,0.2
			c0.3,0,0.5-0.1,0.7-0.2L88.4,27.1z"/>
		<path class="st3" d="M89.9,27.1c-0.5-0.2-0.8-0.6-1.1-1c-0.3-0.4-0.4-0.9-0.4-1.5c0-0.6,0.1-1.1,0.4-1.5c0.3-0.4,0.6-0.8,1.1-1
			c0.5-0.2,1-0.4,1.5-0.4c0.6,0,1.1,0.1,1.6,0.4c0.5,0.2,0.8,0.6,1.1,1c0.3,0.4,0.4,0.9,0.4,1.5c0,0.6-0.1,1.1-0.4,1.5
			c-0.3,0.4-0.6,0.8-1.1,1c-0.5,0.2-1,0.4-1.6,0.4C90.8,27.5,90.3,27.3,89.9,27.1z M92.6,25.9c0.3-0.3,0.5-0.7,0.5-1.3
			c0-0.5-0.2-1-0.5-1.3c-0.3-0.3-0.7-0.5-1.2-0.5c-0.5,0-0.9,0.2-1.2,0.5c-0.3,0.3-0.5,0.7-0.5,1.3c0,0.5,0.2,1,0.5,1.3
			c0.3,0.3,0.7,0.5,1.2,0.5C91.9,26.3,92.3,26.2,92.6,25.9z"/>
		<path class="st3" d="M98.5,21.7V23c-0.1,0-0.2,0-0.3,0c-0.5,0-0.9,0.1-1.2,0.4c-0.3,0.3-0.4,0.7-0.4,1.3v2.7h-1.3v-5.6h1.3v0.8
			C96.9,22,97.6,21.7,98.5,21.7z"/>
	</g>
	<g>
		<path class="st0" d="M46.3,9.3c0.6,0.6,1,1.5,1,2.8V17h-1.5v-4.7c0-0.8-0.2-1.4-0.6-1.9c-0.4-0.4-1-0.6-1.7-0.6
			c-0.8,0-1.5,0.2-2,0.7c-0.5,0.5-0.7,1.2-0.7,2.1V17h-1.5V8.5h1.5v1.3c0.3-0.4,0.7-0.8,1.3-1c0.5-0.2,1.1-0.4,1.8-0.4
			C44.8,8.4,45.6,8.7,46.3,9.3z"/>
		<path class="st0" d="M50.1,6.5c-0.2-0.2-0.3-0.4-0.3-0.7s0.1-0.5,0.3-0.7c0.2-0.2,0.4-0.3,0.7-0.3c0.3,0,0.6,0.1,0.7,0.3
			c0.2,0.2,0.3,0.4,0.3,0.7c0,0.3-0.1,0.5-0.3,0.7c-0.2,0.2-0.4,0.3-0.7,0.3C50.6,6.8,50.3,6.7,50.1,6.5z M50.1,8.5h1.5V17h-1.5V8.5
			z"/>
		<path class="st0" d="M67.8,9.3c0.6,0.6,0.9,1.5,0.9,2.8V17h-1.5v-4.7c0-0.8-0.2-1.4-0.6-1.9C66.3,10,65.7,9.8,65,9.8
			c-0.8,0-1.4,0.2-1.9,0.7c-0.5,0.5-0.7,1.2-0.7,2.1V17h-1.5v-4.7c0-0.8-0.2-1.4-0.6-1.9c-0.4-0.4-0.9-0.6-1.6-0.6
			c-0.8,0-1.4,0.2-1.9,0.7c-0.5,0.5-0.7,1.2-0.7,2.1V17h-1.5V8.5h1.5v1.3c0.3-0.4,0.7-0.8,1.2-1c0.5-0.2,1.1-0.3,1.7-0.3
			c0.7,0,1.3,0.1,1.8,0.4c0.5,0.3,0.9,0.7,1.2,1.2c0.3-0.5,0.8-0.9,1.3-1.2c0.6-0.3,1.2-0.4,1.9-0.4C66.3,8.4,67.2,8.7,67.8,9.3z"/>
		<path class="st0" d="M78.4,8.9c0.7,0.4,1.2,0.9,1.5,1.5c0.4,0.7,0.6,1.4,0.6,2.3s-0.2,1.6-0.6,2.3c-0.4,0.7-0.9,1.2-1.5,1.5
			c-0.7,0.4-1.4,0.5-2.2,0.5c-0.6,0-1.2-0.1-1.7-0.4c-0.5-0.2-1-0.6-1.3-1.1V17h-1.5v-12h1.5v4.7c0.3-0.5,0.8-0.8,1.3-1
			c0.5-0.2,1.1-0.3,1.7-0.3C77,8.4,77.7,8.6,78.4,8.9z M77.5,15.4c0.4-0.3,0.8-0.6,1-1.1c0.3-0.5,0.4-1,0.4-1.6s-0.1-1.1-0.4-1.6
			c-0.3-0.5-0.6-0.8-1-1.1c-0.4-0.2-0.9-0.4-1.5-0.4c-0.5,0-1,0.1-1.5,0.4c-0.4,0.2-0.8,0.6-1,1.1c-0.2,0.5-0.4,1-0.4,1.6
			s0.1,1.1,0.4,1.6c0.2,0.5,0.6,0.8,1,1.1s0.9,0.4,1.5,0.4C76.6,15.8,77.1,15.6,77.5,15.4z"/>
		<path class="st0" d="M90.6,8.5V17h-1.5v-1.3c-0.3,0.4-0.7,0.8-1.2,1c-0.5,0.2-1.1,0.4-1.7,0.4c-1.1,0-2-0.3-2.7-0.9
			c-0.7-0.6-1-1.6-1-2.8V8.5h1.5v4.7c0,0.8,0.2,1.5,0.6,1.9c0.4,0.4,1,0.6,1.7,0.6c0.8,0,1.5-0.2,1.9-0.7c0.5-0.5,0.7-1.2,0.7-2.1
			V8.5H90.6z"/>
		<path class="st0" d="M94,16.8c-0.6-0.2-1.1-0.4-1.5-0.7l0.6-1.2c0.4,0.3,0.8,0.5,1.4,0.6c0.5,0.2,1.1,0.2,1.6,0.2
			c1.4,0,2-0.4,2-1.2c0-0.3-0.1-0.5-0.3-0.6c-0.2-0.2-0.4-0.3-0.7-0.3c-0.3-0.1-0.7-0.1-1.2-0.2c-0.7-0.1-1.2-0.2-1.7-0.4
			c-0.4-0.1-0.8-0.4-1.1-0.7c-0.3-0.3-0.5-0.8-0.5-1.4c0-0.8,0.3-1.4,1-1.9c0.6-0.5,1.5-0.7,2.6-0.7c0.6,0,1.1,0.1,1.7,0.2
			s1,0.3,1.4,0.6l-0.7,1.2c-0.7-0.5-1.5-0.7-2.5-0.7c-0.7,0-1.2,0.1-1.5,0.3c-0.3,0.2-0.5,0.5-0.5,0.9c0,0.3,0.1,0.5,0.3,0.7
			c0.2,0.2,0.4,0.3,0.7,0.4c0.3,0.1,0.7,0.2,1.2,0.3c0.7,0.1,1.2,0.2,1.7,0.4c0.4,0.1,0.8,0.4,1.1,0.7c0.3,0.3,0.5,0.8,0.5,1.4
			c0,0.8-0.3,1.4-1,1.8c-0.7,0.5-1.6,0.7-2.7,0.7C95.3,17.1,94.6,17,94,16.8z"/>
	</g>
</g>
</svg>
