<?xml version="1.0" encoding="utf-8"?>
<!-- Generator: Adobe Illustrator 23.1.1, SVG Export Plug-In . SVG Version: 6.00 Build 0)  -->
<svg version="1.1" id="Layer_1" xmlns="http://www.w3.org/2000/svg" xmlns:xlink="http://www.w3.org/1999/xlink" x="0px" y="0px"
	 viewBox="0 0 100 32" style="enable-background:new 0 0 100 32;" xml:space="preserve">
<style type="text/css">
	.st0{fill:#1A3D82;}
	.st1{fill:url(#SVGID_1_);}
	.st2{opacity:0.3523;fill:#072038;}
	.st3{fill:#687C99;}
</style>
<g>
	<g>
		<path class="st0" d="M47.8,8.6c0.6,0.6,1,1.5,1,2.8v4.9h-1.6v-4.7c0-0.8-0.2-1.4-0.6-1.9c-0.4-0.4-1-0.6-1.7-0.6
			c-0.8,0-1.5,0.2-2,0.7c-0.5,0.5-0.7,1.2-0.7,2.1v4.4h-1.6V7.7h1.5V9c0.3-0.4,0.7-0.8,1.3-1c0.5-0.2,1.1-0.4,1.8-0.4
			C46.3,7.7,47.2,8,47.8,8.6z"/>
		<path class="st0" d="M51.4,5.8c-0.2-0.2-0.3-0.4-0.3-0.7c0-0.3,0.1-0.5,0.3-0.7c0.2-0.2,0.5-0.3,0.8-0.3c0.3,0,0.6,0.1,0.8,0.3
			c0.2,0.2,0.3,0.4,0.3,0.7c0,0.3-0.1,0.5-0.3,0.7c-0.2,0.2-0.5,0.3-0.8,0.3C51.8,6.1,51.6,6,51.4,5.8z M51.3,7.7h1.6v8.5h-1.6V7.7z
			"/>
		<path class="st0" d="M68.9,8.6c0.6,0.6,1,1.5,1,2.8v4.9h-1.6v-4.7c0-0.8-0.2-1.4-0.6-1.9C67.3,9.2,66.8,9,66.1,9
			c-0.8,0-1.4,0.2-1.9,0.7c-0.5,0.5-0.7,1.2-0.7,2.1v4.4h-1.6v-4.7c0-0.8-0.2-1.4-0.6-1.9C60.9,9.2,60.4,9,59.7,9
			c-0.8,0-1.4,0.2-1.9,0.7c-0.5,0.5-0.7,1.2-0.7,2.1v4.4h-1.6V7.7H57V9c0.3-0.4,0.7-0.8,1.2-1c0.5-0.2,1.1-0.3,1.7-0.3
			c0.7,0,1.3,0.1,1.8,0.4c0.5,0.3,0.9,0.7,1.2,1.2c0.3-0.5,0.8-0.9,1.4-1.2c0.6-0.3,1.2-0.4,2-0.4C67.4,7.7,68.3,8,68.9,8.6z"/>
		<path class="st0" d="M79.2,8.2c0.7,0.4,1.2,0.9,1.6,1.5c0.4,0.7,0.6,1.4,0.6,2.3c0,0.9-0.2,1.6-0.6,2.3c-0.4,0.7-0.9,1.2-1.6,1.5
			c-0.7,0.4-1.4,0.5-2.2,0.5c-0.6,0-1.2-0.1-1.8-0.4c-0.5-0.2-1-0.6-1.3-1.1v1.3h-1.5V4.3h1.6V9c0.3-0.4,0.8-0.8,1.3-1
			c0.5-0.2,1.1-0.3,1.7-0.3C77.8,7.7,78.5,7.8,79.2,8.2z M78.3,14.6c0.4-0.3,0.8-0.6,1-1.1c0.3-0.5,0.4-1,0.4-1.6
			c0-0.6-0.1-1.1-0.4-1.6c-0.3-0.5-0.6-0.8-1-1.1C77.9,9.1,77.4,9,76.8,9c-0.5,0-1,0.1-1.5,0.4c-0.4,0.2-0.8,0.6-1,1.1
			c-0.2,0.5-0.4,1-0.4,1.6c0,0.6,0.1,1.1,0.4,1.6c0.2,0.5,0.6,0.8,1,1.1s0.9,0.4,1.5,0.4C77.4,15,77.9,14.9,78.3,14.6z"/>
		<path class="st0" d="M91.2,7.7v8.5h-1.5V15c-0.3,0.4-0.7,0.8-1.2,1s-1.1,0.4-1.7,0.4c-1.1,0-2.1-0.3-2.7-0.9c-0.7-0.6-1-1.5-1-2.8
			V7.7h1.6v4.7c0,0.8,0.2,1.4,0.6,1.9c0.4,0.4,1,0.6,1.7,0.6c0.8,0,1.5-0.2,1.9-0.7c0.5-0.5,0.7-1.2,0.7-2.1V7.7H91.2z"/>
		<path class="st0" d="M94.2,16.1c-0.6-0.2-1.2-0.4-1.5-0.7l0.6-1.2c0.4,0.3,0.8,0.5,1.4,0.6c0.5,0.2,1.1,0.2,1.6,0.2
			c1.4,0,2-0.4,2-1.2c0-0.3-0.1-0.5-0.3-0.6c-0.2-0.1-0.4-0.3-0.7-0.3c-0.3-0.1-0.7-0.1-1.2-0.2c-0.7-0.1-1.3-0.2-1.7-0.4
			c-0.4-0.1-0.8-0.4-1.1-0.7c-0.3-0.3-0.5-0.8-0.5-1.4c0-0.8,0.3-1.4,1-1.9c0.6-0.5,1.5-0.7,2.6-0.7c0.6,0,1.1,0.1,1.7,0.2
			c0.6,0.1,1,0.3,1.4,0.6l-0.7,1.2C98.4,9.2,97.5,9,96.6,9c-0.7,0-1.2,0.1-1.5,0.3c-0.3,0.2-0.5,0.5-0.5,0.9c0,0.3,0.1,0.5,0.3,0.7
			c0.2,0.2,0.4,0.3,0.7,0.4c0.3,0.1,0.7,0.2,1.2,0.3c0.7,0.1,1.3,0.2,1.7,0.4c0.4,0.1,0.8,0.4,1.1,0.7c0.3,0.3,0.5,0.8,0.5,1.3
			c0,0.8-0.3,1.4-1,1.8c-0.7,0.5-1.6,0.7-2.7,0.7C95.6,16.3,94.9,16.2,94.2,16.1z"/>
	</g>
	<g>
		<g>
			<path class="st0" d="M8.2,11.1c1.1,0,2.1,0.2,3.1,0.5c0.5-2.7,2.9-4.8,5.7-4.8c2.8,0,5.2,2,5.7,4.6c0.4-0.1,0.8-0.2,1.2-0.3
				c0.5-0.1,1.1-0.1,1.6-0.1c0.4,0,0.7,0,1.1,0.1C25.9,6.5,21.9,3,17,3c-4.9,0-8.9,3.5-9.6,8.2C7.7,11.1,7.9,11.1,8.2,11.1z"/>
		</g>
		<linearGradient id="SVGID_1_" gradientUnits="userSpaceOnUse" x1="0" y1="20.4658" x2="34.0291" y2="20.4658">
			<stop  offset="0" style="stop-color:#111EFF"/>
			<stop  offset="1" style="stop-color:#2681FF"/>
		</linearGradient>
		<path class="st1" d="M31.1,14.1c-1.5-1.3-3.5-2.1-5.7-2.1c-0.5,0-0.9,0-1.4,0.1c-0.6,0.1-1.8,0.3-3.1,1.1c-0.4,0.2-0.9,0.5-1.3,1
			c-1.1,0.9-2,2.1-2.9,3.4c-0.5-1.3-1.2-2.4-2.2-3.3C13,12.8,10.9,12,8.6,12C3.9,12,0,15.8,0,20.5S3.9,29,8.6,29c0.2,0,0.4,0,0.6,0
			l10,0l6.1,0l0.1,0c0.3,0,1-0.1,1.2-0.1c4.2-0.6,7.4-4.2,7.4-8.4C34,17.9,32.9,15.6,31.1,14.1z M3.9,20.5c0-2.6,2.1-4.7,4.7-4.7
			c1.7,0,3.1,0.9,4,2.2c0.5,0.7,0.7,1.6,0.7,2.5c0,2.3-1.7,4.2-3.9,4.6c-0.3,0-0.5,0.1-0.8,0.1c0,0,0,0,0,0c-0.8,0-1.5-0.2-2.2-0.5
			C4.9,23.8,3.9,22.3,3.9,20.5z M27.6,24.6c-0.5,0.2-1,0.4-1.5,0.5c-0.1,0-0.5,0-0.9,0.1l-8.4,0c0.8-0.8,1.5-1.9,2.1-3.1
			c0.1-0.3,0.3-0.6,0.4-0.8c2-4.6,4.7-5.2,5.3-5.3l0.1,0c0.3,0,0.5-0.1,0.8-0.1c0.9,0,1.7,0.2,2.3,0.6c1.4,0.8,2.4,2.3,2.4,4
			c0,1.3-0.5,2.5-1.4,3.3C28.4,24.1,28,24.3,27.6,24.6z"/>
		<path class="st2" d="M12.6,18c0.5,0.7,0.7,1.6,0.7,2.5c0,2.3-1.7,4.2-3.9,4.6l0.3,0c1.3-0.2,4.1-1.3,5.9-5.4c0.3-0.7,0.7-1.4,1-2
			c-0.5-1.3-1.2-2.4-2.2-3.3c-0.4,0.7-0.8,1.4-1.1,2.2C13.2,17,12.9,17.5,12.6,18z"/>
	</g>
	<g>
		<polygon class="st3" points="53.3,23.6 58,23.6 58,22.5 53.3,22.5 53.3,19.6 58.6,19.6 58.6,18.4 51.9,18.4 51.9,27.8 58.8,27.8 
			58.8,26.6 53.3,26.6 		"/>
		<path class="st3" d="M69.2,20.7c-0.4-0.7-1-1.3-1.8-1.7c-0.8-0.4-1.7-0.6-2.7-0.6h-4v9.4h4c1,0,1.9-0.2,2.7-0.6
			c0.8-0.4,1.4-0.9,1.8-1.7c0.4-0.7,0.6-1.5,0.6-2.4C69.9,22.2,69.6,21.4,69.2,20.7z M68,24.9c-0.3,0.5-0.8,0.9-1.4,1.2
			c-0.6,0.3-1.3,0.4-2,0.4h-2.6v-7.1h2.6c0.8,0,1.4,0.1,2,0.4c0.6,0.3,1,0.7,1.4,1.2c0.3,0.5,0.5,1.1,0.5,1.8
			C68.5,23.8,68.3,24.4,68,24.9z"/>
		<path class="st3" d="M44.1,20c0.6-0.3,1.2-0.5,1.9-0.5c1.1,0,2,0.4,2.8,1.1l0.8-0.8c-0.4-0.5-1-0.8-1.6-1.1
			c-0.6-0.2-1.3-0.4-2.1-0.4c-1,0-1.8,0.2-2.6,0.6c-0.8,0.4-1.4,1-1.8,1.7c-0.4,0.7-0.7,1.6-0.7,2.5c0,0.9,0.2,1.7,0.7,2.5
			c0.4,0.7,1,1.3,1.8,1.7c0.8,0.4,1.6,0.6,2.6,0.6c0.7,0,1.3-0.1,2-0.3c0.6-0.2,1.2-0.5,1.6-0.9v-3.7h-1.3v0h-1.7v1.1h1.7v1.9
			c-0.6,0.4-1.4,0.6-2.2,0.6c-0.7,0-1.4-0.2-1.9-0.5c-0.6-0.3-1-0.7-1.4-1.3c-0.3-0.5-0.5-1.2-0.5-1.8c0-0.7,0.2-1.3,0.5-1.9
			C43.1,20.7,43.5,20.3,44.1,20z"/>
	</g>
</g>
</svg>
