<?xml version="1.0" encoding="utf-8"?>
<!-- Generator: Adobe Illustrator 20.0.0, SVG Export Plug-In . SVG Version: 6.00 Build 0)  -->
<svg version="1.1" id="Layer_1" xmlns="http://www.w3.org/2000/svg" xmlns:xlink="http://www.w3.org/1999/xlink" x="0px" y="0px"
	 viewBox="0 0 30 25" style="enable-background:new 0 0 30 25;" xml:space="preserve">
<style type="text/css">
	.st0{clip-path:url(#SVGID_2_);fill:#202342;}
</style>
<g>
	<defs>
		<rect id="SVGID_1_" x="1.2" y="1.8" width="27.5" height="21.4"/>
	</defs>
	<clipPath id="SVGID_2_">
		<use xlink:href="#SVGID_1_"  style="overflow:visible;"/>
	</clipPath>
	<path class="st0" d="M27.2,10.5v-0.2V8.2V5c0-0.9-0.8-1.7-1.7-1.7h-21C3.5,3.3,2.8,4.1,2.8,5v0.9v0.6V8v0.2v0.9V20
		c0,0.9,0.8,1.7,1.7,1.7h21c0.9,0,1.7-0.8,1.7-1.7V10.5z M25.5,23.2h-21c-1.8,0-3.2-1.4-3.2-3.2V5c0-1.8,1.5-3.2,3.2-3.2h21
		c1.8,0,3.2,1.4,3.2,3.2v15C28.8,21.8,27.3,23.2,25.5,23.2"/>
	<path class="st0" d="M18.4,12.8L12,16.6c-0.1,0.1-0.3,0.1-0.4,0c-0.1-0.1-0.2-0.2-0.2-0.4V8.7c0-0.2,0.1-0.3,0.2-0.4
		c0.1,0,0.1-0.1,0.2-0.1c0.1,0,0.1,0,0.2,0.1l6.5,3.8c0.1,0.1,0.2,0.2,0.2,0.4S18.6,12.8,18.4,12.8"/>
</g>
</svg>
