<?xml version="1.0" encoding="utf-8"?>
<!-- Generator: Adobe Illustrator 23.1.1, SVG Export Plug-In . SVG Version: 6.00 Build 0)  -->
<svg version="1.1" id="Capa_1" xmlns="http://www.w3.org/2000/svg" xmlns:xlink="http://www.w3.org/1999/xlink" x="0px" y="0px"
	 viewBox="0 0 30 30" style="enable-background:new 0 0 30 30;" xml:space="preserve">
<style type="text/css">
	.st0{fill:#1A3D82;}
	.st1{fill:#FDFEFF;}
</style>
<g>
	<path class="st0" d="M16.5,26.4C16.5,26.4,16.5,26.4,16.5,26.4l-3-0.1c-0.5,0-0.9-0.4-1-0.9l-0.1-1c-0.1-0.9-0.6-1.7-1.5-2.2
		c-0.8-0.5-1.9-0.5-2.6-0.2l-1.1,0.4c-0.5,0.2-1,0-1.3-0.4l-1.4-2.6c-0.2-0.4-0.1-1,0.3-1.3l0.8-0.5c0.8-0.5,1.3-1.4,1.3-2.4
		c0-1-0.5-2-1.3-2.5l-0.8-0.6c-0.4-0.3-0.5-0.9-0.3-1.3l1.5-2.6c0.3-0.4,0.8-0.6,1.3-0.4l0.9,0.4c0.8,0.4,1.8,0.3,2.7-0.1
		c0.8-0.5,1.4-1.3,1.5-2.3l0.2-1.1c0.1-0.5,0.5-0.9,1-0.9l3,0.1c0.5,0,0.9,0.4,1,0.9l0.1,1c0.1,0.9,0.6,1.7,1.5,2.2
		c0.8,0.5,1.8,0.5,2.6,0.1l1-0.4c0.5-0.2,1,0,1.3,0.4l1.4,2.6c0.2,0.4,0.1,1-0.3,1.3l-0.8,0.5c0,0,0,0,0,0c-0.8,0.5-1.2,1.4-1.2,2.4
		c0,1,0.5,2,1.3,2.5l0.8,0.6c0.4,0.3,0.5,0.9,0.3,1.3L24,22.1c-0.3,0.4-0.8,0.6-1.3,0.4l-0.9-0.4c-0.8-0.4-1.8-0.3-2.7,0.1
		c-0.8,0.5-1.4,1.3-1.5,2.3l-0.2,1.1C17.4,26.1,17,26.4,16.5,26.4z M14.4,24.4l1.2,0l0-0.2c0.1-1.5,1.1-2.9,2.5-3.8
		c1.4-0.8,3.1-0.9,4.5-0.2l0.1,0l0.6-1l0,0c-1.3-0.9-2.2-2.5-2.2-4.2c0-1.6,0.8-3.1,2.1-4l0,0l-0.6-1l-0.2,0.1
		c-1.4,0.6-3.1,0.6-4.5-0.2c-1.4-0.8-2.3-2.2-2.5-3.8l0-0.1l-1.2,0l0,0.2c-0.1,1.5-1.1,2.9-2.5,3.8c-1.4,0.8-3.1,0.9-4.5,0.2l-0.1,0
		l-0.6,1l0,0c1.3,0.9,2.2,2.5,2.2,4.2c0,1.6-0.8,3.1-2.1,4l0,0l0.6,1l0.2-0.1c1.2-0.6,3-0.6,4.5,0.2C13.3,21.3,14.3,22.7,14.4,24.4
		L14.4,24.4z"/>
</g>
<g>
	<path class="st0" d="M15,19.6c-2.4,0-4.4-2-4.4-4.4s2-4.4,4.4-4.4s4.4,2,4.4,4.4S17.5,19.6,15,19.6z M15,12.8
		c-1.3,0-2.4,1.1-2.4,2.4s1.1,2.4,2.4,2.4c1.3,0,2.4-1.1,2.4-2.4S16.4,12.8,15,12.8z"/>
</g>
</svg>
