<?xml version="1.0" encoding="utf-8"?>
<!-- Generator: Adobe Illustrator 23.1.1, SVG Export Plug-In . SVG Version: 6.00 Build 0)  -->
<svg version="1.1" id="Capa_1" xmlns="http://www.w3.org/2000/svg" xmlns:xlink="http://www.w3.org/1999/xlink" x="0px" y="0px"
	 viewBox="0 0 30 30" style="enable-background:new 0 0 30 30;" xml:space="preserve">
<style type="text/css">
	.st0{fill:#1A3D82;}
	.st1{fill:#FDFEFF;}
</style>
<path class="st1" d="M18.4,15.5c1.8-1.1,3-3.1,3-5.4c0-3.5-2.9-6.4-6.4-6.4s-6.4,2.9-6.4,6.4c0,2.3,1.2,4.3,3,5.4
	C7.8,16.9,5,20.5,5,24.7c0,0.2,0,0.4,0,0.7c0,0.5,0.4,0.8,0.9,0.8h18.1c0.5,0,0.9-0.4,0.9-0.8c0-0.2,0-0.5,0-0.7
	C25,20.5,22.2,16.9,18.4,15.5z M10.5,10.1c0-2.5,2-4.5,4.5-4.5s4.5,2,4.5,4.5s-2,4.5-4.5,4.5S10.5,12.6,10.5,10.1z M6.8,24.4
	c0.1-4.2,3.8-7.7,8.2-7.7s8,3.4,8.2,7.7H6.8z"/>
</svg>
