<?xml version="1.0" encoding="utf-8"?>
<!-- Generator: Adobe Illustrator 20.0.0, SVG Export Plug-In . SVG Version: 6.00 Build 0)  -->
<svg version="1.1" id="Layer_1" xmlns="http://www.w3.org/2000/svg" xmlns:xlink="http://www.w3.org/1999/xlink" x="0px" y="0px"
	 viewBox="0 0 30 25" style="enable-background:new 0 0 30 25;" xml:space="preserve">
<style type="text/css">
	.st0{clip-path:url(#SVGID_2_);fill:#202342;}
</style>
<g>
	<defs>
		<rect id="SVGID_1_" x="1.2" y="1.6" width="27.5" height="21.8"/>
	</defs>
	<clipPath id="SVGID_2_">
		<use xlink:href="#SVGID_1_"  style="overflow:visible;"/>
	</clipPath>
	<path class="st0" d="M27.2,14.7l-7.7-7.3c-0.3-0.3-0.8-0.3-1.1,0l-6.6,7l-3.6-2.6c-0.3-0.2-0.8-0.2-1,0.1l-4.5,4.9v-12
		c0-0.9,0.8-1.7,1.7-1.7h21c0.9,0,1.7,0.8,1.7,1.7V14.7z M27.2,20.1c0,0.9-0.8,1.7-1.7,1.7h-21c-0.9,0-1.7-0.8-1.7-1.7v-0.9L8,13.6
		l3.6,2.6c0.3,0.2,0.7,0.2,1-0.1l6.5-6.9l8.2,7.7V20.1z M25.5,1.6h-21c-1.8,0-3.2,1.5-3.2,3.3v15.3c0,1.8,1.5,3.3,3.2,3.3h21
		c1.8,0,3.2-1.5,3.2-3.3V4.9C28.8,3.1,27.3,1.6,25.5,1.6"/>
	<path class="st0" d="M11.2,10.3c-0.9,0-1.7-0.8-1.7-1.7c0-0.9,0.7-1.7,1.7-1.7c0.9,0,1.7,0.8,1.7,1.7C12.9,9.5,12.1,10.3,11.2,10.3
		 M11.2,5.3c-1.8,0-3.2,1.5-3.2,3.3c0,1.8,1.5,3.3,3.2,3.3s3.2-1.5,3.2-3.3C14.4,6.7,13,5.3,11.2,5.3"/>
</g>
</svg>
