<?xml version="1.0" encoding="utf-8"?>
<!-- Generator: Adobe Illustrator 20.0.0, SVG Export Plug-In . SVG Version: 6.00 Build 0)  -->
<svg version="1.1" id="Layer_1" xmlns="http://www.w3.org/2000/svg" xmlns:xlink="http://www.w3.org/1999/xlink" x="0px" y="0px"
	 viewBox="0 0 30 25" style="enable-background:new 0 0 30 25;" xml:space="preserve">
<style type="text/css">
	.st0{clip-path:url(#SVGID_2_);fill:#202342;}
</style>
<g>
	<defs>
		<rect id="SVGID_1_" x="1.6" y="4.1" width="26.7" height="16.9"/>
	</defs>
	<clipPath id="SVGID_2_">
		<use xlink:href="#SVGID_1_"  style="overflow:visible;"/>
	</clipPath>
	<path class="st0" d="M15,14.7c-1.2,0-2.1-1-2.1-2.2c0-1.2,1-2.2,2.1-2.2c1.2,0,2.1,1,2.1,2.2C17.1,13.7,16.2,14.7,15,14.7 M15,8
		c-2.4,0-4.3,2-4.3,4.5c0,2.5,1.9,4.5,4.3,4.5s4.3-2,4.3-4.5S17.4,8,15,8 M15,18.7c-4.6,0-8.8-2.4-10.9-6.2C6.2,8.7,10.4,6.3,15,6.3
		c4.6,0,8.8,2.4,10.9,6.2C23.8,16.3,19.6,18.7,15,18.7 M28.1,12C25.7,7.2,20.6,4.1,15,4.1C9.4,4.1,4.3,7.2,1.9,12l-0.3,0.5L1.9,13
		c2.4,4.8,7.5,7.9,13.1,7.9c5.6,0,10.7-3.1,13.1-7.9l0.3-0.5L28.1,12z"/>
</g>
</svg>
