<?xml version="1.0" encoding="utf-8"?>
<!-- Generator: Adobe Illustrator 23.1.1, SVG Export Plug-In . SVG Version: 6.00 Build 0)  -->
<svg version="1.1" id="Capa_1" xmlns="http://www.w3.org/2000/svg" xmlns:xlink="http://www.w3.org/1999/xlink" x="0px" y="0px"
	 viewBox="0 0 120 120" style="enable-background:new 0 0 120 120;" xml:space="preserve">
<style type="text/css">
	.st0{fill:#E9EEF4;}
	.st1{fill:#F0F4F7;}
</style>
<path class="st0" d="M32.4,45.2c3.4,0,6.7,0.5,9.7,1.5c1.5-8.2,8.9-14.5,17.8-14.5c8.8,0,16.1,6,17.7,14c1.2-0.3,2.5-0.6,3.8-0.8
	c1.7-0.3,3.3-0.4,5-0.4c1.1,0,2.2,0.1,3.3,0.2c-2.2-14-14.8-24.8-29.9-24.8S32.1,31.2,29.9,45.2C30.9,45.2,31.7,45.2,32.4,45.2"/>
<path class="st1" d="M92.9,86.1c-1.4,0.7-3,1.2-4.7,1.5c-0.3,0-1.7,0.1-2.8,0.2H59.3c2.3-2.6,4.6-5.7,6.5-9.6
	c0.4-0.8,0.8-1.7,1.2-2.6c6.3-14.1,14.7-15.8,16.3-16h0.3c0.8-0.1,1.7-0.2,2.5-0.2c2.7,0,5.1,0.7,7.3,1.9c4.4,2.4,7.4,7,7.4,12.3
	c0,3.9-1.7,7.5-4.4,10.1C95.3,84.5,94.1,85.4,92.9,86.1 M19.2,73.6c0-7.8,6.6-14.2,14.7-14.2c5.2,0,9.8,2.6,12.4,6.6
	c1.5,2.2,2.3,4.8,2.3,7.6c0,7-5.3,12.8-12.2,13.9c-0.8,0.1-1.6,0.2-2.5,0.2l0,0c-2.5,0-4.8-0.6-6.9-1.6C22.4,83.7,19.2,79,19.2,73.6
	 M103.8,54.1c-4.7-4-10.9-6.4-17.7-6.4c-1.5,0-2.9,0.1-4.4,0.4c-1.9,0.3-5.5,1-9.5,3.4C71,52.1,69.5,53,68,54.4
	c-3.4,2.7-6.3,6.2-8.9,10.5c-1.5-3.8-3.8-7.3-6.9-10c-4.8-4.3-11.3-7-18.4-7C19.1,47.7,7,59.3,7,73.6s12,25.9,26.8,25.9
	c0.7,0,1.3,0,2-0.1h31h18.9h0.2c1.1-0.1,3-0.2,3.8-0.3C103,97.4,113,86.4,113,73.5C113,65.8,109.4,58.8,103.8,54.1"/>
<path class="st0" d="M52.2,54.7c-1.3,2-2.4,4.2-3.5,6.6c-0.8,1.7-1.6,3.3-2.5,4.7c1.5,2.2,2.3,4.8,2.3,7.6c0,7-5.3,12.8-12.2,13.9
	l0.9-0.1c3.9-0.8,12.8-3.8,18.5-16.6c1-2.2,2.1-4.3,3.2-6.2C57.6,60.9,55.3,57.5,52.2,54.7"/>
</svg>
