<?xml version="1.0" encoding="utf-8"?>
<!-- Generator: Adobe Illustrator 23.1.1, SVG Export Plug-In . SVG Version: 6.00 Build 0)  -->
<svg version="1.1" id="Capa_1" xmlns="http://www.w3.org/2000/svg" xmlns:xlink="http://www.w3.org/1999/xlink" x="0px" y="0px"
	 viewBox="0 0 100 75" style="enable-background:new 0 0 100 75;" xml:space="preserve">
<style type="text/css">
	.st0{clip-path:url(#SVGID_2_);fill:#3C6977;}
	.st1{clip-path:url(#SVGID_2_);fill:#FFFFFF;}
</style>
<g>
	<defs>
		<rect id="SVGID_1_" x="2.44" y="2" width="95.98" height="71.56"/>
	</defs>
	<clipPath id="SVGID_2_">
		<use xlink:href="#SVGID_1_"  style="overflow:visible;"/>
	</clipPath>
	<path class="st0" d="M25.47,24.35c3.08,0,6.04,0.49,8.81,1.38c1.33-7.43,8.06-13.1,16.14-13.1c7.94,0,14.57,5.47,16.07,12.7
		c1.13-0.3,2.29-0.54,3.49-0.7c1.51-0.24,3.03-0.36,4.53-0.36c1.02,0,2.02,0.06,3.01,0.16C75.5,11.75,64.11,2,50.41,2
		c-13.71,0-25.09,9.75-27.09,22.43C24.03,24.38,24.74,24.35,25.47,24.35"/>
	<path class="st1" d="M80.2,61.41c-1.31,0.66-2.74,1.12-4.26,1.32c-0.3,0.04-1.5,0.13-2.52,0.2L49.75,62.9
		c2.12-2.33,4.14-5.19,5.92-8.66c0.39-0.75,0.77-1.52,1.13-2.34c5.69-12.74,13.34-14.29,14.81-14.47l0.23-0.03
		c0.76-0.12,1.52-0.19,2.26-0.19c2.4,0,4.66,0.62,6.6,1.7c4,2.21,6.7,6.37,6.7,11.13c0,3.54-1.52,6.79-3.99,9.13
		C82.41,59.99,81.34,60.75,80.2,61.41 M13.46,50.11c0-7.07,5.97-12.83,13.31-12.83c4.71,0,8.86,2.38,11.22,5.95
		c1.32,1.99,2.08,4.35,2.08,6.88c0,6.32-4.77,11.58-11.01,12.63c-0.74,0.12-1.49,0.19-2.27,0.19h-0.02c-2.24,0-4.36-0.54-6.22-1.49
		C16.34,59.29,13.46,55.02,13.46,50.11 M90.12,32.42c-4.28-3.63-9.89-5.84-16.03-5.84c-1.32,0-2.67,0.11-4,0.32
		c-1.76,0.23-4.95,0.94-8.63,3.07c-1.12,0.57-2.42,1.4-3.78,2.62c-3.05,2.49-5.75,5.66-8.07,9.48c-1.32-3.48-3.47-6.57-6.22-9.06
		c-4.35-3.94-10.2-6.36-16.63-6.36c-13.41,0-24.32,10.52-24.32,23.45c0,12.93,10.91,23.45,24.32,23.45c0.61,0,1.2-0.03,1.8-0.07
		l28.12,0.04l17.14,0.03l0.2-0.01c0.98-0.07,2.74-0.2,3.42-0.29c11.96-1.59,20.98-11.57,20.98-23.23
		C98.42,43.02,95.2,36.72,90.12,32.42"/>
	<path class="st0" d="M43.39,33.02c-1.15,1.85-2.2,3.84-3.17,6c-0.7,1.56-1.45,2.96-2.24,4.22c1.32,1.99,2.08,4.35,2.08,6.88
		c0,6.32-4.77,11.58-11.01,12.63l0.85-0.05c3.54-0.68,11.64-3.49,16.78-15c0.9-2.01,1.88-3.88,2.94-5.62
		C48.3,38.6,46.14,35.51,43.39,33.02"/>
</g>
</svg>
