<?xml version="1.0" encoding="utf-8"?>
<!-- Generator: Adobe Illustrator 23.1.1, SVG Export Plug-In . SVG Version: 6.00 Build 0)  -->
<svg version="1.1" id="Capa_1" xmlns="http://www.w3.org/2000/svg" xmlns:xlink="http://www.w3.org/1999/xlink" x="0px" y="0px"
	 viewBox="0 0 50 50" style="enable-background:new 0 0 50 50;" xml:space="preserve">
<style type="text/css">
	.st0{fill:#FFFFFF;}
</style>
<g>
	<path class="st0" d="M46.4,31.5l-1.6-1.2c-1.9-1.3-3.1-3.5-3.1-5.9c0-2.2,1.1-4.3,2.9-5.6c0,0,0,0,0,0l1.6-1.2
		c0.7-0.5,0.9-1.4,0.5-2.1l-3-5.6c-0.4-0.7-1.3-1-2-0.7l-2.2,0.9c-2,0.9-4.3,0.8-6.2-0.3c-2-1.1-3.2-3.1-3.4-5.2l-0.2-2.1
		c-0.1-0.8-0.7-1.5-1.6-1.5L21.7,1c0,0,0,0,0,0c-0.8,0-1.5,0.6-1.6,1.4l-0.3,2.3c-0.2,2.1-1.5,4.1-3.4,5.2c-2,1.1-4.3,1.3-6.2,0.3
		l-2-0.9C7.4,9,6.5,9.2,6.1,10l-3.3,5.5c-0.4,0.7-0.2,1.6,0.4,2.1l1.6,1.2c1.9,1.3,3.1,3.5,3.1,5.9c0,2.2-1.1,4.3-2.9,5.6l-1.6,1.2
		c-0.7,0.5-0.9,1.4-0.5,2.1l3,5.6c0.4,0.7,1.3,1,2,0.7l2.2-0.9c1.8-0.9,4.2-0.8,6.1,0.3c2,1.1,3.2,3.1,3.4,5.2l0.2,2.1
		c0.1,0.8,0.7,1.5,1.6,1.5l6.4,0.2c0,0,0,0,0,0c0.8,0,1.5-0.6,1.6-1.4l0.3-2.3c0.2-2.1,1.5-4.1,3.4-5.2c2-1.1,4.3-1.3,6.2-0.3l2,0.9
		c0.7,0.4,1.6,0.1,2.1-0.6l3.3-5.5C47.2,32.9,47,32,46.4,31.5z M41.5,36.2l-0.6-0.3c-2.9-1.4-6.4-1.2-9.2,0.4
		c-2.9,1.7-4.7,4.6-5,7.7l-0.1,0.8L23,44.8l-0.1-0.7c-0.3-3.2-2.2-6.1-5-7.7c-2.9-1.7-6.6-1.7-9.1-0.5L8,36.2l-1.7-3l0.5-0.3
		c2.7-1.9,4.3-4.9,4.3-8.2c0-3.4-1.7-6.6-4.4-8.5l-0.4-0.3l1.8-3l0.6,0.3c2.9,1.4,6.4,1.2,9.2-0.4c2.9-1.7,4.7-4.6,5-7.7l0.1-0.8
		l3.5,0.1L26.7,5c0.3,3.2,2.2,6.1,5,7.7c2.8,1.6,6.2,1.8,9.1,0.5l0.8-0.3l1.7,3l-0.5,0.3c-2.7,1.9-4.3,4.9-4.3,8.2
		c0,3.4,1.7,6.6,4.4,8.5l0.4,0.3L41.5,36.2z"/>
	<path class="st0" d="M24.8,15.6c-4.9,0-8.9,4-8.9,8.9s4,8.9,8.9,8.9s8.9-4,8.9-8.9S29.7,15.6,24.8,15.6z M24.8,30.3
		c-3.2,0-5.7-2.6-5.7-5.7c0-3.2,2.6-5.7,5.7-5.7c3.2,0,5.7,2.6,5.7,5.7C30.5,27.7,28,30.3,24.8,30.3z"/>
</g>
</svg>
