<?xml version="1.0" encoding="utf-8"?>
<!-- Generator: Adobe Illustrator 20.0.0, SVG Export Plug-In . SVG Version: 6.00 Build 0)  -->
<svg version="1.1" id="Layer_1" xmlns="http://www.w3.org/2000/svg" xmlns:xlink="http://www.w3.org/1999/xlink" x="0px" y="0px"
	 viewBox="0 0 20 20" style="enable-background:new 0 0 20 20;" xml:space="preserve">
<style type="text/css">
	.st0{clip-path:url(#SVGID_2_);fill:#212442;}
</style>
<g>
	<defs>
		<rect id="SVGID_1_" x="7.6" y="2.5" width="4.9" height="14.9"/>
	</defs>
	<clipPath id="SVGID_2_">
		<use xlink:href="#SVGID_1_"  style="overflow:visible;"/>
	</clipPath>
	<path class="st0" d="M10.2,4.8c0.3,0.2,0.6,0.4,1,0.3c0.4,0,0.7-0.1,1-0.4c0.2-0.2,0.4-0.6,0.4-0.9c0-0.4-0.1-0.7-0.4-0.9
		c-0.3-0.2-0.6-0.4-1-0.4c-0.4,0-0.7,0.1-1,0.4C9.9,3.2,9.8,3.5,9.8,3.9C9.8,4.2,9.9,4.5,10.2,4.8 M11.8,6.7H9.4L7.6,17.5h2.4
		L11.8,6.7z"/>
</g>
</svg>
