<?xml version="1.0" encoding="utf-8"?>
<!-- Generator: Adobe Illustrator 23.1.1, SVG Export Plug-In . SVG Version: 6.00 Build 0)  -->
<svg version="1.1" id="Layer_1" xmlns="http://www.w3.org/2000/svg" xmlns:xlink="http://www.w3.org/1999/xlink" x="0px" y="0px"
	 viewBox="0 0 20 20" style="enable-background:new 0 0 20 20;" xml:space="preserve">
<style type="text/css">
	.st0{fill:#212442;}
</style>
<path class="st0" d="M16,9.1c0.5-0.5,0.7-1.1,0.7-1.7c0-0.7-0.3-1.3-0.7-1.7l-1.6-1.6c-1-1-2.5-1-3.5,0l-3,3
	C7.8,7.2,7.7,7.3,7.6,7.4l-3-0.2c0,0,0,0-0.1,0C4.3,7.2,4,7.5,3.9,7.8c-0.1,0.3,0,0.7,0.2,0.9l2.7,2.7C5.5,12.7,3.6,15,3.6,15
	c-0.7,0.7-0.9,1.5-0.4,1.9c0.2,0.2,0.4,0.2,0.6,0.2c0.4,0,0.9-0.2,1.3-0.6c0,0,2.3-1.9,3.7-3.1l2.8,2.8c0.2,0.2,0.4,0.3,0.6,0.3
	c0.1,0,0.2,0,0.3-0.1c0.3-0.1,0.5-0.4,0.6-0.7c0,0,0,0,0-0.1l-0.1-3.3c0,0,0.1-0.1,0.1-0.1L16,9.1z M4.4,15.7
	c0.2-0.2,1.9-2.3,3.1-3.6L8,12.6C6.7,13.7,4.7,15.4,4.4,15.7z M12.2,11.4c-0.1,0.1-0.3,0.4-0.3,0.4c-0.1,0.1-0.1,0.2-0.1,0.3
	l0.1,2.9L8.9,12l-0.1-0.1c0,0,0,0,0,0L5.1,8.3l2.7,0.1c0.1,0,0.3,0,0.4-0.1c0,0,0.3-0.3,0.5-0.4l3-3c0.5-0.5,1.5-0.5,2,0l1.6,1.6
	c0.3,0.3,0.4,0.6,0.4,1c0,0.4-0.1,0.7-0.4,1L12.2,11.4z"/>
</svg>
