<?xml version="1.0" encoding="utf-8"?>
<!-- Generator: Adobe Illustrator 20.0.0, SVG Export Plug-In . SVG Version: 6.00 Build 0)  -->
<svg version="1.1" id="Layer_1" xmlns="http://www.w3.org/2000/svg" xmlns:xlink="http://www.w3.org/1999/xlink" x="0px" y="0px"
	 viewBox="0 0 20 20" style="enable-background:new 0 0 20 20;" xml:space="preserve">
<style type="text/css">
	.st0{clip-path:url(#SVGID_2_);fill:#212442;}
</style>
<g>
	<defs>
		<rect id="SVGID_1_" x="3.3" y="3.3" width="13.4" height="13.4"/>
	</defs>
	<clipPath id="SVGID_2_">
		<use xlink:href="#SVGID_1_"  style="overflow:visible;"/>
	</clipPath>
	<path class="st0" d="M12,4.2L15.8,8l-5.6,5.6L6.4,9.8L12,4.2z M16.3,15.9H8.9l1.5-1.5l6.1-6.1c0.1-0.1,0.1-0.4,0-0.5c0,0,0,0,0,0
		l-4.3-4.3c-0.1-0.1-0.4-0.1-0.5,0c0,0,0,0,0,0L5.6,9.5l-2.2,2.2c-0.1,0.1-0.1,0.2-0.1,0.3c0,0.1,0,0.2,0.1,0.3l4.3,4.3
		c0.1,0.1,0.2,0.1,0.3,0.1c0,0,0,0,0.1,0c0,0,0,0,0.1,0h8.2c0.2,0,0.4-0.2,0.4-0.4C16.7,16.1,16.5,15.9,16.3,15.9"/>
</g>
</svg>
