<?xml version="1.0" encoding="utf-8"?>
<!-- Generator: Adobe Illustrator 23.1.1, SVG Export Plug-In . SVG Version: 6.00 Build 0)  -->
<svg version="1.1" id="Layer_1" xmlns="http://www.w3.org/2000/svg" xmlns:xlink="http://www.w3.org/1999/xlink" x="0px" y="0px"
	 viewBox="0 0 20 20" style="enable-background:new 0 0 20 20;" xml:space="preserve">
<style type="text/css">
	.st0{fill:#212442;}
</style>
<path class="st0" d="M11.4,10l4.2-4.2c0.4-0.4,0.4-1,0-1.4s-1-0.4-1.4,0L10,8.6L5.8,4.3C5.4,4,4.7,4,4.3,4.3s-0.4,1,0,1.4L8.6,10
	l-4.2,4.2c-0.4,0.4-0.4,1,0,1.4C4.5,15.9,4.8,16,5,16s0.5-0.1,0.7-0.3l4.2-4.2l4.2,4.2c0.2,0.2,0.5,0.3,0.7,0.3s0.5-0.1,0.7-0.3
	c0.4-0.4,0.4-1,0-1.4L11.4,10z"/>
</svg>
