<?xml version="1.0" encoding="utf-8"?>
<!-- Generator: Adobe Illustrator 20.0.0, SVG Export Plug-In . SVG Version: 6.00 Build 0)  -->
<svg version="1.1" id="Layer_1" xmlns="http://www.w3.org/2000/svg" xmlns:xlink="http://www.w3.org/1999/xlink" x="0px" y="0px"
	 viewBox="0 0 20 20" style="enable-background:new 0 0 20 20;" xml:space="preserve">
<style type="text/css">
	.st0{clip-path:url(#SVGID_2_);fill:#212442;}
</style>
<g>
	<defs>
		<rect id="SVGID_1_" x="2.7" y="4.2" width="14.7" height="11.6"/>
	</defs>
	<clipPath id="SVGID_2_">
		<use xlink:href="#SVGID_1_"  style="overflow:visible;"/>
	</clipPath>
	<path class="st0" d="M5.7,6.6C5.6,6.7,5.6,6.8,5.9,6.8h7c2.5,0,4.5,2,4.5,4.5c0,2.5-2,4.5-4.5,4.5H9.2c-0.4,0-0.8-0.4-0.8-0.8
		c0-0.5,0.4-0.8,0.8-0.8h3.7c1.6,0,2.9-1.3,2.9-2.9c0-1.6-1.3-2.9-2.9-2.9h-7c-0.2,0-0.3,0.1-0.1,0.3l1,1C7,10,7,10.6,6.7,10.9
		c-0.3,0.3-0.8,0.3-1.2,0L2.9,8.2c-0.3-0.3-0.3-0.8,0-1.2l2.6-2.6c0.3-0.3,0.8-0.3,1.2,0C7,4.7,7,5.3,6.7,5.6L5.7,6.6z"/>
</g>
</svg>
