<?xml version="1.0" encoding="utf-8"?>
<!-- Generator: Adobe Illustrator 20.0.0, SVG Export Plug-In . SVG Version: 6.00 Build 0)  -->
<svg version="1.1" id="Layer_1" xmlns="http://www.w3.org/2000/svg" xmlns:xlink="http://www.w3.org/1999/xlink" x="0px" y="0px"
	 viewBox="0 0 20 20" style="enable-background:new 0 0 20 20;" xml:space="preserve">
<style type="text/css">
	.st0{clip-path:url(#SVGID_2_);fill:#212442;}
</style>
<g>
	<defs>
		<rect id="SVGID_1_" x="4" y="2.6" width="11.9" height="14.9"/>
	</defs>
	<clipPath id="SVGID_2_">
		<use xlink:href="#SVGID_1_"  style="overflow:visible;"/>
	</clipPath>
	<path class="st0" d="M13.3,13.9c0.8-0.8,1.3-1.8,1.3-3.1V2.6h-2.1v8.2c0,1.7-0.8,2.6-2.5,2.6c-0.8,0-1.4-0.2-1.8-0.7
		c-0.4-0.4-0.6-1.1-0.6-1.9V2.6H5.4v8.2c0,1.3,0.4,2.4,1.2,3.1c0.8,0.8,2,1.1,3.4,1.1C11.4,15.1,12.5,14.7,13.3,13.9 M16,16.1H4v1.4
		H16V16.1z"/>
</g>
</svg>
