<?xml version="1.0" encoding="utf-8"?>
<!-- Generator: Adobe Illustrator 23.1.1, SVG Export Plug-In . SVG Version: 6.00 Build 0)  -->
<svg version="1.1" id="Layer_1" xmlns="http://www.w3.org/2000/svg" xmlns:xlink="http://www.w3.org/1999/xlink" x="0px" y="0px"
	 viewBox="0 0 20 20" style="enable-background:new 0 0 20 20;" xml:space="preserve">
<style type="text/css">
	.st0{fill:#212442;}
</style>
<g>
	<path class="st0" d="M3.4,11.1h13.2c0.6,0,1.1-0.5,1.1-1.1s-0.5-1.1-1.1-1.1H3.4c-0.6,0-1.1,0.5-1.1,1.1S2.8,11.1,3.4,11.1z"/>
	<path class="st0" d="M7.8,6.7h8.8c0.6,0,1.1-0.5,1.1-1.1s-0.5-1.1-1.1-1.1H7.8C7.2,4.5,6.7,5,6.7,5.6S7.2,6.7,7.8,6.7z"/>
	<path class="st0" d="M16.6,13.3H7.8c-0.6,0-1.1,0.5-1.1,1.1c0,0.6,0.5,1.1,1.1,1.1h8.8c0.6,0,1.1-0.5,1.1-1.1
		C17.7,13.8,17.2,13.3,16.6,13.3z"/>
</g>
</svg>
