<?xml version="1.0" encoding="utf-8"?>
<!-- Generator: Adobe Illustrator 23.1.1, SVG Export Plug-In . SVG Version: 6.00 Build 0)  -->
<svg version="1.1" id="Layer_1" xmlns="http://www.w3.org/2000/svg" xmlns:xlink="http://www.w3.org/1999/xlink" x="0px" y="0px"
	 viewBox="0 0 20 20" style="enable-background:new 0 0 20 20;" xml:space="preserve">
<style type="text/css">
	.st0{fill:#212442;}
</style>
<g>
	<path class="st0" d="M79,6.2h13.2c0.6,0,1.1-0.5,1.1-1.1S92.8,4,92.2,4H79c-0.6,0-1.1,0.5-1.1,1.1S78.4,6.2,79,6.2z"/>
	<path class="st0" d="M79,10.5h13.2c0.6,0,1.1-0.5,1.1-1.1c0-0.6-0.5-1.1-1.1-1.1H79c-0.6,0-1.1,0.5-1.1,1.1
		C77.9,10.1,78.4,10.5,79,10.5z"/>
	<path class="st0" d="M79,1.8h13.2c0.6,0,1.1-0.5,1.1-1.1s-0.5-1.1-1.1-1.1H79c-0.6,0-1.1,0.5-1.1,1.1S78.4,1.8,79,1.8z"/>
</g>
<g>
	<path class="st0" d="M3.4,11.1h13.2c0.6,0,1.1-0.5,1.1-1.1s-0.5-1.1-1.1-1.1H3.4c-0.6,0-1.1,0.5-1.1,1.1S2.8,11.1,3.4,11.1z"/>
	<path class="st0" d="M5.6,6.7h8.8c0.6,0,1.1-0.5,1.1-1.1S15,4.5,14.4,4.5H5.6C5,4.5,4.5,5,4.5,5.6S5,6.7,5.6,6.7z"/>
	<path class="st0" d="M5.6,13.3c-0.6,0-1.1,0.5-1.1,1.1c0,0.6,0.5,1.1,1.1,1.1h8.8c0.6,0,1.1-0.5,1.1-1.1c0-0.6-0.5-1.1-1.1-1.1H5.6
		z"/>
</g>
</svg>
