<?xml version="1.0" encoding="utf-8"?>
<!-- Generator: Adobe Illustrator 23.1.1, SVG Export Plug-In . SVG Version: 6.00 Build 0)  -->
<svg version="1.1" id="Layer_1" xmlns="http://www.w3.org/2000/svg" xmlns:xlink="http://www.w3.org/1999/xlink" x="0px" y="0px"
	 viewBox="0 0 20 20" style="enable-background:new 0 0 20 20;" xml:space="preserve">
<style type="text/css">
	.st0{fill:#212442;}
</style>
<path class="st0" d="M2.8,15.3c0-0.8,0.6-1.4,1.4-1.4s1.4,0.6,1.4,1.4c0,0.8-0.6,1.4-1.4,1.4S2.8,16.1,2.8,15.3z M4.2,6.2
	c0.8,0,1.4-0.6,1.4-1.4S5,3.3,4.2,3.3S2.8,3.9,2.8,4.7S3.4,6.2,4.2,6.2z M4.2,11.4c0.8,0,1.4-0.6,1.4-1.4S5,8.6,4.2,8.6
	S2.8,9.2,2.8,10S3.4,11.4,4.2,11.4z M9,5.7h7.2c0.5,0,1-0.4,1-1s-0.4-1-1-1H9c-0.5,0-1,0.4-1,1S8.5,5.7,9,5.7z M9,11h7.2
	c0.5,0,1-0.4,1-1s-0.4-1-1-1H9c-0.5,0-1,0.4-1,1S8.5,11,9,11z M9,16.2h7.2c0.5,0,1-0.4,1-1s-0.4-1-1-1H9c-0.5,0-1,0.4-1,1
	S8.5,16.2,9,16.2z"/>
</svg>
