<?xml version="1.0" encoding="utf-8"?>
<!-- Generator: Adobe Illustrator 23.1.1, SVG Export Plug-In . SVG Version: 6.00 Build 0)  -->
<svg version="1.1" id="Layer_1" xmlns="http://www.w3.org/2000/svg" xmlns:xlink="http://www.w3.org/1999/xlink" x="0px" y="0px"
	 viewBox="0 0 20 20" style="enable-background:new 0 0 20 20;" xml:space="preserve">
<style type="text/css">
	.st0{fill:#212442;}
</style>
<g>
	<path class="st0" d="M16.2,9H9c-0.5,0-1,0.4-1,1s0.4,1,1,1h7.2c0.5,0,1-0.4,1-1S16.8,9,16.2,9z"/>
	<path class="st0" d="M9,5.7h7.2c0.5,0,1-0.4,1-1c0-0.5-0.4-1-1-1H9c-0.5,0-1,0.4-1,1C8.1,5.3,8.5,5.7,9,5.7z"/>
	<path class="st0" d="M16.2,14.3H9c-0.5,0-1,0.4-1,1c0,0.5,0.4,1,1,1h7.2c0.5,0,1-0.4,1-1C17.2,14.7,16.8,14.3,16.2,14.3z"/>
	<path class="st0" d="M4.6,10.2c0.1-0.1,0.2-0.3,0.3-0.4s0.1-0.2,0.1-0.3c0-0.2-0.1-0.3-0.2-0.4C4.6,9,4.5,8.9,4.2,8.9
		C4.1,8.9,4,8.9,3.8,9C3.7,9.1,3.6,9.1,3.6,9.2C3.5,9.4,3.5,9.5,3.5,9.6h0.4c0-0.1,0-0.2,0.1-0.3c0.1-0.1,0.1-0.1,0.2-0.1
		c0.1,0,0.2,0,0.2,0.1c0,0.1,0.1,0.1,0.1,0.2c0,0.1,0,0.1-0.1,0.2c0,0.1-0.1,0.2-0.2,0.3l-0.7,0.7v0.3H5v-0.3H4.1L4.6,10.2z"/>
	<polygon class="st0" points="4,5.6 4.5,5.6 4.5,3.5 4.4,3.5 3.5,3.8 3.5,4.1 4,4 	"/>
	<path class="st0" d="M4.6,15.2c0.1,0,0.2-0.1,0.2-0.2s0.1-0.2,0.1-0.3c0-0.2-0.1-0.3-0.2-0.4c-0.1-0.1-0.3-0.2-0.5-0.2
		c-0.1,0-0.2,0-0.4,0.1c-0.1,0-0.2,0.1-0.3,0.2c-0.1,0.1-0.1,0.2-0.1,0.3H4c0-0.1,0-0.1,0.1-0.2c0.1,0,0.1-0.1,0.2-0.1
		c0.1,0,0.2,0,0.2,0.1c0.1,0,0.1,0.1,0.1,0.2c0,0.1,0,0.2-0.1,0.2s-0.1,0.1-0.2,0.1H4v0.3h0.2c0.2,0,0.4,0.1,0.4,0.3
		c0,0.1,0,0.2-0.1,0.2C4.4,16,4.3,16,4.2,16C4.2,16,4.1,16,4,16c-0.1-0.1-0.1-0.1-0.1-0.2H3.5c0,0.2,0.1,0.3,0.2,0.4
		c0.1,0.1,0.3,0.2,0.5,0.2c0.2,0,0.4-0.1,0.5-0.2C4.9,16.1,5,15.9,5,15.7c0-0.1,0-0.2-0.1-0.3C4.8,15.4,4.7,15.3,4.6,15.2z"/>
</g>
</svg>
