<?xml version="1.0" encoding="utf-8"?>
<!-- Generator: Adobe Illustrator 23.1.1, SVG Export Plug-In . SVG Version: 6.00 Build 0)  -->
<svg version="1.1" id="Capa_1" xmlns="http://www.w3.org/2000/svg" xmlns:xlink="http://www.w3.org/1999/xlink" x="0px" y="0px"
	 viewBox="0 0 30 30" style="enable-background:new 0 0 30 30;" xml:space="preserve">
<style type="text/css">
	.st0{fill:#1A3D82;}
</style>
<g>
	<path class="st0" d="M25.5,6.3c-0.4,0.3-0.8,0.5-1.3,0.6c-0.4,0.2-0.9,0.3-1.3,0.4c-0.2,0.1-0.4,0-0.5-0.1c-1.3-1.2-2.8-1.5-4.5-1
		c-2.2,0.7-3.5,2.9-3.1,5.2c0,0.1,0,0.2-0.1,0.2c-0.7-0.1-1.5-0.2-2.2-0.3c-2.7-0.7-4.9-2-6.7-4.1C5.6,7,5.6,6.9,5.4,6.8
		c-0.6,1-0.7,2.1-0.5,3.3c0.3,1.2,0.9,2.1,1.9,2.8c-0.2,0-0.3,0-0.4,0c-0.5-0.1-1-0.2-1.5-0.5c-0.1-0.1-0.2-0.1-0.2,0.1
		c0.1,1.6,0.7,2.8,2,3.7c0.5,0.3,1,0.6,1.6,0.7c-0.7,0.2-1.3,0.2-2,0.1c0.3,0.9,0.8,1.7,1.6,2.3c0.8,0.6,1.6,0.9,2.6,0.9
		c-2,1.5-4.2,2.1-6.7,1.9c1.6,1,3.4,1.7,5.2,1.9c1.6,0.2,3.3,0.2,4.9-0.2c3.1-0.7,5.6-2.4,7.4-5.1c1.7-2.4,2.5-5.1,2.4-8
		c0-0.1,0-0.2,0.1-0.3c0.4-0.3,0.7-0.6,1-0.9c0.1-0.1,0.3-0.3,0.4-0.4c0.1-0.1,0.2-0.3,0.4-0.4c0.1-0.1,0.2-0.3,0.3-0.4
		c-0.8,0.3-1.6,0.5-2.5,0.6C24.5,8.2,25.2,7.4,25.5,6.3z"/>
</g>
</svg>
