<?xml version="1.0" encoding="utf-8"?>
<!-- Generator: Adobe Illustrator 20.0.0, SVG Export Plug-In . SVG Version: 6.00 Build 0)  -->
<svg version="1.1" id="Layer_1" xmlns="http://www.w3.org/2000/svg" xmlns:xlink="http://www.w3.org/1999/xlink" x="0px" y="0px"
	 viewBox="0 0 30 25" style="enable-background:new 0 0 30 25;" xml:space="preserve">
<style type="text/css">
	.st0{clip-path:url(#SVGID_2_);fill:#202342;}
</style>
<g>
	<defs>
		<rect id="SVGID_1_" x="6" y="1.6" width="18" height="21.8"/>
	</defs>
	<clipPath id="SVGID_2_">
		<use xlink:href="#SVGID_1_"  style="overflow:visible;"/>
	</clipPath>
	<path class="st0" d="M15.4,18.6c-0.7,0-1.4-0.6-1.4-1.4V4.4c0-0.8,0.6-1.4,1.4-1.4c0.7,0,1.4,0.6,1.4,1.4v12.8
		C16.8,18,16.2,18.6,15.4,18.6"/>
	<path class="st0" d="M21.6,11.3c-0.3,0-0.7-0.1-1-0.4l-5.4-5.5l-5.1,5.2c-0.5,0.5-1.4,0.5-1.9,0c-0.5-0.5-0.5-1.4,0-1.9l7-7.1
		L22.6,9c0.5,0.5,0.5,1.4,0,1.9C22.3,11.2,22,11.3,21.6,11.3"/>
	<path class="st0" d="M22.7,23.4H7.3C6.6,23.4,6,22.8,6,22c0-0.8,0.6-1.4,1.4-1.4h15.3c0.7,0,1.4,0.6,1.4,1.4
		C24,22.8,23.4,23.4,22.7,23.4"/>
</g>
</svg>
