<?xml version="1.0" encoding="utf-8"?>
<!-- Generator: Adobe Illustrator 23.1.1, SVG Export Plug-In . SVG Version: 6.00 Build 0)  -->
<svg version="1.1" id="Capa_1" xmlns="http://www.w3.org/2000/svg" xmlns:xlink="http://www.w3.org/1999/xlink" x="0px" y="0px"
	 viewBox="0 0 32 32" style="enable-background:new 0 0 32 32;" xml:space="preserve">
<style type="text/css">
	.st0{fill:#FFFFFF;}
</style>
<path class="st0" d="M19.3,16.3c2-1.2,3.3-3.4,3.3-5.9c0-3.9-3.1-7-7-7s-7,3.1-7,7c0,2.5,1.3,4.7,3.3,5.9c-4.2,1.5-7.3,5.4-7.3,10.1
	c0,0.3,0,0.5,0,0.8c0,0.5,0.5,0.9,1,0.9h19.9c0.5,0,1-0.5,1-1c0-0.2,0-0.5,0-0.7C26.6,21.8,23.5,17.8,19.3,16.3z M10.6,10.4
	c0-2.8,2.2-5,5-5s5,2.2,5,5s-2.2,5-5,5S10.6,13.2,10.6,10.4z M6.6,26.1c0.2-4.7,4.1-8.4,9-8.4s8.8,3.8,9,8.4H6.6z"/>
</svg>
