<?xml version="1.0" encoding="utf-8"?>
<!-- Generator: Adobe Illustrator 20.0.0, SVG Export Plug-In . SVG Version: 6.00 Build 0)  -->
<svg version="1.1" id="Layer_1" xmlns="http://www.w3.org/2000/svg" xmlns:xlink="http://www.w3.org/1999/xlink" x="0px" y="0px"
	 viewBox="0 0 32 32" style="enable-background:new 0 0 32 32;" xml:space="preserve">
<style type="text/css">
	.st0{fill:#E2E2E2;}
	.st1{fill:#FFFFFF;}
	.st2{opacity:0.15;fill:#072038;}
</style>
<g>
	<g>
		<path class="st0" d="M8.1,11.6c1,0,1.9,0.2,2.8,0.5c0.4-2.4,2.6-4.3,5.1-4.3c2.5,0,4.6,1.8,5.1,4.2c0.4-0.1,0.7-0.2,1.1-0.2
			c0.5-0.1,1-0.1,1.4-0.1c0.3,0,0.6,0,1,0.1c-0.6-4.2-4.2-7.4-8.6-7.4c-4.3,0-7.9,3.2-8.6,7.4C7.6,11.6,7.9,11.6,8.1,11.6z"/>
	</g>
	<path class="st1" d="M28.6,14.2c-1.4-1.2-3.1-1.9-5.1-1.9c-0.4,0-0.8,0-1.3,0.1c-0.6,0.1-1.6,0.3-2.7,1c-0.4,0.2-0.8,0.5-1.2,0.9
		c-1,0.8-1.8,1.9-2.6,3.1c-0.4-1.1-1.1-2.2-2-3c-1.4-1.3-3.2-2.1-5.3-2.1c-4.2,0-7.7,3.5-7.7,7.7s3.5,7.7,7.7,7.7c0.2,0,0.4,0,0.6,0
		l8.9,0l5.4,0l0.1,0c0.3,0,0.9-0.1,1.1-0.1c3.8-0.5,6.6-3.8,6.6-7.6C31.2,17.7,30.2,15.7,28.6,14.2z M4.3,20c0-2.3,1.9-4.2,4.2-4.2
		c1.5,0,2.8,0.8,3.6,2c0.4,0.7,0.7,1.4,0.7,2.3c0,2.1-1.5,3.8-3.5,4.1c-0.2,0-0.5,0.1-0.7,0.1c0,0,0,0,0,0c-0.7,0-1.4-0.2-2-0.5
		C5.2,23.1,4.3,21.7,4.3,20z M25.4,23.8c-0.4,0.2-0.9,0.4-1.3,0.4c-0.1,0-0.5,0-0.8,0.1l-7.5,0c0.7-0.8,1.3-1.7,1.9-2.8
		c0.1-0.2,0.2-0.5,0.4-0.8c1.8-4.2,4.2-4.7,4.7-4.8l0.1,0c0.2,0,0.5-0.1,0.7-0.1c0.8,0,1.5,0.2,2.1,0.6c1.3,0.7,2.1,2.1,2.1,3.7
		c0,1.2-0.5,2.2-1.3,3C26.1,23.3,25.8,23.5,25.4,23.8z"/>
	<path class="st2" d="M12.1,17.8c0.4,0.7,0.7,1.4,0.7,2.3c0,2.1-1.5,3.8-3.5,4.1l0.3,0c1.1-0.2,3.7-1.1,5.3-4.9
		c0.3-0.7,0.6-1.3,0.9-1.8c-0.4-1.1-1.1-2.2-2-3c-0.4,0.6-0.7,1.3-1,2C12.5,16.9,12.3,17.4,12.1,17.8z"/>
</g>
</svg>
