<?xml version="1.0" encoding="utf-8"?>
<!-- Generator: Adobe Illustrator 23.1.1, SVG Export Plug-In . SVG Version: 6.00 Build 0)  -->
<svg version="1.1" id="Capa_1" xmlns="http://www.w3.org/2000/svg" xmlns:xlink="http://www.w3.org/1999/xlink" x="0px" y="0px"
	 viewBox="0 0 200 200" style="enable-background:new 0 0 200 200;" xml:space="preserve">
<style type="text/css">
	.st0{fill:#E4E8EF;}
	.st1{fill:#EAEFEF;}
	.st2{opacity:7.000000e-02;fill:#072038;}
</style>
<g>
	<path class="st0" d="M52.1,72.7c5.9,0,11.7,1,17,2.8c2.6-14.9,15.6-26.2,31.2-26.2c15.3,0,28.1,11,31,25.4c2.2-0.6,4.4-1.1,6.7-1.4
		c2.9-0.5,5.9-0.7,8.7-0.7c2,0,3.9,0.1,5.8,0.3c-3.9-25.4-25.9-44.9-52.3-44.9c-26.5,0-48.4,19.5-52.3,44.9
		C49.4,72.8,50.8,72.7,52.1,72.7z"/>
</g>
<path class="st1" d="M177,88.9c-8.3-7.3-19.1-11.7-31-11.7c-2.6,0-5.1,0.2-7.7,0.6c-3.4,0.5-9.6,1.9-16.7,6.1
	c-2.2,1.1-4.7,2.8-7.3,5.2c-5.9,5-11.1,11.3-15.6,19c-2.5-7-6.7-13.2-12-18.1c-8.4-7.9-19.7-12.7-32.1-12.7c-25.9,0-47,21.1-47,47
	s21.1,47,47,47c1.2,0,2.3-0.1,3.5-0.1l54.3,0.1l33.1,0.1l0.4,0c1.9-0.1,5.3-0.4,6.6-0.6c23.1-3.2,40.5-23.2,40.5-46.5
	C193,110.1,186.8,97.5,177,88.9z M29,124.3c0-14.2,11.5-25.7,25.7-25.7c9.1,0,17.1,4.8,21.7,11.9c2.5,4,4,8.7,4,13.8
	c0,12.7-9.2,23.2-21.3,25.3c-1.4,0.2-2.9,0.4-4.4,0.4c0,0,0,0,0,0c-4.3,0-8.4-1.1-12-3C34.5,142.7,29,134.1,29,124.3z M157.8,146.9
	c-2.5,1.3-5.3,2.2-8.2,2.6c-0.6,0.1-2.9,0.3-4.9,0.4L99,149.9c4.1-4.7,8-10.4,11.4-17.3c0.7-1.5,1.5-3.1,2.2-4.7
	c11-25.5,25.7-28.6,28.6-29l0.4-0.1c1.5-0.2,2.9-0.4,4.4-0.4c4.6,0,9,1.2,12.8,3.4c7.7,4.4,12.9,12.8,12.9,22.3
	c0,7.1-2.9,13.6-7.7,18.3C162.1,144.1,160,145.6,157.8,146.9z"/>
<path class="st2" d="M76.3,110.5c2.5,4,4,8.7,4,13.8c0,12.7-9.2,23.2-21.3,25.3l1.6-0.1c6.8-1.4,22.5-7,32.4-30
	c1.7-4,3.6-7.8,5.7-11.3c-2.5-7-6.7-13.2-12-18.1c-2.2,3.7-4.3,7.7-6.1,12C79.3,105.2,77.8,108,76.3,110.5z"/>
</svg>
